<svg width="655" height="634" viewBox="0 0 655 634" fill="none" xmlns="http://www.w3.org/2000/svg">
    <path
        d="M379.707 529.019C327.772 542.13 277.019 542.601 234.026 532.726C174.175 518.979 138.626 460.601 126.595 412.942C114.563 365.284 112.371 308.715 154.48 256.351C192.91 208.562 235.895 191.389 295.657 196.084C359.189 201.076 380.535 269.637 430.91 287.359C483.185 305.75 536.059 236.156 567.215 323.95C578.382 368.183 559.025 415.311 519.284 454.243C485.449 487.39 436.837 514.596 379.707 529.019Z"
        fill="#86C8EC" />
    <path
        d="M460.675 435.941C420.885 474.593 375.624 501.311 331.974 514.742C271.211 533.439 209.177 499.57 173.767 463.117C138.358 426.664 107.166 377.132 117.867 308.413C127.633 245.698 157.301 208.045 213.308 181.287C272.849 152.84 327.41 203.189 381.732 192.962C438.102 182.35 449.553 92.6201 522.846 155.113C555.711 188.946 562.704 241.186 547.186 296.648C533.975 343.867 504.446 393.422 460.675 435.941Z"
        fill="#A6D6F1" />
    <path
        d="M437.28 319.775C422.667 371.307 397.698 415.496 367.65 447.792C325.819 492.751 257.488 494.348 210.199 480.938C162.91 467.528 112.823 441.142 88.5291 378.493C66.3578 321.317 72.978 275.504 106.925 226.097C143.014 173.572 213.063 189.367 253.598 154.602C295.663 118.526 261.829 37.9382 353.439 54.8531C397.33 67.2991 428.465 107.626 442.311 161.509C454.099 207.385 453.355 263.087 437.28 319.775Z"
        fill="#D1EDFC" fill-opacity="0.65" />
    <path fill-rule="evenodd" clip-rule="evenodd"
        d="M261.008 297.729C259.346 294.685 257.061 292.367 254.153 290.776C251.245 289.184 247.852 288.388 243.974 288.388C239.681 288.388 235.873 289.357 232.55 291.295C229.226 293.232 226.63 296 224.76 299.597C222.891 303.195 221.956 307.347 221.956 312.052C221.956 316.895 222.891 321.116 224.76 324.714C226.699 328.312 229.365 331.079 232.757 333.017C236.15 334.954 240.097 335.923 244.598 335.923C250.137 335.923 255.053 334.643 258.584 331.737L258.584 331.737L258.584 331.737L258.584 331.737C260.734 329.588 261.679 328.644 262.422 327.562C263.005 326.714 263.463 325.781 264.282 324.118L264.282 324.118C264.346 323.988 264.412 323.854 264.48 323.715C256.721 323.139 249 320.906 249 314.498C249 314.498 275.423 311.128 283.213 314.498C284.984 320.44 283.213 349 283.213 349C278.902 349 274.239 345.602 273.625 334.285C273.506 334.451 273.385 334.616 273.263 334.781C270.078 339.071 265.958 342.531 260.904 345.16C255.918 347.72 250.31 349 244.078 349C237.085 349 230.749 347.443 225.072 344.33C219.463 341.147 215.032 336.753 211.778 331.149C208.593 325.544 207 319.179 207 312.052C207 304.925 208.593 298.56 211.778 292.955C215.032 287.281 219.463 282.888 225.072 279.774C230.749 276.591 237.05 275 243.974 275C252.145 275 259.242 277.007 265.266 281.02C271.29 284.964 275.444 290.533 277.729 297.729H261.008ZM369.29 275.934V348.377H354.75V301.258L335.328 348.377H324.319L304.793 301.258V348.377H290.252V275.934H306.766L329.823 329.799L352.88 275.934H369.29ZM433 287.662V275.934H379.823V287.662H399.141V348.377H413.682V287.662H433Z"
        fill="url(#paint0_linear_745_1322)" />
    <circle cx="320" cy="312" r="153.5" stroke="#201F1F" stroke-linecap="round"
        stroke-dasharray="8 8" />
    <path
        d="M154 147C182.719 147 206 123.719 206 95C206 66.2812 182.719 43 154 43C125.281 43 102 66.2812 102 95C102 123.719 125.281 147 154 147Z"
        fill="#F4D18A" />
    <path
        d="M168 82H139C139 72.3514 142.346 65.5405 142.346 65.5405C142.346 65.5405 144.577 71.7838 144.019 70.0811C143.573 68.7189 145.321 63.8378 146.25 62.7027C145.692 66.1081 148.481 68.6054 148.481 67.2432C148.481 65.8811 151.641 61.7568 152.385 61C151.827 63.8378 154.615 67.0162 154.615 66.1081C154.615 65.2 158.705 62.7027 159.635 62.1351C159.077 64.4054 159.746 68.7189 160.192 67.8108C160.638 66.9027 164.282 65.5405 165.212 65.5405C164.84 68.5676 163.353 72.54 164.654 71.2162C165.769 70.0811 166.327 70.0811 166.327 68.9459C167.219 69.4 168 78.5946 168 82Z"
        fill="#904E2B" stroke="#904E2B" />
    <path d="M166 105L164 104H144L142 105L154 124L166 105Z" fill="#5D5DE8" />
    <path
        d="M169 82.0007C168 82.0007 168 83.1118 168 83.1118V82.0007C167.998 80.9356 167.981 79.9145 167.933 78.9384C163.891 75.001 154 75 154 75C154 75 144.109 75.001 140.067 78.9384C140.019 79.9145 140.002 80.9356 140 82.0007V89.9985L144 99.9995L149.105 103.996C149.674 104.635 150.489 105 151.345 105H154H156.655C157.511 105 158.326 104.635 158.895 103.996L164 99.9995L167.207 91.9817C170.042 91.7777 171 87.4772 171 84.2229C171 83.1118 170 82.0007 169 82.0007Z"
        fill="#F8E1C2" />
    <path
        d="M140 82.0007V83.1118C140 83.1118 140 82.0007 139 82.0007C138 82.0007 137 83.1118 137 84.2229C137 87.4762 137.958 91.7777 140.793 91.9817L144 99.9995L149.105 103.996C149.674 104.635 150.489 105 151.345 105H154V75C154 75 144.109 75.001 140.067 78.9384C140.019 79.9145 140.002 80.9356 140 82.0007Z"
        fill="#FFF7EB" />
    <path
        d="M145.232 85.6971C144.256 86.6727 144.258 88.2576 145.235 89.2349C145.237 89.2367 145.238 89.2384 145.24 89.2402C145.259 89.2199 145.272 89.1978 145.291 89.1792C146.265 88.2045 147.844 88.205 148.823 89.177C149.744 88.1979 149.73 86.6589 148.77 85.6994C147.792 84.723 146.208 84.7207 145.232 85.6971Z"
        fill="#3E3E3F" />
    <path
        d="M159.232 85.6971C158.256 86.6727 158.258 88.2576 159.235 89.2349C159.237 89.2367 159.238 89.2384 159.24 89.2402C159.259 89.2199 159.272 89.1978 159.291 89.1792C160.265 88.2045 161.844 88.205 162.823 89.177C163.744 88.1979 163.73 86.6589 162.77 85.6994C161.792 84.723 160.208 84.7207 159.232 85.6971Z"
        fill="#3E3E3F" />
    <path
        d="M156.655 105H154H151.345C150.489 105 149.674 104.635 149.105 103.996L144 100V104.5C144 104.5 144 112 154 112C164 112 164 104.5 164 104.5V100L158.895 103.996C158.326 104.635 157.511 105 156.655 105Z"
        fill="#F4D0A1" />
    <path
        d="M149.105 103.996L144 100V104.5C144 104.5 144 112 154 112V105H151.345C150.489 105 149.674 104.635 149.105 103.996Z"
        fill="#F8E1C2" />
    <path
        d="M140.536 82C141.427 79.1927 147.216 76.1515 150 74.9818C147.831 74.397 143.138 73.4612 141.719 74.397C140.299 75.3327 139.353 80.2455 140.536 82Z"
        fill="#904E2B" stroke="#904E2B" />
    <path
        d="M125 124L130.577 113.597C131.177 112.264 134.283 109.111 135.596 108.522L142.288 105L154 124H125Z"
        fill="#5D5DE8" />
    <path
        d="M183 124L177.423 113.597C176.823 112.264 173.717 109.111 172.404 108.522L165.712 105L154 124H183Z"
        fill="#5D5DE8" />
    <path d="M166 82C166 82 152.108 76.6667 149 74H158.871L166 77.2V82Z" fill="#904E2B"
        stroke="#904E2B" />
    <path
        d="M149.325 96.3283C150.071 98.1251 153 100 153 100V95.0783L149.789 95.0783C149.281 95.0783 148.579 94.5314 149.325 96.3283Z"
        fill="#FF6242" />
    <path
        d="M153 99.9919V97.4786C152.159 96.8872 151.004 96.7954 151.004 97.4786C150.898 98.2178 153 100.14 153 99.9919Z"
        fill="#FFCDC3" />
    <path
        d="M156.675 96.3283C155.929 98.1251 153 100 153 100V95.0783L156.211 95.0783C156.719 95.0783 157.421 94.5314 156.675 96.3283Z"
        fill="#FF6242" />
    <path
        d="M153 99.9919V97.4786C153.841 96.8872 154.996 96.7954 154.996 97.4786C155.102 98.2178 153 100.14 153 99.9919Z"
        fill="#FFCDC3" />
    <circle cx="153" cy="94" r="70.5" stroke="#201F1F" stroke-linecap="round"
        stroke-linejoin="round" stroke-dasharray="8 8" />
    <g clip-path="url(#clip0_745_1322)">
        <path
            d="M284.403 64.3509L294.755 102.983L291.895 115.143L331.589 104.507C334.741 103.662 336.611 100.43 335.769 97.2879L324.094 53.7159L284.403 64.3509Z"
            fill="#C8C2E9" />
        <path
            d="M320.32 54.727L331.035 94.7143C331.439 96.2234 331.226 97.8319 330.441 99.1858C329.657 100.54 328.365 101.528 326.852 101.934L292.859 111.042L291.895 115.143L331.589 104.507C334.741 103.662 336.611 100.43 335.769 97.2879L324.094 53.7159L320.32 54.727Z"
            fill="#B9B1E0" />
        <path
            d="M283.253 106.07L294.844 102.964L296.167 107.9C296.571 109.409 296.348 111.02 295.547 112.378C294.746 113.736 293.433 114.731 291.895 115.143C290.359 115.554 288.725 115.35 287.353 114.575C285.98 113.8 284.982 112.518 284.576 111.01L283.253 106.07Z"
            fill="#8A87B2" />
        <path
            d="M293.829 114.624C294.849 113.925 295.627 112.916 296.053 111.737C296.479 110.559 296.533 109.269 296.206 108.049L294.844 102.964L287.116 105.035L288.479 110.12C288.806 111.34 289.498 112.43 290.457 113.238C291.416 114.045 292.595 114.53 293.829 114.624Z"
            fill="#7C79AB" />
        <path
            d="M318.947 64.4127L293.332 71.2762C293.142 71.327 292.946 71.3249 292.788 71.2703C292.629 71.2157 292.521 71.113 292.487 70.9849C292.453 70.8568 292.495 70.7138 292.605 70.5873C292.715 70.4607 292.883 70.3611 293.073 70.3102L318.688 63.4467C318.878 63.3959 319.073 63.398 319.232 63.4526C319.39 63.5072 319.498 63.6099 319.533 63.738C319.567 63.8661 319.525 64.0091 319.415 64.1356C319.305 64.2622 319.136 64.3618 318.947 64.4127Z"
            fill="#4D4C78" />
        <path
            d="M315.937 72.4661L295.135 78.0398C294.948 78.0901 294.754 78.0874 294.597 78.0324C294.44 77.9774 294.333 77.8745 294.298 77.7464C294.264 77.6183 294.306 77.4755 294.414 77.3494C294.522 77.2232 294.689 77.1241 294.876 77.0739L315.678 71.5001C315.865 71.4499 316.059 71.4525 316.216 71.5076C316.373 71.5626 316.48 71.6655 316.515 71.7936C316.549 71.9216 316.507 72.0645 316.399 72.1906C316.291 72.3167 316.124 72.4158 315.937 72.4661Z"
            fill="#4D4C78" />
        <path
            d="M314.844 80.0056L296.953 84.7997C296.763 84.8504 296.568 84.8481 296.41 84.7934C296.252 84.7387 296.144 84.636 296.11 84.5079C296.076 84.3798 296.118 84.2368 296.227 84.1104C296.337 83.984 296.505 83.8844 296.694 83.8338L314.586 79.0397C314.775 78.989 314.97 78.9912 315.128 79.046C315.286 79.1007 315.394 79.2034 315.428 79.3315C315.463 79.4596 315.42 79.6026 315.311 79.729C315.201 79.8554 315.034 79.9549 314.844 80.0056Z"
            fill="#4D4C78" />
        <path
            d="M319.561 85.989L298.759 91.5628C298.572 91.613 298.378 91.6104 298.221 91.5553C298.064 91.5003 297.957 91.3974 297.922 91.2693C297.888 91.1413 297.93 90.9984 298.038 90.8723C298.146 90.7462 298.313 90.6471 298.5 90.5968L319.302 85.0231C319.489 84.9728 319.683 84.9755 319.84 85.0305C319.997 85.0855 320.104 85.1884 320.139 85.3165C320.173 85.4446 320.131 85.5874 320.023 85.7135C319.915 85.8396 319.748 85.9387 319.561 85.989Z"
            fill="#4D4C78" />
        <path
            d="M318.468 93.5285L300.577 98.3226C300.387 98.3733 300.192 98.3711 300.034 98.3163C299.876 98.2616 299.768 98.1589 299.734 98.0308C299.7 97.9027 299.742 97.7597 299.851 97.6333C299.961 97.5069 300.129 97.4074 300.318 97.3567L318.21 92.5626C318.399 92.5119 318.594 92.5142 318.752 92.5689C318.91 92.6236 319.018 92.7263 319.052 92.8544C319.087 92.9825 319.044 93.1255 318.935 93.2519C318.825 93.3783 318.658 93.4779 318.468 93.5285Z"
            fill="#4D4C78" />
        <path
            d="M335.543 96.4411L332.131 83.7088C332.044 83.7745 331.948 83.8266 331.845 83.8634C331.63 83.9211 331.025 83.8195 330.625 83.752C329.84 83.621 328.949 83.4734 328.062 83.7112C327.759 83.7914 327.471 83.9163 327.206 84.0815C326.045 84.8198 325.724 86.0678 325.465 87.0693C325.376 87.4125 325.23 87.9865 325.111 88.1334C324.993 88.2802 324.425 88.5474 324.091 88.7076C323.133 89.1573 321.944 89.721 321.446 90.9534C320.949 92.1859 321.433 93.3483 321.824 94.2872C321.969 94.6419 322.195 95.183 322.182 95.3795C322.169 95.576 321.877 96.0665 321.707 96.3681C321.186 97.2837 320.544 98.4213 320.892 99.7206C321.24 101.02 322.365 101.684 323.275 102.22C323.573 102.396 324.075 102.689 324.18 102.835C324.284 102.982 324.364 103.581 324.416 103.964C324.469 104.347 324.534 104.861 324.666 105.326L331.262 103.559C334.452 102.704 336.367 99.5177 335.543 96.4411Z"
            fill="#B9B1E0" />
        <path
            d="M336.069 102.271C339.27 101.413 341.17 98.1233 340.312 94.9225C339.454 91.7217 336.164 89.8222 332.964 90.6799C329.763 91.5375 327.863 94.8275 328.721 98.0283C329.579 101.229 332.869 103.129 336.069 102.271Z"
            fill="#F4C23F" />
        <path
            d="M337.529 86.167C337.664 86.0319 337.77 85.8707 337.839 85.6935C337.058 85.004 336.344 83.9169 335.414 83.8724C335.096 83.8575 334.783 83.9734 334.479 84.1588C334.43 84.3775 334.437 84.6047 334.5 84.8194C334.562 85.0342 334.678 85.2296 334.837 85.3878L335.628 86.1678C335.752 86.2917 335.9 86.39 336.063 86.457C336.226 86.524 336.4 86.5584 336.577 86.5583C336.753 86.5583 336.928 86.5237 337.092 86.4565C337.255 86.3894 337.404 86.291 337.529 86.167Z"
            fill="#FAD564" />
        <path
            d="M332.541 86.0636C332.605 85.9129 332.638 85.7557 332.637 85.5998C332.56 85.6272 332.483 85.6546 332.405 85.6756C331.243 85.987 329.648 85.3734 328.527 85.6569C328.549 85.8946 328.651 86.1159 328.82 86.2949C328.989 86.474 329.218 86.6033 329.481 86.6679L330.637 86.9509C330.819 86.9953 331.013 87.0076 331.207 86.987C331.401 86.9665 331.592 86.9135 331.769 86.8311C331.946 86.7487 332.105 86.6385 332.237 86.5068C332.37 86.3751 332.473 86.2245 332.541 86.0636Z"
            fill="#FAD564" />
        <path
            d="M344.192 90.4804C343.521 89.4915 343.958 87.5436 343.007 86.8246C342.407 86.3691 341.42 86.5169 340.485 86.5939C340.343 87.0349 340.355 87.5027 340.52 87.9267L341.151 89.5884C341.353 90.1185 341.773 90.544 342.319 90.7715C342.865 90.9991 343.491 91.01 344.062 90.802C344.16 90.7647 344.256 90.7223 344.35 90.6752C344.293 90.6137 344.24 90.5487 344.192 90.4804Z"
            fill="#FAD564" />
        <path
            d="M347.202 93.5915C347.543 94.8616 345.968 96.317 345.903 97.5646C345.839 98.8121 347.244 100.476 346.793 101.657C346.342 102.838 344.214 103.1 343.414 104.094C342.613 105.087 342.821 107.222 341.744 107.927C340.666 108.632 338.841 107.559 337.577 107.898C336.313 108.237 335.221 110.072 333.98 110.007C332.738 109.943 331.798 107.981 330.62 107.521C329.442 107.062 327.466 107.904 326.472 107.102C325.478 106.3 325.898 104.201 325.196 103.113C324.494 102.025 322.428 101.591 322.088 100.321C321.748 99.0507 323.322 97.5953 323.383 96.3487C323.444 95.1021 322.044 93.4412 322.495 92.2598C322.946 91.0785 325.076 90.8122 325.877 89.8188C326.677 88.8253 326.466 86.6915 327.544 85.9899C328.622 85.2884 330.451 86.3565 331.714 86.0179C332.978 85.6793 334.066 83.8413 335.308 83.9096C336.55 83.9778 337.493 85.935 338.67 86.3908C339.847 86.8467 341.825 86.0083 342.816 86.8148C343.807 87.6214 343.39 89.7154 344.091 90.8001C344.792 91.8849 346.862 92.3214 347.202 93.5915Z"
            fill="#F4C23F" />
        <path
            d="M335.943 99.0704C336.077 99.2417 336.134 99.4381 336.114 99.6595C336.092 99.8769 336.001 100.053 335.841 100.189C335.68 100.324 335.494 100.379 335.281 100.352C335.073 100.324 334.902 100.225 334.768 100.053L333.785 98.7758L330.286 99.7134L330.067 101.313C330.037 101.528 329.939 101.7 329.772 101.828C329.605 101.957 329.419 102.002 329.212 101.965C329.005 101.928 328.838 101.821 328.711 101.643C328.583 101.461 328.534 101.263 328.564 101.048L329.661 93.0897C329.681 92.93 329.741 92.7949 329.841 92.6842C329.944 92.5685 330.068 92.4912 330.212 92.4525C330.357 92.4138 330.501 92.4193 330.644 92.4691C330.79 92.5137 330.911 92.6002 331.009 92.7284L335.943 99.0704ZM330.511 97.9998L332.727 97.4061L330.908 95.05L330.511 97.9998Z"
            fill="#201F1F" />
        <path
            d="M341.309 93.5657C341.493 93.5165 341.667 93.5425 341.833 93.6437C341.998 93.7449 342.106 93.8901 342.157 94.0793C342.207 94.2685 342.187 94.4503 342.095 94.6247C342.003 94.795 341.865 94.9047 341.681 94.9539L340.233 95.3418L340.643 96.8719C340.694 97.0611 340.673 97.2409 340.581 97.4112C340.488 97.5815 340.35 97.6912 340.166 97.7404C339.983 97.7896 339.808 97.7636 339.643 97.6624C339.478 97.5613 339.37 97.4161 339.319 97.2269L338.909 95.6968L337.455 96.0862C337.276 96.1344 337.103 96.1079 336.938 96.0067C336.772 95.9055 336.664 95.7583 336.612 95.565C336.561 95.3758 336.582 95.196 336.675 95.0257C336.767 94.8554 336.904 94.7462 337.083 94.698L338.537 94.3086L338.127 92.7785C338.076 92.5893 338.097 92.4095 338.19 92.2392C338.281 92.0648 338.419 91.953 338.602 91.9038C338.786 91.8546 338.961 91.8827 339.127 91.988C339.293 92.0891 339.401 92.2343 339.451 92.4235L339.861 93.9536L341.309 93.5657Z"
            fill="#201F1F" />
    </g>
    <g clip-path="url(#clip1_745_1322)">
        <path
            d="M94.5 225H100.5C101.33 225 102 225.673 102 226.503V256.5C102 257.329 101.33 258 100.5 258H94.5C93.6705 258 93 257.329 93 256.5V226.501C93 225.673 93.6705 225 94.5 225Z"
            fill="#3F95D4" />
        <path
            d="M95.6667 256.5V226.501C95.6667 225.673 96.2627 225 97 225H94.3333C93.596 225 93 225.673 93 226.501V256.5C93 257.329 93.596 258 94.3333 258H97C96.2627 258 95.6667 257.328 95.6667 256.5Z"
            fill="#367FB4" />
        <path d="M86 258H134V267H86V258Z" fill="#D99666" />
        <path d="M93 247H102V253H93V247Z" fill="#F7CB8B" />
        <path
            d="M103.5 219H112.5C113.33 219 114 219.674 114 220.503V256.5C114 257.329 113.33 258 112.5 258H103.5C102.671 258 102 257.329 102 256.5V220.502C102 219.674 102.671 219 103.5 219Z"
            fill="#349886" />
        <path d="M107 252H110V231H107V252ZM107 225V228H110V225H107Z" fill="#9ACCC3" />
        <path
            d="M115.5 228H124.5C125.33 228 126 228.674 126 229.5V256.5C126 257.33 125.33 258 124.5 258H115.5C114.671 258 114 257.33 114 256.5V229.5C114 228.674 114.671 228 115.5 228Z"
            fill="#E2574C" />
        <path d="M96 247H93V253H96V247Z" fill="#D2AD77" />
        <path
            d="M104.667 256.5V220.502C104.667 219.674 105.263 219 106 219H103.333C102.596 219 102 219.674 102 220.502V256.5C102 257.329 102.596 258 103.333 258H106C105.263 258 104.667 257.328 104.667 256.5Z"
            fill="#2C8172" />
        <path
            d="M116.667 256.5V229.5C116.667 228.674 117.263 228 118 228H115.333C114.596 228 114 228.674 114 229.5V256.5C114 257.33 114.596 258 115.333 258H118C117.263 258 116.667 257.328 116.667 256.5Z"
            fill="#C04A40" />
        <path d="M114 243H126V237H114V243ZM114 234V235.503H126V234H114Z" fill="#F7CB8B" />
        <path d="M117 234H114V236H117V234Z" fill="#D2AD77" />
        <path d="M117 237H114V243H117V237Z" fill="#D2AD77" />
    </g>
    <path d="M241 97H269" stroke="#201F1F" stroke-linecap="round" stroke-dasharray="8 8" />
    <path d="M121 173L114 199" stroke="#201F1F" stroke-linecap="round" stroke-dasharray="8 8" />
    <path d="M202 154L224 182" stroke="#201F1F" stroke-dasharray="8 8" />
    <path
        d="M585 279C613.719 279 637 255.719 637 227C637 198.281 613.719 175 585 175C556.281 175 533 198.281 533 227C533 255.719 556.281 279 585 279Z"
        fill="#F4D18A" />
    <path d="M584 259L572 240H596L584 259Z" fill="#F1F2F2" />
    <path
        d="M588 239.851H584H580L574 236.001V239.303C574 239.303 574 247 584 247C594 247 594 239.303 594 239.303V236L588 239.851Z"
        fill="#F7B4B4" />
    <path
        d="M601 219.223C601 218.112 600 217.001 599 217.001C598 217.001 598 218.112 598 218.112V217.001C597.982 208 596.976 202 584 202C571.024 202 570.018 208 570 217.001V224.999L574 235L579.105 238.996C579.674 239.635 580.489 240 581.345 240H584H586.655C587.511 240 588.326 239.635 588.895 238.996L594 235L597.207 226.982C600.042 226.778 601 222.478 601 219.223Z"
        fill="#FBC8C8" />
    <path
        d="M570 217.001V218.112C570 218.112 570 217.001 569 217.001C568 217.001 567 218.112 567 219.223C567 222.477 567.958 226.778 570.793 226.982L574 235L579.105 238.996C579.674 239.635 580.489 240 581.345 240H584V202C571.024 202 570.018 208 570 217.001Z"
        fill="#FBD7D7" />
    <path d="M576.989 232.034L577 232H576L576.017 232.034H576.989Z" fill="#FBC8C8" />
    <path d="M584 239.851H580L574 236V239.303C574 239.303 574 247 584 247V239.851Z" fill="#FBC8C8" />
    <path
        d="M596.794 206.269C596.892 205.852 596.94 205.43 596.94 205.008C596.94 202.168 596.032 200.229 583.993 200.04V200.016C583.359 200.006 582.705 200 582.009 200C569.504 200 568.973 207.974 569.001 209.672C569.004 209.874 569.015 209.993 569.015 209.993C569.015 209.993 569.015 215.009 569.015 217.004C569.015 217.008 569.015 217.014 569.015 217.018C569.015 217.018 570.014 219.016 571.014 221.015V228.009L571.998 235.001L579.994 240H583.992H587.99L595.986 235.001L596.97 228.009V221.015H597.001L599 217.018V211.991C599.001 210.015 598.261 208.049 596.794 206.269ZM591.988 232.006H590.989L588.99 226.011H583.992H578.994L576.995 232.006H575.996L572.997 226.011V209.666C576.335 211.91 579.806 212.036 583.992 212.018V212.015C586.595 212.003 591.88 212.046 594.987 209.23V226.009L591.988 232.006Z"
        fill="#692E19" />
    <path
        d="M584 212.019V200.016C583.367 200.006 582.712 200 582.016 200C568.016 200 569.016 209.992 569.016 209.992C569.016 209.992 569.016 215.019 569.016 217.018C569.016 217.018 570.016 219.016 571.016 221.015V228.009L572 235.001L580 240H584V226.011H579L577 232.006H576L573 226.011V209.658C575.189 211.128 576.936 212.046 584 212.019Z"
        fill="#84462D" />
    <path
        d="M581 219C581 217.896 580.103 217 578.997 217C578.995 217 578.993 217 578.991 217C578.992 217.022 578.997 217.042 578.997 217.063C578.997 218.166 578.104 219.058 577 219.062C577.033 220.137 577.911 221 578.997 221C580.103 220.999 581 220.104 581 219Z"
        fill="#3E3E3F" />
    <path
        d="M592 219C592 217.896 591.103 217 589.997 217C589.995 217 589.993 217 589.991 217C589.992 217.021 589.997 217.041 589.997 217.062C589.997 218.165 589.104 219.058 588 219.062C588.033 220.137 588.911 221 589.997 221C591.103 221 592 220.105 592 219Z"
        fill="#3E3E3F" />
    <path d="M572 240L574.003 239L584 243.981L578.008 250L572 240Z" fill="#FEFEFE" />
    <path d="M597 240L594.997 239L585 243.981L590.992 250L597 240Z" fill="#FEFEFE" />
    <path
        d="M588 259L585.201 248.815L587 247.02L583.981 244L580.983 246.994L582.801 248.808L580 259H588Z"
        fill="#099686" />
    <path d="M584 259V244.019L583.981 244L580.983 246.994L582.801 248.808L580 259H584Z"
        fill="#12B2A0" />
    <path d="M552 259L556 248C556.615 246.667 557.698 245.606 559.043 245.017L572 240L584 259H552Z"
        fill="#3E3E3F" />
    <path d="M616 259L612 248C611.385 246.667 610.302 245.606 608.957 245.017L596 240L584 259H616Z"
        fill="#3E3E3F" />
    <path d="M606 252H596V254H606V252Z" fill="#FEFEFE" />
    <path d="M580 229H588C588 229 588 233 584 233C580 233 580 229 580 229Z" fill="#FBC8C8" />
    <path d="M575 394H573V398.667L575 401V394Z" fill="#FF5751" />
    <path opacity="0.6" d="M575 394H573V398.667L575 401V394Z" fill="#242C88" />
    <path d="M575 394H573V398.667L575 401V394Z" stroke="#242C88" stroke-width="2"
        stroke-miterlimit="10" stroke-linecap="round" stroke-linejoin="round" />
    <path d="M606 385H575V423H606V385Z" fill="#FEFEFE" />
    <path opacity="0.2" d="M606 385H575V423H606V385Z" fill="#242C88" />
    <path d="M606 385H575V423H606V385Z" stroke="#242C88" stroke-width="2" stroke-miterlimit="10"
        stroke-linecap="round" stroke-linejoin="round" />
    <path d="M591 391H599" stroke="#FEFEFE" stroke-width="2" stroke-miterlimit="10"
        stroke-linecap="round" stroke-linejoin="round" />
    <path d="M591 393H599" stroke="#FEFEFE" stroke-width="2" stroke-miterlimit="10"
        stroke-linecap="round" stroke-linejoin="round" />
    <path d="M591 396H599" stroke="#FEFEFE" stroke-width="2" stroke-miterlimit="10"
        stroke-linecap="round" stroke-linejoin="round" />
    <path d="M591 398H599" stroke="#FEFEFE" stroke-width="2" stroke-miterlimit="10"
        stroke-linecap="round" stroke-linejoin="round" />
    <path d="M601 402H581V413H601V402Z" stroke="#FEFEFE" stroke-width="2" stroke-miterlimit="10"
        stroke-linecap="round" stroke-linejoin="round" />
    <path d="M601 416H581V418H601V416Z" stroke="#FEFEFE" stroke-width="2" stroke-miterlimit="10"
        stroke-linecap="round" stroke-linejoin="round" />
    <path opacity="0.2" d="M593 412H607V385H592V411.018C592 411.558 592.45 412 593 412Z"
        fill="#242C88" />
    <path d="M625 372H594V410H625V372Z" fill="#FEFEFE" />
    <path d="M625 372H594V410H625V372Z" stroke="#242C88" stroke-width="2" stroke-miterlimit="10"
        stroke-linecap="round" stroke-linejoin="round" />
    <path opacity="0.2" d="M575 401H587.519C587.783 401 588 400.775 588 400.5V392H575V401Z"
        fill="#242C88" />
    <path d="M588 390H573V399H588V390Z" fill="#FF5751" />
    <path d="M588 390H573V399H588V390Z" stroke="#242C88" stroke-width="2" stroke-miterlimit="10"
        stroke-linecap="round" stroke-linejoin="round" />
    <path
        d="M576.528 395.403H575.798V396.515C575.798 396.675 575.761 396.794 575.683 396.876C575.606 396.959 575.514 397 575.399 397C575.28 397 575.183 396.959 575.11 396.876C575.037 396.794 575 396.675 575 396.519V393.49C575 393.316 575.041 393.188 575.119 393.114C575.197 393.041 575.33 393 575.505 393H576.528C576.83 393 577.064 393.023 577.225 393.069C577.385 393.114 577.528 393.188 577.642 393.293C577.757 393.398 577.849 393.522 577.908 393.673C577.968 393.824 578 393.993 578 394.181C578 394.584 577.876 394.886 577.628 395.092C577.381 395.297 577.018 395.403 576.528 395.403ZM576.335 393.6H575.798V394.799H576.335C576.523 394.799 576.679 394.78 576.807 394.739C576.936 394.698 577.032 394.634 577.096 394.547C577.161 394.46 577.197 394.341 577.197 394.195C577.197 394.021 577.147 393.879 577.046 393.769C576.927 393.659 576.693 393.6 576.335 393.6Z"
        fill="#FEFEFE" />
    <path
        d="M579.573 393H580.812C581.134 393 581.412 393.023 581.641 393.075C581.87 393.126 582.078 393.219 582.269 393.363C582.754 393.722 583 394.262 583 394.988C583 395.23 582.978 395.449 582.929 395.645C582.88 395.841 582.804 396.022 582.7 396.18C582.596 396.339 582.465 396.483 582.307 396.609C582.181 396.707 582.045 396.781 581.892 396.842C581.739 396.902 581.581 396.939 581.412 396.963C581.243 396.986 581.046 397 580.834 397H579.595C579.42 397 579.295 396.977 579.207 396.935C579.12 396.893 579.065 396.828 579.038 396.749C579.011 396.669 579 396.562 579 396.432V393.498C579 393.321 579.044 393.196 579.136 393.121C579.229 393.047 579.366 393 579.573 393ZM579.939 393.638V396.353H580.659C580.817 396.353 580.943 396.348 581.03 396.343C581.117 396.339 581.21 396.32 581.308 396.288C581.407 396.255 581.488 396.218 581.559 396.166C581.876 395.938 582.034 395.542 582.034 394.984C582.034 394.588 581.963 394.295 581.827 394.099C581.69 393.903 581.516 393.778 581.308 393.722C581.101 393.666 580.855 393.643 580.566 393.643H579.939V393.638Z"
        fill="#FEFEFE" />
    <path
        d="M586.584 393.613H584.866V394.62H586.304C586.439 394.62 586.534 394.648 586.599 394.703C586.664 394.757 586.699 394.831 586.699 394.922C586.699 395.014 586.664 395.087 586.599 395.137C586.534 395.188 586.434 395.22 586.304 395.22H584.866V396.515C584.866 396.68 584.826 396.803 584.746 396.881C584.666 396.959 584.561 397 584.436 397C584.306 397 584.2 396.959 584.12 396.881C584.04 396.803 584 396.68 584 396.515V393.49C584 393.375 584.02 393.284 584.055 393.211C584.09 393.137 584.15 393.087 584.23 393.05C584.311 393.014 584.411 393 584.536 393H586.589C586.73 393 586.83 393.027 586.9 393.082C586.97 393.137 587 393.211 587 393.302C587 393.394 586.965 393.471 586.9 393.526C586.835 393.581 586.72 393.613 586.584 393.613Z"
        fill="#FEFEFE" />
    <path d="M615 377V382H620C620 379.241 617.759 377 615 377Z" fill="#83D689" />
    <path
        d="M615.599 381.5V377C613.061 377 611 379.017 611 381.5C611 383.983 613.061 386 615.599 386C616.948 386 618.156 385.428 619 384.523L615.599 381.5Z"
        fill="#589FFF" />
    <path
        d="M616 387C618.761 387 621 384.761 621 382C621 379.239 618.761 377 616 377C613.239 377 611 379.239 611 382C611 384.761 613.239 387 616 387Z"
        stroke="#242C88" stroke-width="2" stroke-miterlimit="10" stroke-linecap="round"
        stroke-linejoin="round" />
    <path d="M605 401H602V404H605V401Z" fill="#589FFF" />
    <path d="M609 398H606V404H609V398Z" fill="#83D689" />
    <path d="M614 400H611V404H614V400Z" fill="#589FFF" />
    <path d="M618 397H615V404H618V397Z" fill="#83D689" />
    <path d="M605 401H602V404H605V401Z" stroke="#242C88" stroke-width="2" stroke-miterlimit="10"
        stroke-linecap="round" stroke-linejoin="round" />
    <path d="M609 398H606V404H609V398Z" stroke="#242C88" stroke-width="2" stroke-miterlimit="10"
        stroke-linecap="round" stroke-linejoin="round" />
    <path d="M614 400H611V404H614V400Z" stroke="#242C88" stroke-width="2" stroke-miterlimit="10"
        stroke-linecap="round" stroke-linejoin="round" />
    <path d="M618 397H615V404H618V397Z" stroke="#242C88" stroke-width="2" stroke-miterlimit="10"
        stroke-linecap="round" stroke-linejoin="round" />
    <path opacity="0.2" d="M599 394H619" stroke="#242C88" stroke-width="2" stroke-miterlimit="10"
        stroke-linecap="round" stroke-linejoin="round" />
    <path opacity="0.2" d="M599 391H619" stroke="#242C88" stroke-width="2" stroke-miterlimit="10"
        stroke-linecap="round" stroke-linejoin="round" />
    <path opacity="0.2" d="M599 380H606" stroke="#242C88" stroke-width="2" stroke-miterlimit="10"
        stroke-linecap="round" stroke-linejoin="round" />
    <path opacity="0.2" d="M599 378H606" stroke="#242C88" stroke-width="2" stroke-miterlimit="10"
        stroke-linecap="round" stroke-linejoin="round" />
    <path opacity="0.2" d="M599 384H606" stroke="#242C88" stroke-width="2" stroke-miterlimit="10"
        stroke-linecap="round" stroke-linejoin="round" />
    <path opacity="0.2" d="M599 386H602" stroke="#242C88" stroke-width="2" stroke-miterlimit="10"
        stroke-linecap="round" stroke-linejoin="round" />
    <path opacity="0.2" d="M599 382H606" stroke="#242C88" stroke-width="2" stroke-miterlimit="10"
        stroke-linecap="round" stroke-linejoin="round" />
    <circle cx="584" cy="227" r="70.5" stroke="#201F1F" stroke-linecap="round"
        stroke-linejoin="round" stroke-dasharray="8 8" />
    <path
        d="M554.858 74.4271C556.532 75.3933 557.106 77.5337 556.139 79.2075L528.132 127.701C527.165 129.374 525.024 129.948 523.35 128.982L488.706 108.987C487.032 108.021 486.458 105.881 487.425 104.207L515.433 55.7137C516.399 54.04 518.54 53.4663 520.214 54.4324L554.858 74.4271Z"
        fill="#FEFEFE" stroke="#201F1F" />
    <path d="M551.644 78.9947L517 59L492.994 100.566L527.638 120.56L551.644 78.9947Z" fill="#3E3E3F" />
    <path
        d="M507.732 117.464C508.688 118.016 509.912 117.688 510.464 116.731C511.017 115.775 510.689 114.552 509.732 114C508.776 113.448 507.552 113.775 507 114.732C506.447 115.688 506.775 116.911 507.732 117.464Z"
        fill="#CFD3D4" />
    <path
        d="M523.799 98.3477C524.516 98.7618 525.434 98.5159 525.848 97.7985C526.262 97.0812 526.017 96.1639 525.299 95.7498C524.582 95.3357 523.664 95.5815 523.25 96.2989C522.835 97.0163 523.081 97.9336 523.799 98.3477Z"
        fill="#B6BCBD" />
    <path d="M532.33 101.499L528 99L527.5 99.866L531.83 102.365L532.33 101.499Z" fill="#B6BCBD" />
    <path
        d="M520.799 104.348C521.516 104.762 522.434 104.516 522.848 103.799C523.262 103.081 523.017 102.164 522.299 101.75C521.582 101.336 520.664 101.582 520.25 102.299C519.835 103.016 520.081 103.934 520.799 104.348Z"
        fill="#B6BCBD" />
    <path d="M529.33 106.499L525 104L524.5 104.866L528.83 107.365L529.33 106.499Z" fill="#B6BCBD" />
    <path
        d="M535.866 67.2318C536.344 67.5078 536.956 67.3439 537.232 66.8657C537.508 66.3874 537.344 65.7759 536.866 65.4999C536.388 65.2238 535.776 65.3877 535.5 65.8659C535.224 66.3442 535.388 66.9557 535.866 67.2318Z"
        fill="#3E3E3F" />
    <path d="M497.995 91.906L549.912 77.9949L517 59L497.995 91.906Z" fill="#5B5C5F" />
    <path d="M521.197 78.9992L516 76L512.499 82.0616L517.696 85.0608L521.197 78.9992Z"
        fill="#FBE158" />
    <path d="M532.197 79.9992L527 77L521.499 86.5254L526.695 89.5247L532.197 79.9992Z"
        fill="#17B198" />
    <path d="M544.197 81.9992L539 79L530.998 92.8552L536.195 95.8544L544.197 81.9992Z"
        fill="#059BBF" />
    <path
        d="M506.926 101.854C510.752 104.063 515.646 102.751 517.856 98.9255C520.065 95.0995 518.755 90.2075 514.928 87.9989C511.101 85.7904 506.208 87.1016 503.998 90.9276C501.788 94.7536 503.099 99.6456 506.926 101.854Z"
        fill="#FACB1B" />
    <path
        d="M517.435 98.1909C515.255 101.966 510.473 103.283 506.749 101.133C503.918 99.4996 502.517 96.3372 502.964 93.2551L518.451 95.1868C518.323 96.2126 517.988 97.2343 517.435 98.1909Z"
        fill="#4AC3AF" />
    <path
        d="M517.332 98.7624C515.904 101.234 513.383 102.677 510.748 102.824L510.45 94.682L518.372 95.6783C518.242 96.7329 517.899 97.7808 517.332 98.7624Z"
        fill="#21B2D1" />
    <path
        d="M518.611 95.7424L510.998 94.9276L514.999 88C517.717 89.5689 519.04 92.6667 518.611 95.7424Z"
        fill="#FA5655" />
    <path d="M550 121L562 143" stroke="#201F1F" stroke-linecap="round" stroke-dasharray="8 8" />
    <path d="M599 312V356" stroke="#201F1F" stroke-linecap="round" stroke-dasharray="8 8" />
    <path d="M475 256L503 244" stroke="#201F1F" stroke-linecap="round" stroke-dasharray="8 8" />
    <circle cx="213" cy="563" r="70.5" stroke="#201F1F" stroke-linecap="round"
        stroke-linejoin="round" stroke-dasharray="8 8" />
    <path
        d="M370.9 612H395.203C395.642 611.998 395.998 611.645 396 611.208V584.973C396 582.787 394.202 581 392.002 581H359.998C357.798 581 356 582.787 356 584.973V592.525L370.9 612Z"
        fill="#3A4D5C" />
    <path
        d="M373.536 608H388.856C390.583 608 392 606.609 392 604.908V587.098C392 585.397 390.583 584 388.856 584H362.138C360.412 584 359 585.397 359 587.098V592.133L373.536 608Z"
        fill="#A7E3FA" />
    <path
        d="M351.783 591C351.679 591 351.577 591.022 351.482 591.064C351.387 591.105 351.301 591.166 351.228 591.242C351.155 591.318 351.098 591.409 351.059 591.508C351.02 591.607 351 591.714 351 591.821C351 592.038 351.083 592.245 351.23 592.398C351.376 592.551 351.575 592.637 351.783 592.638H352.571V598.364H351.783C351.679 598.364 351.577 598.386 351.482 598.427C351.387 598.469 351.301 598.529 351.228 598.606C351.155 598.682 351.098 598.772 351.059 598.872C351.02 598.971 351 599.078 351 599.185C351.001 599.401 351.084 599.608 351.23 599.76C351.377 599.913 351.575 599.999 351.783 600H353.354H363.927H368.685H369.073C371.233 600 373 598.16 373 595.911V595.096C373 592.846 371.233 591 369.073 591H353.354H351.783Z"
        fill="#DC1C4B" />
    <path
        d="M353 593H369.628C370.949 593 372 594.145 372 595.576V596.43C372 597.86 370.949 599 369.628 599C364.085 599 358.543 599 353 599V593Z"
        fill="#FAFCBD" />
    <path
        d="M353 596V599C358.543 599 364.085 599 369.628 599C370.949 599 372 597.833 372 596.367V596H353Z"
        fill="#E8CF76" />
    <path
        d="M353 595V597H356.892C356.994 597.001 357.095 596.975 357.19 596.925C357.284 596.874 357.37 596.8 357.442 596.707C357.514 596.614 357.572 596.503 357.61 596.381C357.649 596.259 357.669 596.128 357.669 595.996C357.668 595.865 357.648 595.735 357.609 595.614C357.569 595.493 357.512 595.383 357.44 595.29C357.368 595.198 357.282 595.124 357.188 595.075C357.094 595.025 356.993 594.999 356.892 595H353ZM359.943 595C359.841 594.999 359.74 595.025 359.646 595.075C359.552 595.124 359.467 595.198 359.394 595.29C359.322 595.383 359.265 595.493 359.226 595.614C359.186 595.735 359.166 595.865 359.166 595.996C359.165 596.128 359.185 596.259 359.224 596.381C359.263 596.503 359.32 596.614 359.392 596.707C359.465 596.8 359.55 596.874 359.645 596.925C359.739 596.975 359.841 597.001 359.943 597H364.223C364.325 597.001 364.426 596.975 364.521 596.925C364.615 596.874 364.701 596.8 364.773 596.707C364.846 596.614 364.903 596.503 364.942 596.381C364.981 596.259 365 596.128 365 595.996C365 595.865 364.979 595.735 364.94 595.614C364.901 595.493 364.843 595.383 364.771 595.29C364.699 595.198 364.613 595.124 364.519 595.075C364.425 595.025 364.325 594.999 364.223 595H359.943Z"
        fill="#CCA359" />
    <path
        d="M356.331 598C355.052 598 354 599.088 354 600.404V601.602C354 602.918 355.052 604 356.331 604H372.669C373.948 604 375 602.918 375 601.602V600.404C375 599.088 373.948 598 372.669 598H356.331Z"
        fill="#50B86B" />
    <path
        d="M352.789 603C352.355 602.998 352.002 603.363 352 603.815C352.001 604.267 352.354 604.633 352.789 604.632H353.571V610.362H352.789C352.354 610.36 352.001 610.726 352 611.179C351.998 611.633 352.352 612.002 352.789 612C358.55 612 364.312 612 370.073 612C372.233 612 374 610.154 374 607.904V607.089C374 604.84 372.233 603 370.073 603C364.312 603 358.55 603 352.789 603Z"
        fill="#FCA311" />
    <path
        d="M359.463 581C357.973 581 356.671 581.841 356 583.076C356.561 582.767 357.202 582.59 357.883 582.59H389.475C391.646 582.59 393.421 584.377 393.421 586.563V612H394.213C394.422 611.999 394.621 611.916 394.769 611.767C394.916 611.619 394.999 611.418 395 611.208V584.973C395 582.787 393.226 581 391.054 581H359.463Z"
        fill="#143441" />
    <path
        d="M381.463 592.217L378.224 595.46C377.925 595.758 377.925 596.243 378.224 596.541C378.523 596.841 379.008 596.841 379.306 596.541L382.539 593.3C382.839 593.001 382.839 592.516 382.539 592.217C382.113 591.889 381.764 591.969 381.463 592.217ZM384.703 593.3L379.306 598.701C379.01 598.999 379.01 599.48 379.306 599.778C379.604 600.074 380.085 600.074 380.382 599.778L385.778 594.377C386.074 594.079 386.074 593.598 385.778 593.3C385.35 592.97 384.976 593.048 384.703 593.3Z"
        fill="#87D1EE" />
    <path
        d="M353.369 610C352.069 610 351 611.087 351 612.403V613.2C351 615.841 353.134 618 355.743 618H395.257C397.866 618 400 615.841 400 613.2V612.403C400 611.087 398.926 610 397.626 610H353.369Z"
        fill="#3A4D5C" />
    <path
        d="M368 610V612.503C368 613.874 369.057 615 370.336 615H379.664C380.943 615 382 613.874 382 612.503V610C377.333 610 372.667 610 368 610Z"
        fill="#87D1EE" />
    <path
        d="M366.004 613C365.872 612.999 365.741 613.025 365.619 613.075C365.497 613.126 365.386 613.2 365.293 613.293C365.2 613.386 365.126 613.497 365.075 613.619C365.025 613.741 364.999 613.872 365 614.004C365 614.135 365.027 614.265 365.077 614.386C365.128 614.507 365.202 614.617 365.295 614.71C365.389 614.802 365.499 614.875 365.621 614.925C365.742 614.975 365.872 615.001 366.004 615C366.268 614.999 366.521 614.894 366.707 614.707C366.894 614.52 366.999 614.268 367 614.004C367.001 613.872 366.975 613.742 366.925 613.621C366.876 613.499 366.802 613.389 366.71 613.295C366.617 613.202 366.507 613.128 366.386 613.077C366.265 613.027 366.135 613 366.004 613Z"
        fill="#87D1EE" />
    <path
        d="M385.004 613C384.872 612.999 384.741 613.025 384.619 613.075C384.497 613.126 384.386 613.2 384.293 613.293C384.2 613.386 384.126 613.497 384.075 613.619C384.025 613.741 383.999 613.872 384 614.004C384 614.135 384.027 614.265 384.077 614.386C384.128 614.507 384.202 614.617 384.295 614.71C384.389 614.802 384.499 614.875 384.621 614.925C384.742 614.975 384.872 615.001 385.004 615C385.268 614.999 385.521 614.894 385.707 614.707C385.894 614.52 385.999 614.268 386 614.004C386.001 613.872 385.975 613.742 385.925 613.621C385.876 613.499 385.802 613.389 385.71 613.295C385.617 613.202 385.507 613.128 385.386 613.077C385.265 613.027 385.135 613 385.004 613Z"
        fill="#87D1EE" />
    <path
        d="M354 604H370.627C371.948 604 373 605.144 373 606.573V607.427C373 608.856 371.948 610 370.627 610H354V604Z"
        fill="#FAFCBD" />
    <path d="M354 607V610H370.627C371.948 610 373 608.978 373 607.701V607H354Z" fill="#E8CF76" />
    <path
        d="M354 606V608H357.898C358.102 607.999 358.298 607.894 358.442 607.707C358.586 607.521 358.668 607.268 358.669 607.004C358.669 606.873 358.65 606.742 358.611 606.621C358.572 606.499 358.516 606.389 358.444 606.296C358.373 606.202 358.287 606.128 358.194 606.078C358.1 606.027 357.999 606.001 357.898 606H354ZM360.944 606C360.842 606 360.742 606.026 360.648 606.077C360.554 606.128 360.468 606.202 360.397 606.295C360.325 606.388 360.268 606.499 360.23 606.621C360.191 606.742 360.171 606.872 360.172 607.004C360.172 607.268 360.254 607.521 360.399 607.708C360.544 607.894 360.74 607.999 360.944 608H365.223C365.325 608.001 365.425 607.975 365.519 607.925C365.613 607.876 365.699 607.802 365.771 607.71C365.843 607.617 365.901 607.507 365.94 607.386C365.979 607.265 366 607.135 366 607.004C366 606.872 365.981 606.741 365.942 606.619C365.903 606.497 365.846 606.386 365.773 606.293C365.701 606.2 365.615 606.126 365.521 606.075C365.426 606.025 365.325 605.999 365.223 606H360.944Z"
        fill="#CCA359" />
    <path
        d="M356.78 600H373.22C373.662 600 374 600.376 374 600.859V602.141C374 602.624 373.661 603 373.22 603H356.78C356.339 603 356 602.624 356 602.141V600.859C356 600.376 356.338 600 356.78 600Z"
        fill="#FAFCBD" />
    <path
        d="M363.748 595C363.55 595.001 363.36 595.08 363.22 595.22C363.08 595.36 363.001 595.549 363 595.748V603.25C363 603.398 363.044 603.543 363.126 603.666C363.209 603.79 363.326 603.886 363.463 603.943C363.599 603.999 363.75 604.014 363.896 603.986C364.041 603.957 364.175 603.886 364.28 603.782L366.003 602.06L367.72 603.782C367.825 603.886 367.959 603.957 368.104 603.986C368.25 604.014 368.401 603.999 368.537 603.943C368.674 603.886 368.791 603.79 368.874 603.666C368.956 603.543 369 603.398 369 603.25V595.748C368.999 595.549 368.92 595.36 368.78 595.22C368.64 595.08 368.45 595.001 368.252 595H363.748Z"
        fill="#3A4D5C" />
    <path
        d="M362.139 584C360.412 584 359.001 585.396 359 587.097H385.712C387.439 587.097 388.857 588.494 388.857 590.195V608C390.583 607.999 392 606.608 392 604.908V587.098C392 585.397 390.582 584 388.855 584H362.139Z"
        fill="#8ED1F7" />
    <path
        d="M353.269 610C352.206 610 351.298 610.694 351 611.635C365.913 611.401 381.05 611.535 396.037 611.535C397.34 611.535 398.416 612.578 398.416 613.84V614.605C398.416 615.48 398.16 616.301 397.718 617C399.084 616.189 400 614.728 400 613.07V612.305C400 611.043 398.924 610 397.621 610L353.269 610Z"
        fill="#143441" />
    <path
        d="M67.512 455C66.1316 455 65 456.134 65 457.516V488.484C65 489.866 66.1316 491 67.512 491H91.488C92.8684 491 94 489.866 94 488.484V465.73C94 464.752 93.5928 463.817 92.879 463.15L85.2606 456.031C84.5532 455.37 83.6203 455 82.6526 455H67.512Z"
        fill="#ECECEC" />
    <path
        d="M72.9474 473C71.3304 473 70 474.331 70 475.949V485.056C70 486.674 71.3337 488 72.9474 488H92.9057C93.0699 483.07 92.9697 477.982 92.9697 473H72.9474Z"
        fill="#027DE5" fill-opacity="0.74" />
    <path
        d="M67.2991 455C66.282 455 65.4016 455.593 65 456.441C65.3207 456.297 65.6752 456.215 66.0495 456.215H81.3122C82.2877 456.215 83.2276 456.577 83.9408 457.224L91.6203 464.19C92.3399 464.843 92.7504 465.757 92.7504 466.714V488.979C92.7504 489.343 92.6651 489.688 92.5173 490C93.3887 489.609 94 488.753 94 487.764V465.499C94 464.542 93.5896 463.628 92.87 462.975L85.1904 456.009C84.4772 455.362 83.5373 455 82.5618 455H67.2991Z"
        fill="#027DE5" fill-opacity="0.74" />
    <path
        d="M97.9934 472.607C97.9934 470.165 95.1653 469 93.0037 469V470.197C94.6481 470.228 96.7711 470.953 96.7711 472.652C96.7711 473.85 94.7512 474.42 93.3785 474.42H72.8359C71.8305 474.42 71 475.235 71 476.221V485.205C71 486.191 71.8305 487 72.8359 487H93.3785C94.8562 487 96.0308 486.6 96.8343 485.948C97.6379 485.296 98.0585 484.382 97.9934 483.472V472.607Z"
        fill="#4895EF" />
    <path
        d="M83 455V463.123C83 464.153 83.8768 465 84.9435 465H94C93.8586 464.265 93.4779 463.586 92.9038 463.068L85.0286 455.972C84.4619 455.461 83.7548 455.126 83 455Z"
        fill="#027DE5" fill-opacity="0.74" />
    <path
        d="M69.5893 461C69.4331 461 69.2834 461.06 69.173 461.167C69.0625 461.274 69.0003 461.419 69 461.57C68.9997 461.646 69.0147 461.72 69.0442 461.79C69.0736 461.859 69.117 461.922 69.1717 461.976C69.2265 462.029 69.2915 462.071 69.3632 462.1C69.4348 462.129 69.5117 462.144 69.5893 462.144H71.934C72.0119 462.145 72.0891 462.13 72.1612 462.101C72.2332 462.072 72.2987 462.03 72.3538 461.977C72.4089 461.924 72.4526 461.86 72.4823 461.79C72.5119 461.721 72.5271 461.646 72.5268 461.57C72.5266 461.495 72.5112 461.421 72.4813 461.352C72.4514 461.282 72.4077 461.219 72.3526 461.166C72.2975 461.113 72.2322 461.071 72.1604 461.043C72.0886 461.014 72.0116 461 71.934 461H69.5893ZM74.3397 461C74.1837 461.001 74.0343 461.061 73.9241 461.168C73.8139 461.275 73.7519 461.419 73.7516 461.57C73.7513 461.646 73.7662 461.72 73.7956 461.789C73.825 461.859 73.8683 461.922 73.9229 461.975C73.9775 462.029 74.0424 462.071 74.1139 462.1C74.1855 462.129 74.2622 462.144 74.3397 462.144H80.4118C80.4894 462.144 80.5661 462.129 80.6376 462.1C80.7091 462.071 80.7741 462.029 80.8287 461.975C80.8833 461.922 80.9265 461.859 80.9559 461.789C80.9853 461.72 81.0003 461.646 81 461.57C80.9997 461.419 80.9377 461.275 80.8275 461.168C80.7173 461.061 80.5678 461.001 80.4118 461H74.3397ZM69.7543 463.857C69.6767 463.857 69.6 463.872 69.5285 463.901C69.4569 463.93 69.392 463.973 69.3374 464.026C69.2828 464.079 69.2395 464.142 69.2101 464.212C69.1807 464.281 69.1658 464.356 69.1661 464.431C69.1667 464.581 69.2288 464.726 69.339 464.833C69.4492 464.939 69.5985 464.999 69.7543 465H80.4118C80.5676 464.999 80.7169 464.939 80.8271 464.833C80.9372 464.726 80.9994 464.581 81 464.431C81.0003 464.356 80.9853 464.281 80.9559 464.212C80.9265 464.142 80.8833 464.079 80.8287 464.026C80.7741 463.973 80.7091 463.93 80.6376 463.901C80.5661 463.872 80.4894 463.857 80.4118 463.857H69.7543Z"
        fill="#3A4D5C" />
    <path
        d="M80.4107 471C80.5669 471 80.7166 470.94 80.827 470.833C80.9375 470.726 80.9997 470.581 81 470.43C81.0003 470.354 80.9853 470.28 80.9558 470.21C80.9264 470.141 80.883 470.078 80.8283 470.024C80.7735 469.971 80.7085 469.929 80.6368 469.9C80.5652 469.871 80.4883 469.856 80.4107 469.856H78.066C77.9881 469.855 77.9109 469.87 77.8388 469.899C77.7668 469.928 77.7013 469.97 77.6462 470.023C77.5911 470.076 77.5474 470.14 77.5177 470.21C77.4881 470.279 77.4729 470.354 77.4732 470.43C77.4734 470.505 77.4888 470.579 77.5187 470.648C77.5486 470.718 77.5923 470.781 77.6474 470.834C77.7025 470.887 77.7678 470.929 77.8396 470.957C77.9114 470.986 77.9884 471 78.066 471H80.4107ZM75.6603 471C75.8163 470.999 75.9657 470.939 76.0759 470.832C76.1861 470.725 76.2481 470.581 76.2484 470.43C76.2487 470.354 76.2338 470.28 76.2044 470.211C76.175 470.141 76.1317 470.078 76.0771 470.025C76.0225 469.971 75.9576 469.929 75.8861 469.9C75.8145 469.871 75.7378 469.856 75.6603 469.856H69.5882C69.5106 469.856 69.4339 469.871 69.3624 469.9C69.2909 469.929 69.2259 469.971 69.1713 470.025C69.1167 470.078 69.0735 470.141 69.0441 470.211C69.0147 470.28 68.9997 470.354 69 470.43C69.0003 470.581 69.0623 470.725 69.1725 470.832C69.2827 470.939 69.4322 470.999 69.5882 471H75.6603ZM80.2457 468.143C80.3233 468.143 80.4 468.128 80.4715 468.099C80.5431 468.07 80.608 468.027 80.6626 467.974C80.7172 467.921 80.7605 467.858 80.7899 467.788C80.8193 467.719 80.8342 467.644 80.8339 467.569C80.8333 467.419 80.7712 467.274 80.661 467.167C80.5508 467.061 80.4015 467.001 80.2457 467H69.5882C69.4324 467.001 69.2831 467.061 69.1729 467.167C69.0628 467.274 69.0006 467.419 69 467.569C68.9997 467.644 69.0147 467.719 69.0441 467.788C69.0735 467.858 69.1167 467.921 69.1713 467.974C69.2259 468.027 69.2909 468.07 69.3624 468.099C69.4339 468.128 69.5106 468.143 69.5882 468.143H80.2457Z"
        fill="#3A4D5C" />
    <path
        d="M76.9348 482.911C77.0768 482.911 77.1986 482.96 77.3 483.058C77.4014 483.156 77.4522 483.274 77.4522 483.414C77.4522 483.553 77.4014 483.672 77.3 483.77C77.1986 483.867 77.0768 483.916 76.9348 483.916H73.5435C73.3928 483.916 73.2638 483.866 73.1565 483.766C73.0522 483.662 73 483.538 73 483.393V478.607C73 478.462 73.0522 478.339 73.1565 478.239C73.2638 478.135 73.3928 478.084 73.5435 478.084H76.9348C77.0768 478.084 77.1986 478.133 77.3 478.23C77.4014 478.328 77.4522 478.447 77.4522 478.586C77.4522 478.726 77.4014 478.844 77.3 478.942C77.1986 479.04 77.0768 479.089 76.9348 479.089H74.087V480.671H76.4C76.542 480.671 76.6638 480.72 76.7652 480.818C76.8667 480.916 76.9174 481.034 76.9174 481.174C76.9174 481.311 76.8667 481.428 76.7652 481.525C76.6638 481.623 76.542 481.672 76.4 481.672H74.087V482.911H76.9348Z"
        fill="#FEFEFE" />
    <path
        d="M83.287 478.243C83.3942 478.14 83.5232 478.088 83.6739 478.088C83.8246 478.088 83.9522 478.14 84.0565 478.243C84.1638 478.343 84.2174 478.466 84.2174 478.611V483.393C84.2174 483.538 84.1638 483.662 84.0565 483.766C83.9522 483.866 83.8246 483.916 83.6739 483.916C83.5696 483.916 83.4725 483.89 83.3826 483.837C83.2957 483.784 83.2304 483.714 83.187 483.627L79.7826 479.918V483.393C79.7826 483.538 79.729 483.662 79.6217 483.766C79.5174 483.866 79.3899 483.916 79.2391 483.916C79.0884 483.916 78.9594 483.866 78.8522 483.766C78.7478 483.662 78.6957 483.538 78.6957 483.393V478.607C78.6957 478.462 78.7478 478.339 78.8522 478.239C78.9594 478.135 79.0884 478.084 79.2391 478.084C79.3667 478.084 79.4812 478.123 79.5826 478.201V478.197L79.6043 478.222C79.6391 478.25 79.6652 478.278 79.6826 478.306L83.1304 482.053V478.611C83.1304 478.466 83.1826 478.343 83.287 478.243Z"
        fill="#FEFEFE" />
    <path
        d="M90.4565 480.776C90.6072 480.776 90.7348 480.828 90.8391 480.931C90.9464 481.031 91 481.154 91 481.299V482.392C91 482.666 90.9159 482.888 90.7478 483.058C90.4493 483.357 90.1 483.588 89.7 483.753C89.3 483.918 88.8812 484 88.4435 484C88.0261 484 87.6275 483.922 87.2478 483.766C86.871 483.606 86.5449 483.393 86.2696 483.125C85.9971 482.857 85.7797 482.539 85.6174 482.17C85.4551 481.799 85.3739 481.41 85.3739 481.002C85.3739 480.595 85.4551 480.207 85.6174 479.838C85.7797 479.467 85.9971 479.147 86.2696 478.879C86.5449 478.611 86.871 478.398 87.2478 478.239C87.6275 478.08 88.0261 478 88.4435 478C88.8696 478 89.2739 478.078 89.6565 478.234C90.0391 478.391 90.3754 478.613 90.6652 478.9C90.7667 478.998 90.8174 479.119 90.8174 479.264C90.8174 479.407 90.7652 479.528 90.6609 479.629C90.5594 479.726 90.4348 479.775 90.287 479.775C90.1304 479.775 90.0014 479.722 89.9 479.616C89.4971 479.206 89.0116 479.001 88.4435 479.001C87.8957 479.001 87.4275 479.196 87.0391 479.587C86.6536 479.978 86.4609 480.449 86.4609 481.002C86.4609 481.555 86.6536 482.027 87.0391 482.417C87.4275 482.805 87.8957 482.999 88.4435 482.999C88.7246 482.999 88.9913 482.948 89.2435 482.844C89.4986 482.741 89.7217 482.597 89.913 482.413V481.781H88.7696C88.6246 481.781 88.5014 481.732 88.4 481.634C88.2986 481.537 88.2478 481.418 88.2478 481.278C88.2478 481.139 88.2986 481.02 88.4 480.923C88.5014 480.825 88.6246 480.776 88.7696 480.776H90.4565Z"
        fill="#FEFEFE" />
    <path
        d="M5.33875 484C4.05358 484 3 485.071 3 486.377V515.623C3 516.929 4.05358 518 5.33875 518H27.6612C28.9464 518 30 516.929 30 515.623V494.134C30 493.21 29.6209 492.327 28.9563 491.697L21.8634 484.974C21.2047 484.349 20.3362 484 19.4352 484H5.33875Z"
        fill="#ECECEC" />
    <path
        d="M11.8192 501C10.2726 501 9 502.242 9 503.752V512.252C9 513.762 10.2758 515 11.8192 515H30.9098C31.0669 510.398 30.971 505.65 30.971 501H11.8192Z"
        fill="#027DE5" fill-opacity="0.74" />
    <path
        d="M6.14055 484C5.19359 484 4.37387 484.576 4 485.4C4.2986 485.26 4.62859 485.181 4.97711 485.181H19.1872C20.0955 485.181 20.9705 485.532 21.6345 486.16L28.7845 492.927C29.4544 493.562 29.8366 494.45 29.8366 495.379V517.009C29.8366 517.362 29.7571 517.697 29.6196 518C30.4309 517.621 31 516.789 31 515.828V494.199C31 493.269 30.6179 492.381 29.9479 491.747L22.798 484.98C22.134 484.351 21.2589 484 20.3507 484H6.14055Z"
        fill="#027DE5" fill-opacity="0.74" />
    <path
        d="M35.9937 500.607C35.9937 498.165 33.2703 497 31.1888 497V498.197C32.7723 498.228 34.8166 498.953 34.8166 500.652C34.8166 501.85 32.8716 502.42 31.5497 502.42H11.7679C10.7998 502.42 10 503.235 10 504.221V513.205C10 514.191 10.7998 515 11.7679 515H31.5497C32.9726 515 34.1038 514.6 34.8775 513.948C35.6513 513.296 36.0563 512.382 35.9937 511.472V500.607Z"
        fill="#4895EF" />
    <path
        d="M21 484V491.31C21 492.238 21.7971 493 22.7668 493H31C30.8715 492.338 30.5254 491.727 30.0034 491.261L22.8441 484.875C22.329 484.415 21.6862 484.113 21 484Z"
        fill="#027DE5" fill-opacity="0.74" />
    <path
        d="M8.58934 489C8.43313 489 8.28341 489.06 8.17295 489.167C8.0625 489.274 8.00031 489.419 8 489.57C7.9997 489.646 8.01471 489.72 8.04418 489.79C8.07364 489.859 8.11699 489.922 8.17173 489.976C8.22647 490.029 8.29153 490.071 8.36319 490.1C8.43485 490.129 8.51169 490.144 8.58934 490.144H10.934C11.0119 490.145 11.0891 490.13 11.1612 490.101C11.2332 490.072 11.2987 490.03 11.3538 489.977C11.4089 489.924 11.4526 489.86 11.4823 489.79C11.5119 489.721 11.5271 489.646 11.5268 489.57C11.5266 489.495 11.5112 489.421 11.4813 489.352C11.4514 489.282 11.4077 489.219 11.3526 489.166C11.2975 489.113 11.2322 489.071 11.1604 489.043C11.0886 489.014 11.0116 489 10.934 489H8.58934ZM13.3397 489C13.1837 489.001 13.0343 489.061 12.9241 489.168C12.8139 489.275 12.7519 489.419 12.7516 489.57C12.7513 489.646 12.7662 489.72 12.7956 489.789C12.825 489.859 12.8683 489.922 12.9229 489.975C12.9775 490.029 13.0424 490.071 13.1139 490.1C13.1855 490.129 13.2622 490.144 13.3397 490.144H19.4118C19.4894 490.144 19.5661 490.129 19.6376 490.1C19.7091 490.071 19.7741 490.029 19.8287 489.975C19.8833 489.922 19.9265 489.859 19.9559 489.789C19.9853 489.72 20.0003 489.646 20 489.57C19.9997 489.419 19.9377 489.275 19.8275 489.168C19.7173 489.061 19.5678 489.001 19.4118 489H13.3397ZM8.75426 491.857C8.67672 491.857 8.59999 491.872 8.52846 491.901C8.45694 491.93 8.39201 491.973 8.3374 492.026C8.28278 492.079 8.23954 492.142 8.21014 492.212C8.18075 492.281 8.16577 492.356 8.16608 492.431C8.16669 492.581 8.22885 492.726 8.33902 492.833C8.4492 492.939 8.59845 492.999 8.75426 493H19.4118C19.5676 492.999 19.7169 492.939 19.8271 492.833C19.9372 492.726 19.9994 492.581 20 492.431C20.0003 492.356 19.9853 492.281 19.9559 492.212C19.9265 492.142 19.8833 492.079 19.8287 492.026C19.7741 491.973 19.7091 491.93 19.6376 491.901C19.5661 491.872 19.4894 491.857 19.4118 491.857H8.75426Z"
        fill="#3A4D5C" />
    <path
        d="M18.4107 499C18.5669 499 18.7166 498.94 18.827 498.833C18.9375 498.726 18.9997 498.581 19 498.43C19.0003 498.354 18.9853 498.28 18.9558 498.21C18.9264 498.141 18.883 498.078 18.8283 498.024C18.7735 497.971 18.7085 497.929 18.6368 497.9C18.5652 497.871 18.4883 497.856 18.4107 497.856H16.066C15.9881 497.855 15.9109 497.87 15.8388 497.899C15.7668 497.928 15.7013 497.97 15.6462 498.023C15.5911 498.076 15.5474 498.14 15.5177 498.21C15.4881 498.279 15.4729 498.354 15.4732 498.43C15.4734 498.505 15.4888 498.579 15.5187 498.648C15.5486 498.718 15.5923 498.781 15.6474 498.834C15.7025 498.887 15.7678 498.929 15.8396 498.957C15.9114 498.986 15.9884 499 16.066 499H18.4107ZM13.6603 499C13.8163 498.999 13.9657 498.939 14.0759 498.832C14.1861 498.725 14.2481 498.581 14.2484 498.43C14.2487 498.354 14.2338 498.28 14.2044 498.211C14.175 498.141 14.1317 498.078 14.0771 498.025C14.0225 497.971 13.9576 497.929 13.8861 497.9C13.8145 497.871 13.7378 497.856 13.6603 497.856H7.58818C7.51064 497.856 7.43392 497.871 7.36239 497.9C7.29086 497.929 7.22594 497.971 7.17132 498.025C7.1167 498.078 7.07346 498.141 7.04407 498.211C7.01467 498.28 6.9997 498.354 7 498.43C7.00031 498.581 7.06234 498.725 7.17254 498.832C7.28275 498.939 7.43218 498.999 7.58818 499H13.6603ZM18.2457 496.143C18.3233 496.143 18.4 496.128 18.4715 496.099C18.5431 496.07 18.608 496.027 18.6626 495.974C18.7172 495.921 18.7605 495.858 18.7899 495.788C18.8193 495.719 18.8342 495.644 18.8339 495.569C18.8333 495.419 18.7712 495.274 18.661 495.167C18.5508 495.061 18.4015 495.001 18.2457 495H7.58818C7.43238 495.001 7.28312 495.061 7.17295 495.167C7.06278 495.274 7.00061 495.419 7 495.569C6.9997 495.644 7.01467 495.719 7.04407 495.788C7.07346 495.858 7.1167 495.921 7.17132 495.974C7.22594 496.027 7.29086 496.07 7.36239 496.099C7.43392 496.128 7.51064 496.143 7.58818 496.143H18.2457Z"
        fill="#3A4D5C" />
    <path
        d="M17.2931 511.635C16.8544 511.878 16.3764 512 15.8592 512C15.342 512 14.864 511.878 14.4252 511.635C13.9865 511.389 13.6392 511.056 13.3835 510.637C13.1278 510.215 13 509.757 13 509.261V506.531C13 506.384 13.0523 506.259 13.1569 506.157C13.2644 506.052 13.3937 506 13.5448 506C13.6959 506 13.8238 506.052 13.9284 506.157C14.0359 506.259 14.0896 506.384 14.0896 506.531V509.261C14.0896 509.737 14.2625 510.143 14.6083 510.48C14.9541 510.817 15.371 510.985 15.8592 510.985C16.3473 510.985 16.7628 510.817 17.1057 510.48C17.4515 510.143 17.6244 509.737 17.6244 509.261V506.531C17.6244 506.384 17.6767 506.259 17.7813 506.157C17.8888 506.052 18.0181 506 18.1692 506C18.3203 506 18.4481 506.052 18.5527 506.157C18.6602 506.259 18.714 506.384 18.714 506.531V509.261C18.714 509.757 18.5861 510.215 18.3304 510.637C18.0776 511.056 17.7319 511.389 17.2931 511.635Z"
        fill="#FEFEFE" />
    <path
        d="M24.8638 511.023C24.9626 511.134 25.0077 511.263 24.9989 511.41C24.9902 511.554 24.9292 511.676 24.8159 511.775C24.7026 511.871 24.5718 511.915 24.4236 511.907C24.2754 511.898 24.1505 511.839 24.0488 511.728L21.9393 509.406L21.0545 510.221V511.384C21.0545 511.531 21.0007 511.657 20.8932 511.762C20.7886 511.864 20.6608 511.915 20.5097 511.915C20.3586 511.915 20.2293 511.864 20.1218 511.762C20.0172 511.657 19.9649 511.531 19.9649 511.384V506.531C19.9649 506.384 20.0172 506.259 20.1218 506.157C20.2293 506.052 20.3586 506 20.5097 506C20.6608 506 20.7886 506.052 20.8932 506.157C21.0007 506.259 21.0545 506.384 21.0545 506.531V508.76L23.8832 506.149C23.9936 506.047 24.1229 505.999 24.2711 506.004C24.4222 506.007 24.5486 506.062 24.6503 506.17C24.752 506.275 24.8014 506.401 24.7984 506.548C24.7955 506.695 24.7403 506.818 24.6328 506.917L22.7282 508.675L24.8638 511.023Z"
        fill="#FEFEFE" />
    <g clip-path="url(#clip2_745_1322)">
        <path
            d="M47.5791 479.808L47.037 477.312C44.4288 477.966 42.8008 480.626 43.3922 483.349C43.9835 486.071 46.568 487.815 49.2131 487.331L49.2165 487.346C45.1687 488.227 41.1532 485.565 40.2487 481.4C39.3441 477.236 41.8933 473.148 45.9417 472.269L45.3959 469.757L53.8152 473.191L47.5791 479.808Z"
            fill="#86C8EC" />
    </g>
    <g clip-path="url(#clip3_745_1322)">
        <path
            d="M51.0307 489.932L52.3076 492.143C54.5925 490.725 55.3323 487.696 53.9392 485.283C52.5462 482.87 49.5533 481.997 47.1817 483.265L47.1736 483.251C50.7605 481.178 55.3963 482.49 57.5271 486.181C59.6578 489.871 58.4759 494.542 54.8878 496.612L56.1736 498.839L47.1081 498.135L51.0307 489.932Z"
            fill="#86C8EC" />
    </g>
    <path d="M92 505L125.033 549.371" stroke="#201F1F" stroke-linecap="round" stroke-dasharray="8 8" />
    <path d="M287 601H339" stroke="#201F1F" stroke-linecap="round" stroke-dasharray="8 8" />
    <g clip-path="url(#clip4_745_1322)">
        <path
            d="M491.625 514H458.375C457.063 514 456 515.063 456 516.375V549.625C456 550.937 457.063 552 458.375 552H491.625C492.937 552 494 550.937 494 549.625V516.375C494 515.063 492.937 514 491.625 514Z"
            fill="#7C79AB" />
        <path
            d="M489.821 521H459.179C458.528 521 458 521.537 458 522.2V543.8C458 544.463 458.528 545 459.179 545H489.821C490.472 545 491 544.463 491 543.8V522.2C491 521.537 490.472 521 489.821 521Z"
            fill="#C8C2E9" />
        <path
            d="M471 529.171V536.829C470.998 537.034 471.049 537.235 471.148 537.413C471.246 537.591 471.389 537.739 471.561 537.842C471.734 537.945 471.929 538 472.129 538C472.328 538 472.524 537.947 472.697 537.845L479.416 534.015C479.593 533.915 479.741 533.768 479.843 533.589C479.946 533.411 480 533.207 480 533C480 532.793 479.946 532.589 479.843 532.411C479.741 532.232 479.593 532.085 479.416 531.985L472.697 528.155C472.524 528.053 472.328 528 472.129 528C471.929 528 471.734 528.055 471.561 528.158C471.389 528.261 471.246 528.409 471.148 528.587C471.049 528.765 470.998 528.966 471 529.171Z"
            fill="#FEFEFE" />
        <path
            d="M459.25 518H461.75C462.082 518 462.399 517.895 462.634 517.707C462.868 517.52 463 517.265 463 517C463 516.735 462.868 516.48 462.634 516.293C462.399 516.105 462.082 516 461.75 516H459.25C458.918 516 458.601 516.105 458.366 516.293C458.132 516.48 458 516.735 458 517C458 517.265 458.132 517.52 458.366 517.707C458.601 517.895 458.918 518 459.25 518Z"
            fill="#FEFEFE" />
        <path
            d="M466.25 518H468.75C469.082 518 469.399 517.895 469.634 517.707C469.868 517.52 470 517.265 470 517C470 516.735 469.868 516.48 469.634 516.293C469.399 516.105 469.082 516 468.75 516H466.25C465.918 516 465.601 516.105 465.366 516.293C465.132 516.48 465 516.735 465 517C465 517.265 465.132 517.52 465.366 517.707C465.601 517.895 465.918 518 466.25 518Z"
            fill="#FEFEFE" />
        <path
            d="M474.25 518H476.75C477.082 518 477.399 517.895 477.634 517.707C477.868 517.52 478 517.265 478 517C478 516.735 477.868 516.48 477.634 516.293C477.399 516.105 477.082 516 476.75 516H474.25C473.918 516 473.601 516.105 473.366 516.293C473.132 516.48 473 516.735 473 517C473 517.265 473.132 517.52 473.366 517.707C473.601 517.895 473.918 518 474.25 518Z"
            fill="#FEFEFE" />
        <path
            d="M481.25 518H483.75C484.082 518 484.399 517.895 484.634 517.707C484.868 517.52 485 517.265 485 517C485 516.735 484.868 516.48 484.634 516.293C484.399 516.105 484.082 516 483.75 516H481.25C480.918 516 480.601 516.105 480.366 516.293C480.132 516.48 480 516.735 480 517C480 517.265 480.132 517.52 480.366 517.707C480.601 517.895 480.918 518 481.25 518Z"
            fill="#FEFEFE" />
        <path
            d="M488.25 518H490.75C491.082 518 491.399 517.895 491.634 517.707C491.868 517.52 492 517.265 492 517C492 516.735 491.868 516.48 491.634 516.293C491.399 516.105 491.082 516 490.75 516H488.25C487.918 516 487.601 516.105 487.366 516.293C487.132 516.48 487 516.735 487 517C487 517.265 487.132 517.52 487.366 517.707C487.601 517.895 487.918 518 488.25 518Z"
            fill="#FEFEFE" />
        <path
            d="M461.75 547H459.25C458.918 547 458.601 547.105 458.366 547.293C458.132 547.48 458 547.735 458 548C458 548.265 458.132 548.52 458.366 548.707C458.601 548.895 458.918 549 459.25 549H461.75C462.082 549 462.399 548.895 462.634 548.707C462.868 548.52 463 548.265 463 548C463 547.735 462.868 547.48 462.634 547.293C462.399 547.105 462.082 547 461.75 547Z"
            fill="#FEFEFE" />
        <path
            d="M468.75 547H466.25C465.918 547 465.601 547.105 465.366 547.293C465.132 547.48 465 547.735 465 548C465 548.265 465.132 548.52 465.366 548.707C465.601 548.895 465.918 549 466.25 549H468.75C469.082 549 469.399 548.895 469.634 548.707C469.868 548.52 470 548.265 470 548C470 547.735 469.868 547.48 469.634 547.293C469.399 547.105 469.082 547 468.75 547Z"
            fill="#FEFEFE" />
        <path
            d="M476.75 547H474.25C473.918 547 473.601 547.105 473.366 547.293C473.132 547.48 473 547.735 473 548C473 548.265 473.132 548.52 473.366 548.707C473.601 548.895 473.918 549 474.25 549H476.75C477.082 549 477.399 548.895 477.634 548.707C477.868 548.52 478 548.265 478 548C478 547.735 477.868 547.48 477.634 547.293C477.399 547.105 477.082 547 476.75 547Z"
            fill="#FEFEFE" />
        <path
            d="M483.75 547H481.25C480.918 547 480.601 547.105 480.366 547.293C480.132 547.48 480 547.735 480 548C480 548.265 480.132 548.52 480.366 548.707C480.601 548.895 480.918 549 481.25 549H483.75C484.082 549 484.399 548.895 484.634 548.707C484.868 548.52 485 548.265 485 548C485 547.735 484.868 547.48 484.634 547.293C484.399 547.105 484.082 547 483.75 547Z"
            fill="#FEFEFE" />
        <path
            d="M490.75 547H488.25C487.918 547 487.601 547.105 487.366 547.293C487.132 547.48 487 547.735 487 548C487 548.265 487.132 548.52 487.366 548.707C487.601 548.895 487.918 549 488.25 549H490.75C491.082 549 491.399 548.895 491.634 548.707C491.868 548.52 492 548.265 492 548C492 547.735 491.868 547.48 491.634 547.293C491.399 547.105 491.082 547 490.75 547Z"
            fill="#FEFEFE" />
    </g>
    <path d="M413 597L464 566" stroke="#201F1F" stroke-linecap="round" stroke-dasharray="8 8" />
    <path d="M257 458L243 492" stroke="#201F1F" stroke-linecap="round" stroke-dasharray="8 8" />
    <path
        d="M213 615C241.719 615 265 591.719 265 563C265 534.281 241.719 511 213 511C184.281 511 161 534.281 161 563C161 591.719 184.281 615 213 615Z"
        fill="#F4D18A" />
    <path d="M228 576L226 575H206L204 576L216 595L228 576Z" fill="#E2E4E5" />
    <path
        d="M231 553.001C230 553.001 230 554.112 230 554.112V553.001C229.998 551.936 229.981 550.914 229.933 549.938C225.891 546.001 216 546 216 546C216 546 206.109 546.001 202.067 549.938C202.019 550.914 202.002 551.936 202 553.001V560.998L206 570.999L211.105 574.996C211.674 575.635 212.489 576 213.345 576H216H218.655C219.511 576 220.326 575.635 220.895 574.996L226 570.999L229.207 562.982C232.042 562.778 233 558.477 233 555.223C233 554.112 232 553.001 231 553.001Z"
        fill="#F8E1C2" />
    <path
        d="M202 553.001V554.112C202 554.112 202 553.001 201 553.001C200 553.001 199 554.112 199 555.223C199 558.476 199.958 562.778 202.793 562.982L206 570.999L211.105 574.996C211.674 575.635 212.489 576 213.345 576H216V546C216 546 206.109 546.001 202.067 549.938C202.019 550.914 202.002 551.936 202 553.001Z"
        fill="#FCF1E2" />
    <path d="M211 565H221C221 565 221 568 216 568C211 568 211 565 211 565Z" fill="#F79392" />
    <path
        d="M222.147 555.377C223.282 555.377 224.29 555.621 224.989 556C225.056 555.477 224.825 554.939 224.276 554.538C223.294 553.821 221.7 553.821 220.718 554.538C220.275 554.862 220.042 555.275 220 555.697C220.612 555.495 221.351 555.377 222.147 555.377Z"
        fill="#3E3E3F" />
    <path
        d="M209.853 555.377C208.718 555.377 207.71 555.621 207.011 556C206.944 555.477 207.175 554.939 207.724 554.538C208.706 553.821 210.3 553.821 211.282 554.538C211.725 554.862 211.958 555.275 212 555.697C211.388 555.495 210.649 555.377 209.853 555.377Z"
        fill="#3E3E3F" />
    <path
        d="M218.655 576H216H213.345C212.489 576 211.674 575.635 211.105 574.996L206 571V575.5C206 575.5 206 583 216 583C226 583 226 575.5 226 575.5V571L220.895 574.996C220.326 575.635 219.511 576 218.655 576Z"
        fill="#F4D0A1" />
    <path
        d="M215.865 546C215.865 546 215.136 546 214 546.087C214 547.401 214 550.547 214 552C217.579 552 219.747 549.179 221 546.498C218.184 546.001 215.865 546 215.865 546Z"
        fill="#3E3E3F" />
    <path
        d="M207 547C205.072 547.596 203.248 548.455 202 549.696C202 553.274 204.361 555 204.361 555C204.062 552.013 204.046 550.067 207 547Z"
        fill="#3E3E3F" />
    <path
        d="M208 547.025C208 548.046 208 550.021 208 552C210.905 552 213.22 547.66 214 546C212.413 546.13 210.192 546.412 208 547.025Z"
        fill="#3E3E3F" />
    <path
        d="M227 548C227 548.385 227 552.486 227 555C229.811 555 229.99 550.369 230 549.784C229.185 549.066 228.149 548.481 227 548Z"
        fill="#3E3E3F" />
    <path
        d="M223 547C223 548.716 223 550.57 223 552C226.037 552 226.916 548.789 227 548.448C225.762 547.79 224.362 547.326 223 547Z"
        fill="#3E3E3F" />
    <path
        d="M211.105 574.996L206 571V575.5C206 575.5 206 583 216 583V576H213.345C212.489 576 211.674 575.635 211.105 574.996Z"
        fill="#F8E1C2" />
    <path
        d="M195.503 561.414V541.73C194.804 541.481 194.131 541.236 193.496 541V561.414C190.877 563.14 192.493 568.286 192.493 571C193.491 571 194.042 571 194.341 571C194.405 571 194.458 571 194.5 571C194.63 571 194.668 571 194.658 571C194.956 571 195.508 571 196.507 571C196.507 568.286 198.123 563.14 195.503 561.414Z"
        fill="#FA5655" />
    <path
        d="M243 539C243 538 218 531 216 531C214 531 189 538 189 539C189 539.625 196.432 542.207 202 544.053C202 545.777 202 547.821 202 550C206 546 216 546 216 546C216 546 226 546 230 550C230 547.82 230 545.777 230 544.053C235.568 542.207 243 539.625 243 539Z"
        fill="#3E3E3F" />
    <path d="M227.965 576.078L228 576.018L225.997 575L216 580.07L221.8 586L227.965 576.078Z"
        fill="#FEFEFE" />
    <path
        d="M220 595L217.201 584.815L219 583.02L215.981 580L212.983 582.994L214.801 584.808L212 595H220Z"
        fill="#DF2C2C" />
    <path d="M216 595V580.019L215.981 580L212.983 582.994L214.801 584.808L212 595H216Z"
        fill="#FA5655" />
    <path d="M204.035 576.078L204 576.018L206.003 575L216 580.07L210.2 586L204.035 576.078Z"
        fill="#FEFEFE" />
    <path d="M184 595L188 584C188.615 582.667 189.698 581.606 191.043 581.017L204 576L216 595H184Z"
        fill="#3E3E3F" />
    <path d="M248 595L244 584C243.385 582.667 242.302 581.606 240.957 581.017L228 576L216 595H248Z"
        fill="#3E3E3F" />
    <path d="M216 595L204 576L195 579L212 595H216Z" fill="#9E9FA0" />
    <path d="M216 595L228 576L237 579L220 595H216Z" fill="#9E9FA0" />
    <defs>
        <linearGradient id="paint0_linear_745_1322" x1="209.77" y1="312.327" x2="453.496"
            y2="312.327" gradientUnits="userSpaceOnUse">
            <stop stop-color="#3949D6" />
            <stop offset="1" stop-color="#86C8EC" />
        </linearGradient>
        <clipPath id="clip0_745_1322">
            <rect width="75" height="75" fill="white" transform="translate(266 61) rotate(-15)" />
        </clipPath>
        <clipPath id="clip1_745_1322">
            <rect width="48" height="48" fill="white" transform="translate(86 219)" />
        </clipPath>
        <clipPath id="clip2_745_1322">
            <rect width="22" height="22" fill="white" transform="translate(37 490) rotate(-102.255)" />
        </clipPath>
        <clipPath id="clip3_745_1322">
            <rect width="22" height="22" fill="white" transform="translate(58 477) rotate(60)" />
        </clipPath>
        <clipPath id="clip4_745_1322">
            <rect width="38" height="38" fill="white" transform="translate(456 514)" />
        </clipPath>
    </defs>
</svg>