<svg width="751" height="526" viewBox="0 0 751 526" fill="none" xmlns="http://www.w3.org/2000/svg">
    <path opacity="0.6"
        d="M306.462 435.54C259.5 419.494 220.114 393.427 192.165 362.699C153.259 319.922 156.623 252.256 172.471 205.874C188.319 159.492 216.452 110.741 276.531 88.6288C331.361 68.4487 373.563 76.4096 417.173 111.522C463.534 148.85 443.849 217.681 473.352 258.862C503.968 301.597 581.433 270.597 559.173 360.729C544.464 403.778 504.691 433.346 453.519 445.389C409.952 455.642 358.122 453.191 306.462 435.54Z"
        fill="#D1EDFC" fill-opacity="0.75" />
    <path opacity="0.6"
        d="M527.895 436.368C576.324 419.821 617.062 393.292 646.086 362.196C686.49 318.908 683.679 251.053 667.831 204.671C651.983 158.288 623.528 109.647 561.98 88.0374C505.808 68.3157 462.349 76.706 417.184 112.35C369.168 150.243 388.746 219.111 358.023 260.709C326.142 303.876 246.806 273.515 268.827 363.729C283.536 406.778 324.139 436.062 376.628 447.655C421.316 457.525 474.62 454.571 527.895 436.368Z"
        fill="#D1EDFC" fill-opacity="0.75" />
    <g filter="url(#filter0_dddddd_545_1035)">
        <path d="M242 226.19L308.949 176H528.394L598 226.19V395H242V226.19Z" fill="#86C8EC" />
        <path
            d="M242 226.19L308.949 176H528.394L598 226.19M242 226.19H598M242 226.19V395H598V226.19"
            stroke="#027DE5" stroke-linecap="round" stroke-linejoin="round" />
    </g>
    <rect x="275.5" y="268.5" width="289" height="81" rx="4.5" fill="#F5F8FF" />
    <path
        d="M350.667 309.812C350.667 313.832 349.918 317.193 348.421 319.895C346.924 322.58 344.751 324.606 341.902 325.974C339.054 327.325 335.62 328 331.6 328H321.688V292.307H332.674C336.368 292.307 339.559 292.974 342.244 294.309C344.93 295.627 347.005 297.588 348.47 300.192C349.935 302.78 350.667 305.987 350.667 309.812ZM344.563 309.982C344.563 307.053 344.1 304.644 343.172 302.756C342.26 300.868 340.91 299.468 339.119 298.557C337.345 297.629 335.156 297.165 332.552 297.165H327.547V323.093H331.697C336.01 323.093 339.233 321.994 341.365 319.797C343.497 317.6 344.563 314.328 344.563 309.982ZM390.047 310.104C390.047 312.855 389.697 315.362 388.997 317.624C388.313 319.87 387.28 321.807 385.896 323.435C384.513 325.046 382.78 326.291 380.696 327.17C378.613 328.049 376.172 328.488 373.372 328.488C370.524 328.488 368.05 328.049 365.95 327.17C363.867 326.291 362.133 325.038 360.75 323.41C359.383 321.783 358.357 319.838 357.674 317.575C356.99 315.313 356.648 312.806 356.648 310.056C356.648 306.377 357.251 303.171 358.455 300.437C359.676 297.686 361.523 295.554 363.997 294.04C366.487 292.51 369.629 291.745 373.421 291.745C377.132 291.745 380.216 292.502 382.674 294.016C385.132 295.529 386.971 297.661 388.191 300.412C389.428 303.146 390.047 306.377 390.047 310.104ZM362.801 310.104C362.801 312.855 363.175 315.24 363.924 317.258C364.673 319.26 365.82 320.806 367.366 321.896C368.929 322.971 370.931 323.508 373.372 323.508C375.83 323.508 377.832 322.971 379.378 321.896C380.924 320.806 382.063 319.26 382.796 317.258C383.528 315.24 383.895 312.855 383.895 310.104C383.895 305.922 383.056 302.65 381.38 300.29C379.72 297.914 377.067 296.726 373.421 296.726C370.979 296.726 368.969 297.263 367.391 298.337C365.828 299.411 364.673 300.949 363.924 302.951C363.175 304.937 362.801 307.321 362.801 310.104ZM427.498 328H420.296L402.815 299.509H402.596C402.661 300.469 402.718 301.486 402.767 302.561C402.832 303.635 402.881 304.742 402.913 305.881C402.962 307.02 403.003 308.176 403.035 309.348V328H397.713V292.307H404.866L422.322 320.603H422.493C422.461 319.772 422.42 318.82 422.371 317.746C422.322 316.672 422.273 315.565 422.225 314.426C422.192 313.27 422.168 312.155 422.151 311.081V292.307H427.498V328ZM458.992 328L455.501 318.088H441.854L438.362 328H432.186L445.467 292.16H451.961L465.218 328H458.992ZM453.987 313.059L450.594 303.293C450.464 302.87 450.276 302.276 450.032 301.511C449.788 300.729 449.544 299.94 449.3 299.143C449.056 298.329 448.852 297.645 448.689 297.092C448.527 297.759 448.323 298.508 448.079 299.338C447.851 300.152 447.623 300.917 447.396 301.633C447.184 302.349 447.021 302.902 446.907 303.293L443.489 313.059H453.987ZM482.308 328H476.424V297.287H465.975V292.307H492.732V297.287H482.308V328ZM518.416 328H498.201V292.307H518.416V297.238H504.061V306.931H517.513V311.838H504.061V323.044H518.416V328Z"
        fill="#201F1F" />
    <g opacity="0.4" filter="url(#filter1_b_545_1035)">
        <path
            d="M254 284.452L292.136 246.221L291.473 251.291L295.902 249.997L294.925 254.752L299.669 253.773L298.378 258.213L303.435 257.549L265.299 295.78L265.645 291.029L261.533 292.004L262.192 287.567L257.766 288.228L258.739 284.106L254 284.452Z"
            fill="#FEFEFE" />
    </g>
    <g opacity="0.4" filter="url(#filter2_b_545_1035)">
        <path
            d="M584.498 283.562L548.436 247.5L549.078 252.267L544.9 251.036L545.837 255.508L541.364 254.571L542.596 258.749L537.829 258.107L573.891 294.169L573.55 289.702L577.427 290.634L576.791 286.462L580.962 287.098L580.031 283.221L584.498 283.562Z"
            fill="#FEFEFE" />
    </g>
    <g opacity="0.4" filter="url(#filter3_b_545_1035)">
        <path
            d="M301.062 359.062L265 323L265.642 327.767L261.464 326.536L262.401 331.008L257.929 330.071L259.16 334.249L254.393 333.607L290.456 369.669L290.114 365.202L293.991 366.134L293.355 361.962L297.527 362.598L296.596 358.721L301.062 359.062Z"
            fill="#FEFEFE" />
    </g>
    <g opacity="0.4" filter="url(#filter4_b_545_1035)">
        <path
            d="M535 361.232L573.136 323L572.473 328.07L576.902 326.776L575.925 331.531L580.669 330.552L579.378 334.993L584.435 334.328L546.299 372.559L546.645 367.808L542.533 368.783L543.192 364.347L538.766 365.008L539.739 360.885L535 361.232Z"
            fill="#FEFEFE" />
    </g>
    <rect x="275.5" y="268.5" width="289" height="81" rx="4.5" stroke="#86C8EC" />
    <g filter="url(#filter5_i_545_1035)">
        <path d="M465 209H367L375.481 200H457.462L465 209Z" fill="#027DE5" />
    </g>
    <path d="M465 209H367L375.481 200H457.462L465 209Z" stroke="#027DE5" stroke-linejoin="round" />
    <circle cx="375" cy="119" r="16" fill="#F3B840" />
    <path fill-rule="evenodd" clip-rule="evenodd"
        d="M375 105.233C371.349 105.233 367.847 106.683 365.265 109.265C362.683 111.847 361.233 115.349 361.233 119C361.233 122.651 362.683 126.153 365.265 128.735C367.847 131.317 371.349 132.767 375 132.767C378.651 132.767 382.153 131.317 384.735 128.735C387.317 126.153 388.767 122.651 388.767 119C388.767 115.349 387.317 111.847 384.735 109.265C382.153 106.683 378.651 105.233 375 105.233ZM359 119C359 110.164 366.164 103 375 103C383.836 103 391 110.164 391 119C391 127.836 383.836 135 375 135C366.164 135 359 127.836 359 119ZM375 108.953C375.296 108.953 375.58 109.071 375.789 109.28C375.999 109.49 376.116 109.774 376.116 110.07V110.542C378.542 110.976 380.581 112.799 380.581 115.279C380.581 115.575 380.464 115.859 380.254 116.068C380.045 116.278 379.761 116.395 379.465 116.395C379.169 116.395 378.885 116.278 378.676 116.068C378.466 115.859 378.349 115.575 378.349 115.279C378.349 114.27 377.509 113.2 376.116 112.819V117.983C378.542 118.418 380.581 120.241 380.581 122.721C380.581 125.201 378.542 127.024 376.116 127.458V127.93C376.116 128.226 375.999 128.51 375.789 128.72C375.58 128.929 375.296 129.047 375 129.047C374.704 129.047 374.42 128.929 374.211 128.72C374.001 128.51 373.884 128.226 373.884 127.93V127.458C371.458 127.024 369.419 125.201 369.419 122.721C369.419 122.425 369.536 122.141 369.746 121.932C369.955 121.722 370.239 121.605 370.535 121.605C370.831 121.605 371.115 121.722 371.324 121.932C371.534 122.141 371.651 122.425 371.651 122.721C371.651 123.73 372.491 124.8 373.884 125.18V120.017C371.458 119.582 369.419 117.759 369.419 115.279C369.419 112.799 371.458 110.976 373.884 110.542V110.07C373.884 109.774 374.001 109.49 374.211 109.28C374.42 109.071 374.704 108.953 375 108.953ZM373.884 112.819C372.491 113.2 371.651 114.27 371.651 115.279C371.651 116.288 372.491 117.358 373.884 117.738V112.819ZM376.116 120.261V125.181C377.509 124.8 378.349 123.732 378.349 122.721C378.349 121.712 377.509 120.64 376.116 120.261Z"
        fill="#FFE351" />
    <g filter="url(#filter6_d_545_1035)">
        <circle cx="457" cy="150" r="16" fill="#F3B840" />
        <path fill-rule="evenodd" clip-rule="evenodd"
            d="M457 135.233C453.349 135.233 449.847 136.683 447.265 139.265C444.683 141.847 443.233 145.349 443.233 149C443.233 152.651 444.683 156.153 447.265 158.735C449.847 161.317 453.349 162.767 457 162.767C460.651 162.767 464.153 161.317 466.735 158.735C469.317 156.153 470.767 152.651 470.767 149C470.767 145.349 469.317 141.847 466.735 139.265C464.153 136.683 460.651 135.233 457 135.233ZM441 149C441 140.164 448.164 133 457 133C465.836 133 473 140.164 473 149C473 157.836 465.836 165 457 165C448.164 165 441 157.836 441 149ZM457 138.953C457.296 138.953 457.58 139.071 457.789 139.28C457.999 139.49 458.116 139.774 458.116 140.07V140.542C460.542 140.976 462.581 142.799 462.581 145.279C462.581 145.575 462.464 145.859 462.254 146.068C462.045 146.278 461.761 146.395 461.465 146.395C461.169 146.395 460.885 146.278 460.676 146.068C460.466 145.859 460.349 145.575 460.349 145.279C460.349 144.27 459.509 143.2 458.116 142.819V147.983C460.542 148.418 462.581 150.241 462.581 152.721C462.581 155.201 460.542 157.024 458.116 157.458V157.93C458.116 158.226 457.999 158.51 457.789 158.72C457.58 158.929 457.296 159.047 457 159.047C456.704 159.047 456.42 158.929 456.211 158.72C456.001 158.51 455.884 158.226 455.884 157.93V157.458C453.458 157.024 451.419 155.201 451.419 152.721C451.419 152.425 451.536 152.141 451.746 151.932C451.955 151.722 452.239 151.605 452.535 151.605C452.831 151.605 453.115 151.722 453.324 151.932C453.534 152.141 453.651 152.425 453.651 152.721C453.651 153.73 454.491 154.8 455.884 155.18V150.017C453.458 149.582 451.419 147.759 451.419 145.279C451.419 142.799 453.458 140.976 455.884 140.542V140.07C455.884 139.774 456.001 139.49 456.211 139.28C456.42 139.071 456.704 138.953 457 138.953ZM455.884 142.819C454.491 143.2 453.651 144.27 453.651 145.279C453.651 146.288 454.491 147.358 455.884 147.738V142.819ZM458.116 150.261V155.181C459.509 154.8 460.349 153.732 460.349 152.721C460.349 151.712 459.509 150.64 458.116 150.261Z"
            fill="#FFE351" />
    </g>
    <path
        d="M450.847 181C449.903 181 449.05 181.423 448.5 182.101C447.923 181.423 447.079 181 446.153 181C444.421 181 443 182.439 443 184.236C443 185.252 443.449 186.136 444.155 186.729L447.932 189.795C448.262 190.068 448.738 190.068 449.068 189.795L452.762 186.795C453.523 186.202 454 185.271 454 184.236C454 182.458 452.597 181 450.847 181Z"
        fill="#F37865" />
    <path
        d="M444.5 184.235C444.5 182.683 445.66 181.395 447.19 181.075C446.95 181.028 446.7 181 446.44 181C444.55 181 443 182.439 443 184.235C443 185.251 443.49 186.135 444.26 186.727L448.38 189.793C448.56 189.925 448.78 190 449 190L445.76 186.727C444.95 185.759 444.5 185.251 444.5 184.235Z"
        fill="#FEFEFE" />
    <path
        d="M444.288 186.799L448.307 189.772C448.502 189.918 448.756 190 449 190C449.254 190 449.498 189.918 449.693 189.772L453.624 186.863C454.493 186.243 455 185.304 455 184.274C455 182.468 453.429 181 451.498 181C450.532 181 449.634 181.365 449 181.994C448.346 181.356 447.449 181 446.502 181C444.571 181 443 182.468 443 184.274C443 185.249 443.468 186.17 444.288 186.799ZM446.502 181.274C447.41 181.274 448.288 181.647 448.893 182.295C448.922 182.322 448.961 182.34 449 182.34C449.039 182.34 449.088 182.322 449.107 182.295C449.693 181.647 450.561 181.274 451.498 181.274C453.263 181.274 454.707 182.623 454.707 184.274C454.707 185.213 454.249 186.079 453.449 186.644L449.517 189.553C449.371 189.663 449.185 189.717 449 189.717C448.815 189.717 448.629 189.653 448.483 189.553L444.463 186.581C443.712 186.006 443.293 185.167 443.293 184.264C443.293 182.614 444.737 181.274 446.502 181.274Z"
        fill="#62355C" />
    <path
        d="M451.164 182.328C452.544 182.328 453.672 183.456 453.672 184.836C453.672 184.923 453.748 185 453.836 185C453.923 185 454 184.923 454 184.836C454 183.27 452.73 182 451.164 182C451.077 182 451 182.077 451 182.164C451 182.252 451.077 182.328 451.164 182.328Z"
        fill="#62355C" />
    <path
        d="M414.847 118C413.903 118 413.05 118.423 412.5 119.101C411.923 118.423 411.079 118 410.153 118C408.421 118 407 119.439 407 121.236C407 122.252 407.449 123.136 408.155 123.729L411.932 126.795C412.262 127.068 412.738 127.068 413.068 126.795L416.762 123.795C417.523 123.202 418 122.271 418 121.236C418 119.458 416.597 118 414.847 118Z"
        fill="#F37865" />
    <path
        d="M408.5 121.235C408.5 119.683 409.66 118.395 411.19 118.075C410.95 118.028 410.7 118 410.44 118C408.55 118 407 119.439 407 121.235C407 122.251 407.49 123.135 408.26 123.727L412.38 126.793C412.56 126.925 412.78 127 413 127L409.76 123.727C408.95 122.759 408.5 122.251 408.5 121.235Z"
        fill="#FEFEFE" />
    <path
        d="M408.288 123.799L412.307 126.772C412.502 126.918 412.756 127 413 127C413.254 127 413.498 126.918 413.693 126.772L417.624 123.863C418.493 123.243 419 122.304 419 121.274C419 119.468 417.429 118 415.498 118C414.532 118 413.634 118.365 413 118.994C412.346 118.356 411.449 118 410.502 118C408.571 118 407 119.468 407 121.274C407 122.249 407.468 123.17 408.288 123.799ZM410.502 118.274C411.41 118.274 412.288 118.647 412.893 119.295C412.922 119.322 412.961 119.34 413 119.34C413.039 119.34 413.088 119.322 413.107 119.295C413.693 118.647 414.561 118.274 415.498 118.274C417.263 118.274 418.707 119.623 418.707 121.274C418.707 122.213 418.249 123.079 417.449 123.644L413.517 126.553C413.371 126.663 413.185 126.717 413 126.717C412.815 126.717 412.629 126.653 412.483 126.553L408.463 123.581C407.712 123.006 407.293 122.167 407.293 121.264C407.293 119.614 408.737 118.274 410.502 118.274Z"
        fill="#62355C" />
    <path
        d="M415.164 119.328C416.544 119.328 417.672 120.456 417.672 121.836C417.672 121.923 417.748 122 417.836 122C417.923 122 418 121.923 418 121.836C418 120.27 416.73 119 415.164 119C415.077 119 415 119.077 415 119.164C415 119.252 415.077 119.328 415.164 119.328Z"
        fill="#62355C" />
    <path
        d="M451.7 110C450.412 110 449.25 110.564 448.5 111.467C447.713 110.564 446.562 110 445.3 110C442.938 110 441 111.919 441 114.315C441 115.669 441.613 116.848 442.575 117.638L447.725 121.727C448.175 122.091 448.825 122.091 449.275 121.727L454.312 117.726C455.35 116.936 456 115.694 456 114.315C456 111.944 454.087 110 451.7 110Z"
        fill="#F37865" />
    <path
        d="M442.75 114.313C442.75 112.245 444.103 110.527 445.888 110.1C445.608 110.038 445.317 110 445.013 110C442.808 110 441 111.918 441 114.313C441 115.668 441.572 116.846 442.47 117.636L447.277 121.724C447.487 121.9 447.743 122 448 122L444.22 117.636C443.275 116.345 442.75 115.668 442.75 114.313Z"
        fill="#FEFEFE" />
    <path
        d="M442.61 117.733L447.634 121.696C447.878 121.891 448.195 122 448.5 122C448.817 122 449.122 121.891 449.366 121.696L454.28 117.818C455.366 116.991 456 115.739 456 114.365C456 111.957 454.037 110 451.622 110C450.415 110 449.293 110.486 448.5 111.325C447.683 110.474 446.561 110 445.378 110C442.963 110 441 111.957 441 114.365C441 115.666 441.585 116.894 442.61 117.733ZM445.378 110.365C446.512 110.365 447.61 110.863 448.366 111.726C448.402 111.763 448.451 111.787 448.5 111.787C448.549 111.787 448.61 111.763 448.634 111.726C449.366 110.863 450.451 110.365 451.622 110.365C453.829 110.365 455.634 112.164 455.634 114.365C455.634 115.617 455.061 116.772 454.061 117.526L449.146 121.404C448.963 121.55 448.732 121.623 448.5 121.623C448.268 121.623 448.037 121.538 447.854 121.404L442.829 117.441C441.89 116.675 441.366 115.556 441.366 114.353C441.366 112.152 443.171 110.365 445.378 110.365Z"
        fill="#62355C" />
    <path
        d="M452.164 111.328C453.544 111.328 454.672 112.456 454.672 113.836C454.672 113.923 454.748 114 454.836 114C454.923 114 455 113.923 455 113.836C455 112.27 453.73 111 452.164 111C452.077 111 452 111.077 452 111.164C452 111.252 452.077 111.328 452.164 111.328Z"
        fill="#62355C" />
    <path
        d="M372.7 153C371.412 153 370.25 153.564 369.5 154.467C368.713 153.564 367.562 153 366.3 153C363.938 153 362 154.919 362 157.315C362 158.669 362.613 159.848 363.575 160.638L368.725 164.727C369.175 165.091 369.825 165.091 370.275 164.727L375.312 160.726C376.35 159.936 377 158.694 377 157.315C377 154.944 375.087 153 372.7 153Z"
        fill="#F37865" />
    <path
        d="M363.75 157.313C363.75 155.245 365.103 153.527 366.888 153.1C366.608 153.038 366.317 153 366.013 153C363.808 153 362 154.918 362 157.313C362 158.668 362.572 159.846 363.47 160.636L368.277 164.724C368.487 164.9 368.743 165 369 165L365.22 160.636C364.275 159.345 363.75 158.668 363.75 157.313Z"
        fill="#FEFEFE" />
    <path
        d="M363.61 160.733L368.634 164.696C368.878 164.891 369.195 165 369.5 165C369.817 165 370.122 164.891 370.366 164.696L375.28 160.818C376.366 159.991 377 158.739 377 157.365C377 154.957 375.037 153 372.622 153C371.415 153 370.293 153.486 369.5 154.325C368.683 153.474 367.561 153 366.378 153C363.963 153 362 154.957 362 157.365C362 158.666 362.585 159.894 363.61 160.733ZM366.378 153.365C367.512 153.365 368.61 153.863 369.366 154.726C369.402 154.763 369.451 154.787 369.5 154.787C369.549 154.787 369.61 154.763 369.634 154.726C370.366 153.863 371.451 153.365 372.622 153.365C374.829 153.365 376.634 155.164 376.634 157.365C376.634 158.617 376.061 159.772 375.061 160.526L370.146 164.404C369.963 164.55 369.732 164.623 369.5 164.623C369.268 164.623 369.037 164.538 368.854 164.404L363.829 160.441C362.89 159.675 362.366 158.556 362.366 157.353C362.366 155.152 364.171 153.365 366.378 153.365Z"
        fill="#62355C" />
    <path
        d="M373.164 154.328C374.544 154.328 375.672 155.456 375.672 156.836C375.672 156.923 375.748 157 375.836 157C375.923 157 376 156.923 376 156.836C376 155.27 374.73 154 373.164 154C373.077 154 373 154.077 373 154.164C373 154.252 373.077 154.328 373.164 154.328Z"
        fill="#62355C" />
    <g clip-path="url(#clip0_545_1035)">
        <circle cx="416" cy="186" r="20" fill="#F3B840" />
        <path fill-rule="evenodd" clip-rule="evenodd"
            d="M416 168.791C411.436 168.791 407.059 170.604 403.831 173.831C400.604 177.059 398.791 181.436 398.791 186C398.791 190.564 400.604 194.941 403.831 198.169C407.059 201.396 411.436 203.209 416 203.209C420.564 203.209 424.941 201.396 428.169 198.169C431.396 194.941 433.209 190.564 433.209 186C433.209 181.436 431.396 177.059 428.169 173.831C424.941 170.604 420.564 168.791 416 168.791ZM396 186C396 174.954 404.954 166 416 166C427.046 166 436 174.954 436 186C436 197.046 427.046 206 416 206C404.954 206 396 197.046 396 186ZM416 173.442C416.37 173.442 416.725 173.589 416.987 173.851C417.248 174.112 417.395 174.467 417.395 174.837V175.427C420.428 175.97 422.977 178.249 422.977 181.349C422.977 181.719 422.83 182.074 422.568 182.335C422.306 182.597 421.951 182.744 421.581 182.744C421.211 182.744 420.856 182.597 420.595 182.335C420.333 182.074 420.186 181.719 420.186 181.349C420.186 180.087 419.137 178.75 417.395 178.273V184.729C420.428 185.273 422.977 187.552 422.977 190.651C422.977 193.751 420.428 196.03 417.395 196.573V197.163C417.395 197.533 417.248 197.888 416.987 198.149C416.725 198.411 416.37 198.558 416 198.558C415.63 198.558 415.275 198.411 415.013 198.149C414.752 197.888 414.605 197.533 414.605 197.163V196.573C411.572 196.03 409.023 193.751 409.023 190.651C409.023 190.281 409.17 189.926 409.432 189.665C409.694 189.403 410.049 189.256 410.419 189.256C410.789 189.256 411.144 189.403 411.405 189.665C411.667 189.926 411.814 190.281 411.814 190.651C411.814 191.913 412.863 193.25 414.605 193.725V187.271C411.572 186.727 409.023 184.448 409.023 181.349C409.023 178.249 411.572 175.97 414.605 175.427V174.837C414.605 174.467 414.752 174.112 415.013 173.851C415.275 173.589 415.63 173.442 416 173.442ZM414.605 178.273C412.863 178.75 411.814 180.087 411.814 181.349C411.814 182.61 412.863 183.948 414.605 184.422V178.273ZM417.395 187.576V193.727C419.137 193.25 420.186 191.914 420.186 190.651C420.186 189.39 419.137 188.05 417.395 187.576Z"
            fill="#FFE351" />
        <path
            d="M427 169L426.632 172.632L423 173L426.632 173.368L427 177L427.368 173.368L431 173L427.368 172.632L427 169Z"
            fill="#FEFEFE" />
    </g>
    <path
        d="M399.5 135L398.535 144.535L389 145.5L398.535 146.465L399.5 156L400.465 146.465L410 145.5L400.465 144.535L399.5 135Z"
        fill="#FEFEFE" />
    <path
        d="M413 91L412.448 96.4485L407 97L412.448 97.5515L413 103L413.552 97.5515L419 97L413.552 96.4485L413 91Z"
        fill="#FEFEFE" />
    <path
        d="M352 140L351.448 145.448L346 146L351.448 146.552L352 152L352.552 146.552L358 146L352.552 145.448L352 140Z"
        fill="#FEFEFE" />
    <path
        d="M467 119L466.448 124.448L461 125L466.448 125.552L467 131L467.552 125.552L473 125L467.552 124.448L467 119Z"
        fill="#FEFEFE" />
    <path
        d="M435 155L434.448 160.448L429 161L434.448 161.552L435 167L435.552 161.552L441 161L435.552 160.448L435 155Z"
        fill="#FEFEFE" />
    <path
        d="M291.404 525C175.824 498.401 110.786 409.155 96.9682 332.914C82.4616 252.872 118.461 209.859 133.956 150.332C145.209 107.1 137.089 54.1859 104.572 39.7793C63.9261 21.7711 49.8355 80.798 63.9261 98.8062C16.7769 89.9687 -18.9915 134.822 13.5253 157.833C58.0635 189.35 142.42 142.163 181.44 81.8019C208.176 45.452 316.145 -29.3478 415.862 14.272C551.69 86.3082 327.177 59.2966 508.332 14.272C691.556 -15.7375 757.954 213.777 749.252 302.401C740.755 388.939 670.778 492.986 552.317 525"
        stroke="#027DE5" stroke-linecap="round" stroke-linejoin="round" stroke-dasharray="8 8" />
    <defs>
        <filter id="filter0_dddddd_545_1035" x="237.5" y="172.5" width="394" height="271"
            filterUnits="userSpaceOnUse" color-interpolation-filters="sRGB">
            <feFlood flood-opacity="0" result="BackgroundImageFix" />
            <feColorMatrix in="SourceAlpha" type="matrix"
                values="0 0 0 0 0 0 0 0 0 0 0 0 0 0 0 0 0 0 127 0" result="hardAlpha" />
            <feOffset />
            <feColorMatrix type="matrix"
                values="0 0 0 0 0.65098 0 0 0 0 0.839216 0 0 0 0 0.945098 0 0 0 0.32 0" />
            <feBlend mode="normal" in2="BackgroundImageFix" result="effect1_dropShadow_545_1035" />
            <feColorMatrix in="SourceAlpha" type="matrix"
                values="0 0 0 0 0 0 0 0 0 0 0 0 0 0 0 0 0 0 127 0" result="hardAlpha" />
            <feOffset dx="1" dy="1" />
            <feGaussianBlur stdDeviation="2" />
            <feColorMatrix type="matrix"
                values="0 0 0 0 0.65098 0 0 0 0 0.839216 0 0 0 0 0.945098 0 0 0 0.31 0" />
            <feBlend mode="normal" in2="effect1_dropShadow_545_1035"
                result="effect2_dropShadow_545_1035" />
            <feColorMatrix in="SourceAlpha" type="matrix"
                values="0 0 0 0 0 0 0 0 0 0 0 0 0 0 0 0 0 0 127 0" result="hardAlpha" />
            <feOffset dx="3" dy="6" />
            <feGaussianBlur stdDeviation="3.5" />
            <feColorMatrix type="matrix"
                values="0 0 0 0 0.65098 0 0 0 0 0.839216 0 0 0 0 0.945098 0 0 0 0.27 0" />
            <feBlend mode="normal" in2="effect2_dropShadow_545_1035"
                result="effect3_dropShadow_545_1035" />
            <feColorMatrix in="SourceAlpha" type="matrix"
                values="0 0 0 0 0 0 0 0 0 0 0 0 0 0 0 0 0 0 127 0" result="hardAlpha" />
            <feOffset dx="7" dy="13" />
            <feGaussianBlur stdDeviation="4.5" />
            <feColorMatrix type="matrix"
                values="0 0 0 0 0.65098 0 0 0 0 0.839216 0 0 0 0 0.945098 0 0 0 0.16 0" />
            <feBlend mode="normal" in2="effect3_dropShadow_545_1035"
                result="effect4_dropShadow_545_1035" />
            <feColorMatrix in="SourceAlpha" type="matrix"
                values="0 0 0 0 0 0 0 0 0 0 0 0 0 0 0 0 0 0 127 0" result="hardAlpha" />
            <feOffset dx="13" dy="23" />
            <feGaussianBlur stdDeviation="5.5" />
            <feColorMatrix type="matrix"
                values="0 0 0 0 0.65098 0 0 0 0 0.839216 0 0 0 0 0.945098 0 0 0 0.05 0" />
            <feBlend mode="normal" in2="effect4_dropShadow_545_1035"
                result="effect5_dropShadow_545_1035" />
            <feColorMatrix in="SourceAlpha" type="matrix"
                values="0 0 0 0 0 0 0 0 0 0 0 0 0 0 0 0 0 0 127 0" result="hardAlpha" />
            <feOffset dx="21" dy="36" />
            <feGaussianBlur stdDeviation="6" />
            <feColorMatrix type="matrix"
                values="0 0 0 0 0.65098 0 0 0 0 0.839216 0 0 0 0 0.945098 0 0 0 0.01 0" />
            <feBlend mode="normal" in2="effect5_dropShadow_545_1035"
                result="effect6_dropShadow_545_1035" />
            <feBlend mode="normal" in="SourceGraphic" in2="effect6_dropShadow_545_1035"
                result="shape" />
        </filter>
        <filter id="filter1_b_545_1035" x="249" y="241.221" width="59.4355" height="59.5596"
            filterUnits="userSpaceOnUse" color-interpolation-filters="sRGB">
            <feFlood flood-opacity="0" result="BackgroundImageFix" />
            <feGaussianBlur in="BackgroundImageFix" stdDeviation="2.5" />
            <feComposite in2="SourceAlpha" operator="in" result="effect1_backgroundBlur_545_1035" />
            <feBlend mode="normal" in="SourceGraphic" in2="effect1_backgroundBlur_545_1035"
                result="shape" />
        </filter>
        <filter id="filter2_b_545_1035" x="532.829" y="242.5" width="56.6689" height="56.6689"
            filterUnits="userSpaceOnUse" color-interpolation-filters="sRGB">
            <feFlood flood-opacity="0" result="BackgroundImageFix" />
            <feGaussianBlur in="BackgroundImageFix" stdDeviation="2.5" />
            <feComposite in2="SourceAlpha" operator="in" result="effect1_backgroundBlur_545_1035" />
            <feBlend mode="normal" in="SourceGraphic" in2="effect1_backgroundBlur_545_1035"
                result="shape" />
        </filter>
        <filter id="filter3_b_545_1035" x="249.394" y="318" width="56.6689" height="56.6689"
            filterUnits="userSpaceOnUse" color-interpolation-filters="sRGB">
            <feFlood flood-opacity="0" result="BackgroundImageFix" />
            <feGaussianBlur in="BackgroundImageFix" stdDeviation="2.5" />
            <feComposite in2="SourceAlpha" operator="in" result="effect1_backgroundBlur_545_1035" />
            <feBlend mode="normal" in="SourceGraphic" in2="effect1_backgroundBlur_545_1035"
                result="shape" />
        </filter>
        <filter id="filter4_b_545_1035" x="530" y="318" width="59.4355" height="59.5596"
            filterUnits="userSpaceOnUse" color-interpolation-filters="sRGB">
            <feFlood flood-opacity="0" result="BackgroundImageFix" />
            <feGaussianBlur in="BackgroundImageFix" stdDeviation="2.5" />
            <feComposite in2="SourceAlpha" operator="in" result="effect1_backgroundBlur_545_1035" />
            <feBlend mode="normal" in="SourceGraphic" in2="effect1_backgroundBlur_545_1035"
                result="shape" />
        </filter>
        <filter id="filter5_i_545_1035" x="366.5" y="199.5" width="103" height="14"
            filterUnits="userSpaceOnUse" color-interpolation-filters="sRGB">
            <feFlood flood-opacity="0" result="BackgroundImageFix" />
            <feBlend mode="normal" in="SourceGraphic" in2="BackgroundImageFix" result="shape" />
            <feColorMatrix in="SourceAlpha" type="matrix"
                values="0 0 0 0 0 0 0 0 0 0 0 0 0 0 0 0 0 0 127 0" result="hardAlpha" />
            <feOffset dx="4" dy="4" />
            <feGaussianBlur stdDeviation="2" />
            <feComposite in2="hardAlpha" operator="arithmetic" k2="-1" k3="1" />
            <feColorMatrix type="matrix" values="0 0 0 0 0 0 0 0 0 0 0 0 0 0 0 0 0 0 0.25 0" />
            <feBlend mode="normal" in2="shape" result="effect1_innerShadow_545_1035" />
        </filter>
        <filter id="filter6_d_545_1035" x="437" y="133" width="40" height="41"
            filterUnits="userSpaceOnUse" color-interpolation-filters="sRGB">
            <feFlood flood-opacity="0" result="BackgroundImageFix" />
            <feColorMatrix in="SourceAlpha" type="matrix"
                values="0 0 0 0 0 0 0 0 0 0 0 0 0 0 0 0 0 0 127 0" result="hardAlpha" />
            <feOffset dy="4" />
            <feGaussianBlur stdDeviation="2" />
            <feComposite in2="hardAlpha" operator="out" />
            <feColorMatrix type="matrix"
                values="0 0 0 0 0.866667 0 0 0 0 0.945098 0 0 0 0 0.992157 0 0 0 0.56 0" />
            <feBlend mode="normal" in2="BackgroundImageFix" result="effect1_dropShadow_545_1035" />
            <feBlend mode="normal" in="SourceGraphic" in2="effect1_dropShadow_545_1035"
                result="shape" />
        </filter>
        <clipPath id="clip0_545_1035">
            <rect width="40" height="40" fill="white" transform="translate(396 166)" />
        </clipPath>
    </defs>
</svg>