<svg width="364" height="378" viewBox="0 0 364 378" fill="none" xmlns="http://www.w3.org/2000/svg">
    <path opacity="0.6"
        d="M114.384 330.944C86.3799 320.685 62.9017 303.992 46.2503 284.301C23.0701 256.888 25.1244 213.477 34.611 183.71C44.0977 153.944 60.9149 122.648 96.7711 108.418C129.495 95.4312 154.665 100.507 180.656 122.999C208.288 146.911 196.496 191.081 214.068 217.478C232.302 244.87 278.537 224.925 265.194 282.762C256.389 310.389 232.642 329.388 202.106 337.152C176.108 343.762 145.19 342.229 114.384 330.944Z"
        fill="#D1EDFC" fill-opacity="0.75" />
    <path opacity="0.6"
        d="M246.497 331.522C275.398 320.935 299.701 303.94 317.009 284.008C341.104 256.26 339.387 212.725 329.901 182.959C320.414 153.192 303.401 121.968 266.647 108.067C233.104 95.3801 207.166 100.737 180.225 123.577C151.584 147.859 163.31 192.053 144.993 218.723C125.986 246.397 78.6094 226.871 91.8057 284.762C100.611 312.389 124.865 331.202 156.205 338.671C182.887 345.031 214.706 343.168 246.497 331.522Z"
        fill="#D1EDFC" fill-opacity="0.75" />
    <g filter="url(#filter0_dddddd_0_1)">
        <path d="M75 196.085L115.057 164H246.354L288 196.085V304H75V196.085Z" fill="#86C8EC" />
        <path
            d="M75 196.085L115.057 164H246.354L288 196.085M75 196.085H288M75 196.085V304H288V196.085"
            stroke="#027DE5" stroke-linecap="round" stroke-linejoin="round" />
    </g>
    <rect x="95.5" y="223.5" width="172" height="52" rx="4.5" fill="#F5F8FF" />
    <path
        d="M140.2 251.087C140.2 253.499 139.751 255.516 138.853 257.137C137.954 258.748 136.65 259.964 134.941 260.784C133.232 261.595 131.172 262 128.76 262H122.812V240.584H129.404C131.621 240.584 133.535 240.984 135.146 241.785C136.758 242.576 138.003 243.753 138.882 245.315C139.761 246.868 140.2 248.792 140.2 251.087ZM136.538 251.189C136.538 249.432 136.26 247.986 135.703 246.854C135.156 245.721 134.346 244.881 133.271 244.334C132.207 243.777 130.894 243.499 129.331 243.499H126.328V259.056H128.818C131.406 259.056 133.34 258.396 134.619 257.078C135.898 255.76 136.538 253.797 136.538 251.189ZM163.828 251.263C163.828 252.913 163.618 254.417 163.198 255.774C162.788 257.122 162.168 258.284 161.338 259.261C160.508 260.228 159.468 260.975 158.218 261.502C156.968 262.029 155.503 262.293 153.823 262.293C152.114 262.293 150.63 262.029 149.37 261.502C148.12 260.975 147.08 260.223 146.25 259.246C145.43 258.27 144.814 257.103 144.404 255.745C143.994 254.388 143.789 252.884 143.789 251.233C143.789 249.026 144.15 247.103 144.873 245.462C145.605 243.812 146.714 242.532 148.198 241.624C149.692 240.706 151.577 240.247 153.853 240.247C156.079 240.247 157.93 240.701 159.404 241.609C160.879 242.518 161.982 243.797 162.715 245.447C163.457 247.088 163.828 249.026 163.828 251.263ZM147.48 251.263C147.48 252.913 147.705 254.344 148.154 255.555C148.604 256.756 149.292 257.684 150.22 258.338C151.157 258.982 152.358 259.305 153.823 259.305C155.298 259.305 156.499 258.982 157.427 258.338C158.354 257.684 159.038 256.756 159.478 255.555C159.917 254.344 160.137 252.913 160.137 251.263C160.137 248.753 159.634 246.79 158.628 245.374C157.632 243.948 156.04 243.235 153.853 243.235C152.388 243.235 151.182 243.558 150.234 244.202C149.297 244.847 148.604 245.77 148.154 246.971C147.705 248.162 147.48 249.593 147.48 251.263ZM186.299 262H181.978L171.489 244.905H171.357C171.396 245.481 171.431 246.092 171.46 246.736C171.499 247.381 171.528 248.045 171.548 248.729C171.577 249.412 171.602 250.105 171.621 250.809V262H168.428V240.584H172.72L183.193 257.562H183.296C183.276 257.063 183.252 256.492 183.223 255.848C183.193 255.203 183.164 254.539 183.135 253.855C183.115 253.162 183.101 252.493 183.091 251.849V240.584H186.299V262ZM205.195 262L203.101 256.053H194.912L192.817 262H189.111L197.08 240.496H200.977L208.931 262H205.195ZM202.192 253.035L200.156 247.176C200.078 246.922 199.966 246.565 199.819 246.106C199.673 245.638 199.526 245.164 199.38 244.686C199.233 244.197 199.111 243.787 199.014 243.455C198.916 243.855 198.794 244.305 198.647 244.803C198.511 245.291 198.374 245.75 198.237 246.18C198.11 246.609 198.013 246.941 197.944 247.176L195.894 253.035H202.192ZM219.185 262H215.654V243.572H209.385V240.584H225.439V243.572H219.185V262ZM240.85 262H228.721V240.584H240.85V243.543H232.236V249.358H240.308V252.303H232.236V259.026H240.85V262Z"
        fill="#201F1F" />
    <rect x="95.5" y="223.5" width="172" height="52" rx="4.5" stroke="#86C8EC" />
    <g filter="url(#filter1_i_0_1)">
        <path d="M208 185H150L155.019 180H203.538L208 185Z" fill="#027DE5" />
    </g>
    <path d="M208 185H150L155.019 180H203.538L208 185Z" stroke="#027DE5" stroke-linejoin="round" />
    <g filter="url(#filter2_d_0_1)">
        <ellipse cx="151.5" cy="130" rx="9.5" ry="10" fill="#F3B840" />
    </g>
    <path
        d="M190.993 168C190.392 168 189.85 168.282 189.5 168.734C189.132 168.282 188.596 168 188.007 168C186.904 168 186 168.959 186 170.157C186 170.835 186.286 171.424 186.735 171.819L189.138 173.864C189.348 174.045 189.652 174.045 189.862 173.864L192.213 171.863C192.697 171.468 193 170.847 193 170.157C193 168.972 192.108 168 190.993 168Z"
        fill="#F37865" />
    <path
        d="M186.75 170.157C186.75 169.122 187.33 168.263 188.095 168.05C187.975 168.019 187.85 168 187.72 168C186.775 168 186 168.959 186 170.157C186 170.834 186.245 171.423 186.63 171.818L188.69 173.862C188.78 173.95 188.89 174 189 174L187.38 171.818C186.975 171.172 186.75 170.834 186.75 170.157Z"
        fill="#FEFEFE" />
    <path
        d="M186.751 171.866L189.096 173.848C189.21 173.945 189.358 174 189.5 174C189.648 174 189.79 173.945 189.904 173.848L192.198 171.909C192.704 171.495 193 170.869 193 170.182C193 168.979 192.084 168 190.957 168C190.393 168 189.87 168.243 189.5 168.663C189.119 168.237 188.595 168 188.043 168C186.916 168 186 168.979 186 170.182C186 170.833 186.273 171.447 186.751 171.866ZM188.043 168.182C188.572 168.182 189.085 168.432 189.437 168.863C189.454 168.881 189.477 168.894 189.5 168.894C189.523 168.894 189.551 168.881 189.563 168.863C189.904 168.432 190.411 168.182 190.957 168.182C191.987 168.182 192.829 169.082 192.829 170.182C192.829 170.809 192.562 171.386 192.095 171.763L189.802 173.702C189.716 173.775 189.608 173.812 189.5 173.812C189.392 173.812 189.284 173.769 189.198 173.702L186.854 171.72C186.415 171.337 186.171 170.778 186.171 170.176C186.171 169.076 187.013 168.182 188.043 168.182Z"
        fill="#62355C" />
    <path
        d="M191.055 168.219C191.515 168.219 191.891 168.971 191.891 169.891C191.891 169.949 191.916 170 191.945 170C191.974 170 192 169.949 192 169.891C192 168.847 191.577 168 191.055 168C191.026 168 191 168.051 191 168.109C191 168.168 191.026 168.219 191.055 168.219Z"
        fill="#62355C" />
    <path
        d="M179.993 136C179.392 136 178.85 136.282 178.5 136.734C178.132 136.282 177.596 136 177.007 136C175.904 136 175 136.959 175 138.157C175 138.835 175.286 139.424 175.735 139.819L178.138 141.864C178.348 142.045 178.652 142.045 178.862 141.864L181.213 139.863C181.697 139.468 182 138.847 182 138.157C182 136.972 181.108 136 179.993 136Z"
        fill="#F37865" />
    <path
        d="M175.75 138.157C175.75 137.122 176.33 136.263 177.095 136.05C176.975 136.019 176.85 136 176.72 136C175.775 136 175 136.959 175 138.157C175 138.834 175.245 139.423 175.63 139.818L177.69 141.862C177.78 141.95 177.89 142 178 142L176.38 139.818C175.975 139.172 175.75 138.834 175.75 138.157Z"
        fill="#FEFEFE" />
    <path
        d="M175.751 139.866L178.096 141.848C178.21 141.945 178.358 142 178.5 142C178.648 142 178.79 141.945 178.904 141.848L181.198 139.909C181.704 139.495 182 138.869 182 138.182C182 136.979 181.084 136 179.957 136C179.393 136 178.87 136.243 178.5 136.663C178.119 136.237 177.595 136 177.043 136C175.916 136 175 136.979 175 138.182C175 138.833 175.273 139.447 175.751 139.866ZM177.043 136.182C177.572 136.182 178.085 136.432 178.437 136.863C178.454 136.881 178.477 136.894 178.5 136.894C178.523 136.894 178.551 136.881 178.563 136.863C178.904 136.432 179.411 136.182 179.957 136.182C180.987 136.182 181.829 137.082 181.829 138.182C181.829 138.809 181.562 139.386 181.095 139.763L178.802 141.702C178.716 141.775 178.608 141.812 178.5 141.812C178.392 141.812 178.284 141.769 178.198 141.702L175.854 139.72C175.415 139.337 175.171 138.778 175.171 138.176C175.171 137.076 176.013 136.182 177.043 136.182Z"
        fill="#62355C" />
    <path
        d="M180.055 136.219C180.515 136.219 180.891 136.971 180.891 137.891C180.891 137.949 180.916 138 180.945 138C180.974 138 181 137.949 181 137.891C181 136.847 180.577 136 180.055 136C180.026 136 180 136.051 180 136.109C180 136.168 180.026 136.219 180.055 136.219Z"
        fill="#62355C" />
    <path
        d="M204.993 162C204.392 162 203.85 162.282 203.5 162.734C203.132 162.282 202.596 162 202.007 162C200.904 162 200 162.959 200 164.157C200 164.835 200.286 165.424 200.735 165.819L203.138 167.864C203.348 168.045 203.652 168.045 203.862 167.864L206.213 165.863C206.697 165.468 207 164.847 207 164.157C207 162.972 206.108 162 204.993 162Z"
        fill="#F37865" />
    <path
        d="M200.75 164.157C200.75 163.122 201.33 162.263 202.095 162.05C201.975 162.019 201.85 162 201.72 162C200.775 162 200 162.959 200 164.157C200 164.834 200.245 165.423 200.63 165.818L202.69 167.862C202.78 167.95 202.89 168 203 168L201.38 165.818C200.975 165.172 200.75 164.834 200.75 164.157Z"
        fill="#FEFEFE" />
    <path
        d="M200.751 165.866L203.096 167.848C203.21 167.945 203.358 168 203.5 168C203.648 168 203.79 167.945 203.904 167.848L206.198 165.909C206.704 165.495 207 164.869 207 164.182C207 162.979 206.084 162 204.957 162C204.393 162 203.87 162.243 203.5 162.663C203.119 162.237 202.595 162 202.043 162C200.916 162 200 162.979 200 164.182C200 164.833 200.273 165.447 200.751 165.866ZM202.043 162.182C202.572 162.182 203.085 162.432 203.437 162.863C203.454 162.881 203.477 162.894 203.5 162.894C203.523 162.894 203.551 162.881 203.563 162.863C203.904 162.432 204.411 162.182 204.957 162.182C205.987 162.182 206.829 163.082 206.829 164.182C206.829 164.809 206.562 165.386 206.095 165.763L203.802 167.702C203.716 167.775 203.608 167.812 203.5 167.812C203.392 167.812 203.284 167.769 203.198 167.702L200.854 165.72C200.415 165.337 200.171 164.778 200.171 164.176C200.171 163.076 201.013 162.182 202.043 162.182Z"
        fill="#62355C" />
    <path
        d="M205.055 162.219C205.515 162.219 205.891 162.971 205.891 163.891C205.891 163.949 205.916 164 205.945 164C205.974 164 206 163.949 206 163.891C206 162.847 205.577 162 205.055 162C205.026 162 205 162.051 205 162.109C205 162.168 205.026 162.219 205.055 162.219Z"
        fill="#62355C" />
    <g clip-path="url(#clip0_0_1)">
        <path
            d="M191.42 122C190.648 122 189.95 122.329 189.5 122.856C189.028 122.329 188.338 122 187.58 122C186.163 122 185 123.119 185 124.517C185 125.307 185.368 125.995 185.945 126.456L189.035 128.841C189.305 129.053 189.695 129.053 189.965 128.841L192.988 126.507C193.61 126.046 194 125.322 194 124.517C194 123.134 192.853 122 191.42 122Z"
            fill="#F37865" />
        <path
            d="M186.25 124.516C186.25 123.309 187.217 122.307 188.492 122.059C188.292 122.022 188.083 122 187.867 122C186.292 122 185 123.119 185 124.516C185 125.306 185.408 125.994 186.05 126.455L189.483 128.839C189.633 128.941 189.817 129 190 129L187.3 126.455C186.625 125.701 186.25 125.306 186.25 124.516Z"
            fill="#FEFEFE" />
        <path
            d="M186.073 127.155L189.423 129.797C189.585 129.927 189.797 130 190 130C190.211 130 190.415 129.927 190.577 129.797L193.854 127.212C194.577 126.661 195 125.826 195 124.91C195 123.305 193.691 122 192.081 122C191.276 122 190.528 122.324 190 122.883C189.455 122.316 188.707 122 187.919 122C186.309 122 185 123.305 185 124.91C185 125.777 185.39 126.596 186.073 127.155ZM187.919 122.243C188.675 122.243 189.407 122.575 189.911 123.151C189.935 123.175 189.967 123.191 190 123.191C190.033 123.191 190.073 123.175 190.089 123.151C190.577 122.575 191.301 122.243 192.081 122.243C193.553 122.243 194.756 123.443 194.756 124.91C194.756 125.745 194.374 126.515 193.707 127.017L190.431 129.603C190.309 129.7 190.154 129.749 190 129.749C189.846 129.749 189.691 129.692 189.569 129.603L186.22 126.96C185.593 126.45 185.244 125.704 185.244 124.902C185.244 123.435 186.447 122.243 187.919 122.243Z"
            fill="#62355C" />
        <path
            d="M192.109 123.219C193.029 123.219 193.781 123.971 193.781 124.891C193.781 124.949 193.832 125 193.891 125C193.949 125 194 124.949 194 124.891C194 123.847 193.153 123 192.109 123C192.051 123 192 123.051 192 123.109C192 123.168 192.051 123.219 192.109 123.219Z"
            fill="#62355C" />
    </g>
    <g clip-path="url(#clip1_0_1)">
        <path
            d="M151.42 151C150.648 151 149.95 151.329 149.5 151.856C149.028 151.329 148.338 151 147.58 151C146.163 151 145 152.119 145 153.517C145 154.307 145.368 154.995 145.945 155.456L149.035 157.841C149.305 158.053 149.695 158.053 149.965 157.841L152.988 155.507C153.61 155.046 154 154.322 154 153.517C154 152.134 152.853 151 151.42 151Z"
            fill="#F37865" />
        <path
            d="M146.25 153.516C146.25 152.309 147.217 151.307 148.492 151.059C148.292 151.022 148.083 151 147.867 151C146.292 151 145 152.119 145 153.516C145 154.306 145.408 154.994 146.05 155.455L149.483 157.839C149.633 157.941 149.817 158 150 158L147.3 155.455C146.625 154.701 146.25 154.306 146.25 153.516Z"
            fill="#FEFEFE" />
        <path
            d="M146.073 156.155L149.423 158.797C149.585 158.927 149.797 159 150 159C150.211 159 150.415 158.927 150.577 158.797L153.854 156.212C154.577 155.661 155 154.826 155 153.91C155 152.305 153.691 151 152.081 151C151.276 151 150.528 151.324 150 151.883C149.455 151.316 148.707 151 147.919 151C146.309 151 145 152.305 145 153.91C145 154.777 145.39 155.596 146.073 156.155ZM147.919 151.243C148.675 151.243 149.407 151.575 149.911 152.151C149.935 152.175 149.967 152.191 150 152.191C150.033 152.191 150.073 152.175 150.089 152.151C150.577 151.575 151.301 151.243 152.081 151.243C153.553 151.243 154.756 152.443 154.756 153.91C154.756 154.745 154.374 155.515 153.707 156.017L150.431 158.603C150.309 158.7 150.154 158.749 150 158.749C149.846 158.749 149.691 158.692 149.569 158.603L146.22 155.96C145.593 155.45 145.244 154.704 145.244 153.902C145.244 152.435 146.447 151.243 147.919 151.243Z"
            fill="#62355C" />
        <path
            d="M152.109 152.219C153.029 152.219 153.781 152.971 153.781 153.891C153.781 153.949 153.832 154 153.891 154C153.949 154 154 153.949 154 153.891C154 152.847 153.153 152 152.109 152C152.051 152 152 152.051 152 152.109C152 152.168 152.051 152.219 152.109 152.219Z"
            fill="#62355C" />
    </g>
    <path
        d="M159.5 138L158.902 143.902L153 144.5L158.902 145.098L159.5 151L160.098 145.098L166 144.5L160.098 143.902L159.5 138Z"
        fill="#FEFEFE" />
    <path
        d="M164.5 115L164.178 118.632L161 119L164.178 119.368L164.5 123L164.822 119.368L168 119L164.822 118.632L164.5 115Z"
        fill="#FEFEFE" />
    <path
        d="M131.5 141L131.178 144.632L128 145L131.178 145.368L131.5 149L131.822 145.368L135 145L131.822 144.632L131.5 141Z"
        fill="#FEFEFE" />
    <path
        d="M200.5 128L200.178 131.632L197 132L200.178 132.368L200.5 136L200.822 132.368L204 132L200.822 131.632L200.5 128Z"
        fill="#FEFEFE" />
    <path
        d="M181.5 151L181.178 154.632L178 155L181.178 155.368L181.5 159L181.822 155.368L185 155L181.822 154.632L181.5 151Z"
        fill="#FEFEFE" />
    <path fill-rule="evenodd" clip-rule="evenodd"
        d="M151.5 121.395C149.332 121.395 147.253 122.302 145.72 123.916C144.187 125.529 143.326 127.718 143.326 130C143.326 132.282 144.187 134.471 145.72 136.084C147.253 137.698 149.332 138.605 151.5 138.605C153.668 138.605 155.747 137.698 157.28 136.084C158.813 134.471 159.674 132.282 159.674 130C159.674 127.718 158.813 125.529 157.28 123.916C155.747 122.302 153.668 121.395 151.5 121.395ZM142 130C142 124.477 146.253 120 151.5 120C156.747 120 161 124.477 161 130C161 135.523 156.747 140 151.5 140C146.253 140 142 135.523 142 130ZM151.5 123.721C151.676 123.721 151.844 123.794 151.969 123.925C152.093 124.056 152.163 124.234 152.163 124.419V124.713C153.603 124.985 154.814 126.125 154.814 127.674C154.814 127.859 154.744 128.037 154.62 128.168C154.496 128.299 154.327 128.372 154.151 128.372C153.975 128.372 153.807 128.299 153.682 128.168C153.558 128.037 153.488 127.859 153.488 127.674C153.488 127.044 152.99 126.375 152.163 126.137V129.365C153.603 129.636 154.814 130.776 154.814 132.326C154.814 133.875 153.603 135.015 152.163 135.287V135.581C152.163 135.766 152.093 135.944 151.969 136.075C151.844 136.206 151.676 136.279 151.5 136.279C151.324 136.279 151.156 136.206 151.031 136.075C150.907 135.944 150.837 135.766 150.837 135.581V135.287C149.397 135.015 148.186 133.875 148.186 132.326C148.186 132.141 148.256 131.963 148.38 131.832C148.504 131.701 148.673 131.628 148.849 131.628C149.025 131.628 149.193 131.701 149.318 131.832C149.442 131.963 149.512 132.141 149.512 132.326C149.512 132.956 150.01 133.625 150.837 133.862V130.635C149.397 130.364 148.186 129.224 148.186 127.674C148.186 126.125 149.397 124.985 150.837 124.713V124.419C150.837 124.234 150.907 124.056 151.031 123.925C151.156 123.794 151.324 123.721 151.5 123.721ZM150.837 126.137C150.01 126.375 149.512 127.044 149.512 127.674C149.512 128.305 150.01 128.974 150.837 129.211V126.137ZM152.163 130.788V133.863C152.99 133.625 153.488 132.957 153.488 132.326C153.488 131.695 152.99 131.025 152.163 130.788Z"
        fill="#FFE351" />
    <circle cx="179" cy="164" r="16" fill="#F3B840" />
    <path fill-rule="evenodd" clip-rule="evenodd"
        d="M179 150.372C175.349 150.372 171.847 151.913 169.265 154.657C166.683 157.4 165.232 161.12 165.232 165C165.232 168.88 166.683 172.6 169.265 175.343C171.847 178.087 175.349 179.628 179 179.628C182.651 179.628 186.153 178.087 188.735 175.343C191.317 172.6 192.767 168.88 192.767 165C192.767 161.12 191.317 157.4 188.735 154.657C186.153 151.913 182.651 150.372 179 150.372ZM163 165C163 155.611 170.163 148 179 148C187.836 148 195 155.611 195 165C195 174.389 187.836 182 179 182C170.163 182 163 174.389 163 165ZM179 154.326C179.296 154.326 179.58 154.451 179.789 154.673C179.999 154.895 180.116 155.197 180.116 155.512V156.013C182.542 156.475 184.581 158.412 184.581 161.047C184.581 161.361 184.464 161.663 184.254 161.885C184.045 162.108 183.761 162.233 183.465 162.233C183.169 162.233 182.885 162.108 182.676 161.885C182.466 161.663 182.349 161.361 182.349 161.047C182.349 159.974 181.509 158.837 180.116 158.432V163.92C182.542 164.382 184.581 166.319 184.581 168.953C184.581 171.588 182.542 173.525 180.116 173.987V174.488C180.116 174.803 179.999 175.105 179.789 175.327C179.58 175.549 179.296 175.674 179 175.674C178.704 175.674 178.42 175.549 178.211 175.327C178.001 175.105 177.884 174.803 177.884 174.488V173.987C175.458 173.525 173.418 171.588 173.418 168.953C173.418 168.639 173.536 168.337 173.745 168.115C173.955 167.892 174.239 167.767 174.535 167.767C174.831 167.767 175.115 167.892 175.324 168.115C175.533 168.337 175.651 168.639 175.651 168.953C175.651 170.026 176.49 171.163 177.884 171.566V166.08C175.458 165.618 173.418 163.681 173.418 161.047C173.418 158.412 175.458 156.475 177.884 156.013V155.512C177.884 155.197 178.001 154.895 178.211 154.673C178.42 154.451 178.704 154.326 179 154.326ZM177.884 158.432C176.49 158.837 175.651 159.974 175.651 161.047C175.651 162.119 176.49 163.256 177.884 163.659V158.432ZM180.116 166.339V171.568C181.509 171.163 182.349 170.027 182.349 168.953C182.349 167.881 181.509 166.743 180.116 166.339Z"
        fill="#FFE351" />
    <path
        d="M191 152L190.632 156.086L187 156.5L190.632 156.914L191 161L191.368 156.914L195 156.5L191.368 156.086L191 152Z"
        fill="#FEFEFE" />
    <circle cx="215" cy="143" r="12" fill="#F3B840" />
    <path fill-rule="evenodd" clip-rule="evenodd"
        d="M215 133.674C212.261 133.674 209.635 134.762 207.699 136.699C205.762 138.635 204.674 141.261 204.674 144C204.674 146.739 205.762 149.365 207.699 151.301C209.635 153.238 212.261 154.326 215 154.326C217.739 154.326 220.365 153.238 222.301 151.301C224.238 149.365 225.326 146.739 225.326 144C225.326 141.261 224.238 138.635 222.301 136.699C220.365 134.762 217.739 133.674 215 133.674ZM203 144C203 137.373 208.373 132 215 132C221.627 132 227 137.373 227 144C227 150.627 221.627 156 215 156C208.373 156 203 150.627 203 144ZM215 136.465C215.222 136.465 215.435 136.553 215.592 136.71C215.749 136.867 215.837 137.08 215.837 137.302V137.656C217.657 137.982 219.186 139.35 219.186 141.209C219.186 141.431 219.098 141.644 218.941 141.801C218.784 141.958 218.571 142.047 218.349 142.047C218.127 142.047 217.914 141.958 217.757 141.801C217.6 141.644 217.512 141.431 217.512 141.209C217.512 140.452 216.882 139.65 215.837 139.364V143.238C217.657 143.564 219.186 144.931 219.186 146.791C219.186 148.65 217.657 150.018 215.837 150.344V150.698C215.837 150.92 215.749 151.133 215.592 151.29C215.435 151.447 215.222 151.535 215 151.535C214.778 151.535 214.565 151.447 214.408 151.29C214.251 151.133 214.163 150.92 214.163 150.698V150.344C212.343 150.018 210.814 148.65 210.814 146.791C210.814 146.569 210.902 146.356 211.059 146.199C211.216 146.042 211.429 145.953 211.651 145.953C211.873 145.953 212.086 146.042 212.243 146.199C212.4 146.356 212.488 146.569 212.488 146.791C212.488 147.548 213.118 148.35 214.163 148.635V144.762C212.343 144.436 210.814 143.069 210.814 141.209C210.814 139.35 212.343 137.982 214.163 137.656V137.302C214.163 137.08 214.251 136.867 214.408 136.71C214.565 136.553 214.778 136.465 215 136.465ZM214.163 139.364C213.118 139.65 212.488 140.452 212.488 141.209C212.488 141.966 213.118 142.769 214.163 143.053V139.364ZM215.837 144.945V148.636C216.882 148.35 217.512 147.549 217.512 146.791C217.512 146.034 216.882 145.23 215.837 144.945Z"
        fill="#FFE351" />
    <path
        d="M69.9453 351C8.44485 273.699 7.78038 226.272 27.445 153.991C30.9443 140.248 46.2363 122.14 53.4449 114.804C135.445 58.9755 130.546 17.448 117.847 3.66286C93.5758 -7.87303 77.4327 21.1101 85.8466 32.646C74.4449 12.273 53.4449 9.58896 39.8466 32.6455C35.9448 95.4785 115.629 103.128 164.945 74.0061C189.445 59.5384 214.468 56.0295 239.347 59.4861C320.454 105.632 233.847 115.851 259.347 84.1793C306.847 58.3267 360.399 176.778 345.445 252.764C338.043 290.376 336.945 291.414 289.445 351"
        stroke="#027DE5" stroke-linecap="round" stroke-linejoin="round" stroke-dasharray="8 8" />
    <defs>
        <filter id="filter0_dddddd_0_1" x="70.5" y="160.5" width="251" height="192"
            filterUnits="userSpaceOnUse" color-interpolation-filters="sRGB">
            <feFlood flood-opacity="0" result="BackgroundImageFix" />
            <feColorMatrix in="SourceAlpha" type="matrix"
                values="0 0 0 0 0 0 0 0 0 0 0 0 0 0 0 0 0 0 127 0" result="hardAlpha" />
            <feOffset />
            <feColorMatrix type="matrix"
                values="0 0 0 0 0.65098 0 0 0 0 0.839216 0 0 0 0 0.945098 0 0 0 0.32 0" />
            <feBlend mode="normal" in2="BackgroundImageFix" result="effect1_dropShadow_0_1" />
            <feColorMatrix in="SourceAlpha" type="matrix"
                values="0 0 0 0 0 0 0 0 0 0 0 0 0 0 0 0 0 0 127 0" result="hardAlpha" />
            <feOffset dx="1" dy="1" />
            <feGaussianBlur stdDeviation="2" />
            <feColorMatrix type="matrix"
                values="0 0 0 0 0.65098 0 0 0 0 0.839216 0 0 0 0 0.945098 0 0 0 0.31 0" />
            <feBlend mode="normal" in2="effect1_dropShadow_0_1" result="effect2_dropShadow_0_1" />
            <feColorMatrix in="SourceAlpha" type="matrix"
                values="0 0 0 0 0 0 0 0 0 0 0 0 0 0 0 0 0 0 127 0" result="hardAlpha" />
            <feOffset dx="3" dy="6" />
            <feGaussianBlur stdDeviation="3.5" />
            <feColorMatrix type="matrix"
                values="0 0 0 0 0.65098 0 0 0 0 0.839216 0 0 0 0 0.945098 0 0 0 0.27 0" />
            <feBlend mode="normal" in2="effect2_dropShadow_0_1" result="effect3_dropShadow_0_1" />
            <feColorMatrix in="SourceAlpha" type="matrix"
                values="0 0 0 0 0 0 0 0 0 0 0 0 0 0 0 0 0 0 127 0" result="hardAlpha" />
            <feOffset dx="7" dy="13" />
            <feGaussianBlur stdDeviation="4.5" />
            <feColorMatrix type="matrix"
                values="0 0 0 0 0.65098 0 0 0 0 0.839216 0 0 0 0 0.945098 0 0 0 0.16 0" />
            <feBlend mode="normal" in2="effect3_dropShadow_0_1" result="effect4_dropShadow_0_1" />
            <feColorMatrix in="SourceAlpha" type="matrix"
                values="0 0 0 0 0 0 0 0 0 0 0 0 0 0 0 0 0 0 127 0" result="hardAlpha" />
            <feOffset dx="13" dy="23" />
            <feGaussianBlur stdDeviation="5.5" />
            <feColorMatrix type="matrix"
                values="0 0 0 0 0.65098 0 0 0 0 0.839216 0 0 0 0 0.945098 0 0 0 0.05 0" />
            <feBlend mode="normal" in2="effect4_dropShadow_0_1" result="effect5_dropShadow_0_1" />
            <feColorMatrix in="SourceAlpha" type="matrix"
                values="0 0 0 0 0 0 0 0 0 0 0 0 0 0 0 0 0 0 127 0" result="hardAlpha" />
            <feOffset dx="21" dy="36" />
            <feGaussianBlur stdDeviation="6" />
            <feColorMatrix type="matrix"
                values="0 0 0 0 0.65098 0 0 0 0 0.839216 0 0 0 0 0.945098 0 0 0 0.01 0" />
            <feBlend mode="normal" in2="effect5_dropShadow_0_1" result="effect6_dropShadow_0_1" />
            <feBlend mode="normal" in="SourceGraphic" in2="effect6_dropShadow_0_1" result="shape" />
        </filter>
        <filter id="filter1_i_0_1" x="149.5" y="179.5" width="63" height="10"
            filterUnits="userSpaceOnUse" color-interpolation-filters="sRGB">
            <feFlood flood-opacity="0" result="BackgroundImageFix" />
            <feBlend mode="normal" in="SourceGraphic" in2="BackgroundImageFix" result="shape" />
            <feColorMatrix in="SourceAlpha" type="matrix"
                values="0 0 0 0 0 0 0 0 0 0 0 0 0 0 0 0 0 0 127 0" result="hardAlpha" />
            <feOffset dx="4" dy="4" />
            <feGaussianBlur stdDeviation="2" />
            <feComposite in2="hardAlpha" operator="arithmetic" k2="-1" k3="1" />
            <feColorMatrix type="matrix" values="0 0 0 0 0 0 0 0 0 0 0 0 0 0 0 0 0 0 0.25 0" />
            <feBlend mode="normal" in2="shape" result="effect1_innerShadow_0_1" />
        </filter>
        <filter id="filter2_d_0_1" x="138" y="120" width="27" height="28"
            filterUnits="userSpaceOnUse" color-interpolation-filters="sRGB">
            <feFlood flood-opacity="0" result="BackgroundImageFix" />
            <feColorMatrix in="SourceAlpha" type="matrix"
                values="0 0 0 0 0 0 0 0 0 0 0 0 0 0 0 0 0 0 127 0" result="hardAlpha" />
            <feOffset dy="4" />
            <feGaussianBlur stdDeviation="2" />
            <feComposite in2="hardAlpha" operator="out" />
            <feColorMatrix type="matrix"
                values="0 0 0 0 0.866667 0 0 0 0 0.945098 0 0 0 0 0.992157 0 0 0 0.56 0" />
            <feBlend mode="normal" in2="BackgroundImageFix" result="effect1_dropShadow_0_1" />
            <feBlend mode="normal" in="SourceGraphic" in2="effect1_dropShadow_0_1" result="shape" />
        </filter>
        <clipPath id="clip0_0_1">
            <rect width="10" height="10" fill="white" transform="translate(185 121)" />
        </clipPath>
        <clipPath id="clip1_0_1">
            <rect width="10" height="10" fill="white" transform="translate(145 150)" />
        </clipPath>
    </defs>
</svg>