<svg id="icon-logo" width="136" height="44" viewBox="0 0 136 44" fill="none"
    xmlns="http://www.w3.org/2000/svg">
    <path fill-rule="evenodd" clip-rule="evenodd"
        d="M32.6479 13.5147C31.6552 11.7045 30.2903 10.3263 28.5532 9.38009C26.816 8.43385 24.7894 7.96073 22.4732 7.96073C19.9088 7.96073 17.634 8.5367 15.6487 9.68864C13.6634 10.8406 12.1124 12.4862 10.9957 14.6255C9.87894 16.7648 9.32057 19.2333 9.32057 22.0309C9.32057 24.9107 9.87894 27.4203 10.9957 29.5596C12.1538 31.6989 13.7461 33.3446 15.7728 34.4965C17.7995 35.6484 20.157 36.2244 22.8454 36.2244C26.1543 36.2244 29.0909 35.4633 31.2002 33.7354C32.4854 32.4571 33.0496 31.8959 33.4937 31.252C33.8367 30.7547 34.1081 30.2081 34.5848 29.2436C29.9596 28.8973 25.3867 27.588 25.3867 23.8737C25.3867 23.8737 41.2405 21.9078 45.9146 23.8737C46.9769 27.3402 45.9146 44 45.9146 44C43.3115 44 40.4953 41.9932 40.1551 35.2919C40.0937 35.3767 40.0315 35.4613 39.9687 35.5456C38.0661 38.0963 35.6051 40.1533 32.5858 41.7167C29.6079 43.2389 26.2577 44 22.5352 44C18.3578 44 14.5733 43.0743 11.1818 41.223C7.8316 39.3305 5.18453 36.7181 3.24059 33.3857C1.33801 30.0533 0.386719 26.2684 0.386719 22.0309C0.386719 17.7934 1.33801 14.0084 3.24059 10.676C5.18453 7.30248 7.8316 4.69004 11.1818 2.83871C14.5733 0.946237 18.3372 0 22.4732 0C27.3537 0 31.5932 1.19308 35.1915 3.57924C38.7899 5.92426 41.2715 9.23609 42.6364 13.5147H32.6479ZM97.3301 0.555401V43.6297H88.6444V15.6129L77.0428 43.6297H70.4665L58.8029 15.6129V43.6297H50.1172V0.555401H59.9816L73.7546 32.5835L87.5277 0.555401H97.3301ZM135.387 7.52875V0.555401H103.622V7.52875H115.161V43.6297H123.847V7.52875H135.387Z"
        fill="url(#paint0_linear_553_439)" />
    <defs>
        <linearGradient id="paint0_linear_553_439" x1="2.04114" y1="22.1944" x2="147.63"
            y2="22.1944" gradientUnits="userSpaceOnUse">
            <stop stop-color="#3949D6" />
            <stop offset="1" stop-color="#86C8EC" />
        </linearGradient>
    </defs>
</svg>