<svg version="1.1" xmlns="http://www.w3.org/2000/svg" xmlns:xlink="http://www.w3.org/1999/xlink">
    <defs>

        <symbol id="icon-printer" viewBox="0 0 28 28" xmlns="http://www.w3.org/2000/svg">

            <path d="M21 21H7V22H21V21Z" />
            <path d="M21 24H7V25H21V24Z" />
            <path
                d="M22 14C22.5523 14 23 13.5523 23 13C23 12.4477 22.5523 12 22 12C21.4477 12 21 12.4477 21 13C21 13.5523 21.4477 14 22 14Z"
            />
            <path
                d="M24.2069 8.4H22.3448V1.86667C22.3448 0.839976 21.5068 0 20.4827 0H6.51724C5.49308 0 4.65517 0.839976 4.65517 1.86667V8.4H2.7931C1.21032 8.4 1.46844e-09 9.61331 1.46844e-09 11.2V19.6C-4.86801e-05 21.1867 1.21032 22.4 2.7931 22.4H4.65517V26.1333C4.65517 27.16 5.49308 28 6.51724 28H20.4828C21.5069 28 22.3448 27.16 22.3448 26.1333V22.4H24.2069C25.7897 22.4 27 21.1867 27 19.6V11.2C27 9.61331 25.7896 8.4 24.2069 8.4ZM5.58616 1.86667C5.58616 1.40002 5.95857 0.933333 6.51719 0.933333H20.4827C20.9482 0.933333 21.4137 1.30667 21.4137 1.86667V8.4H5.58616V1.86667ZM21.4138 26.1333C21.4138 26.6 21.0414 27.0667 20.4828 27.0667H6.51724C6.05175 27.0667 5.58621 26.6933 5.58621 26.1333V19.6H21.4138V26.1333ZM26.0689 19.6C26.0689 20.6266 25.231 21.4667 24.2069 21.4667H22.3448V18.6667H4.65517V21.4667H2.7931C1.76894 21.4667 0.931035 20.6266 0.931035 19.6V11.2C0.931035 10.1733 1.76894 9.33333 2.7931 9.33333H24.2069C25.231 9.33333 26.069 10.1733 26.069 11.2L26.0689 19.6Z"
            />
        </symbol>

        <symbol id="icon-wand" viewBox="0 0 30 30" xmlns="http://www.w3.org/2000/svg">
            <path
                d="M21.4998 20C21.1218 19.997 20.8858 20.383 21.0568 20.717L22.0468 22.701C22.3268 23.331 23.2608 22.864 22.9298 22.261L21.9398 20.276C21.8598 20.108 21.6858 20.001 21.4998 20ZM6.48976 7C6.00976 7 5.78976 7.722 6.26376 7.946L8.25576 8.93C8.86176 9.26 9.33076 8.33 8.69876 8.05L6.70576 7.065C6.63276 7.027 6.57276 7 6.48976 7ZM29.9998 10.5C29.9998 10.777 29.7768 11 29.4998 11H27.4998C27.2228 11 26.9998 10.777 26.9998 10.5C26.9998 10.223 27.2228 10 27.4998 10H29.4998C29.7768 10 29.9998 10.223 29.9998 10.5ZM17.4998 0C17.7768 0 17.9998 0.223 17.9998 0.5V2.5C17.9998 2.777 17.7768 3 17.4998 3C17.2228 3 16.9998 2.777 16.9998 2.5V0.5C16.9998 0.223 17.2228 0 17.4998 0ZM12.4078 4.03C12.1578 3.98 11.8708 3.975 11.6048 4.13C11.3398 4.283 11.2028 4.54 11.1288 4.785C11.0538 5.029 11.0288 5.285 11.0258 5.562C11.0188 6.116 11.0978 6.752 11.1878 7.396C11.2778 8.04 11.3818 8.689 11.4378 9.216C11.5378 10.17 11.2528 10.43 10.6878 10.912C10.2748 11.266 9.70176 11.619 9.15976 12.004C8.61776 12.388 8.08776 12.778 7.68276 13.166C7.48076 13.36 7.30876 13.552 7.17976 13.771C7.04976 13.991 6.94976 14.268 7.02276 14.571C7.09576 14.875 7.30576 15.076 7.51876 15.216C7.73376 15.356 7.97576 15.456 8.24476 15.544C8.78276 15.72 9.43476 15.844 10.0968 15.96C10.7588 16.074 11.4298 16.177 11.9698 16.293C12.9218 16.498 13.1298 16.8 13.4298 17.51C13.6368 18 13.8228 18.633 14.0348 19.25C14.2468 19.867 14.4648 20.472 14.7248 20.965C14.8548 21.211 14.9908 21.432 15.1648 21.617C15.3408 21.803 15.5768 21.971 15.8808 21.997C16.1858 22.022 16.4428 21.895 16.6468 21.742C16.8518 21.589 17.0268 21.397 17.1968 21.176C17.5398 20.734 17.8638 20.174 18.1828 19.602C18.5008 19.029 18.8128 18.447 19.0908 17.988C19.5008 17.158 20.0008 17.082 20.7508 17.028C21.3028 17.005 21.9808 17.015 22.6548 17.012C23.3278 17.008 23.9918 16.992 24.5548 16.908C24.8348 16.866 25.0908 16.808 25.3248 16.708C25.5598 16.605 25.7998 16.445 25.9248 16.16C26.0498 15.875 26.0018 15.584 25.9128 15.346C25.8228 15.106 25.6868 14.886 25.5228 14.662C25.1928 14.212 24.7428 13.742 24.2758 13.272C23.8108 12.804 23.3298 12.339 22.9638 11.942C22.2918 11.245 22.3338 11.052 22.5838 10.312C22.7638 9.802 23.0298 9.182 23.2818 8.562C23.5358 7.944 23.7768 7.33 23.9078 6.782C23.9738 6.51 24.0148 6.254 23.9998 5.996C23.9858 5.738 23.9018 5.442 23.6578 5.238C23.4148 5.034 23.1298 4.998 22.8678 5.006C22.6048 5.013 22.3378 5.068 22.0478 5.148C21.4738 5.308 20.8218 5.576 20.1678 5.858C19.5138 6.138 18.8558 6.48 18.3128 6.695C17.4488 7.061 16.9988 6.94 16.3028 6.537C15.8428 6.242 15.2998 5.737 14.7528 5.357C14.2058 4.979 13.6628 4.555 13.1568 4.305C12.9038 4.179 12.6618 4.081 12.4108 4.031L12.4078 4.03ZM12.7108 5.2C13.1248 5.405 13.6468 5.81 14.1828 6.18C14.7178 6.55 15.2648 7.06 15.7628 7.38C16.2598 7.697 16.6578 7.962 17.1528 8.004C17.6508 8.046 18.0998 7.854 18.6808 7.624C19.2608 7.394 19.9208 7.054 20.5638 6.777C21.2038 6.501 21.8338 6.247 22.3168 6.111C22.9418 5.905 23.0008 6.177 22.9348 6.551C22.8298 6.989 22.6048 7.578 22.3548 8.185C22.1088 8.791 21.8398 9.418 21.6418 9.975C21.4438 10.535 21.2618 10.848 21.3868 11.365C21.5038 11.855 21.8328 12.19 22.2308 12.62C22.6268 13.05 23.1108 13.517 23.5648 13.977C24.0208 14.437 24.4498 14.89 24.7148 15.254C25.1308 15.78 24.6208 15.88 24.4048 15.92C23.9448 15.99 23.3088 16.008 22.6488 16.012C21.9888 16.015 21.3058 16.005 20.7088 16.029C20.1138 16.052 19.6368 16.059 19.2058 16.309C18.7758 16.559 18.5358 16.969 18.2358 17.469C17.9328 17.966 17.6208 18.554 17.3098 19.114C16.9968 19.674 16.6818 20.207 16.4058 20.564C15.9998 20.999 15.8408 20.918 15.6108 20.501C15.4038 20.105 15.1888 19.528 14.9808 18.925C14.7738 18.322 14.5728 17.688 14.3638 17.147C14.1558 16.607 13.9938 16.164 13.6118 15.843C13.2298 15.523 12.7618 15.436 12.1798 15.313C11.5968 15.191 10.9198 15.087 10.2718 14.973C9.62176 14.86 9.00176 14.725 8.56176 14.591C7.89476 14.388 8.18976 14.063 8.38176 13.886C8.71176 13.576 9.21176 13.196 9.74176 12.819C10.2718 12.443 10.8318 12.062 11.3018 11.704C11.7688 11.346 12.1518 11.074 12.3558 10.612C12.5578 10.152 12.4958 9.687 12.4378 9.112C12.3778 8.538 12.2708 7.886 12.1818 7.257C12.0918 6.627 12.0218 6.017 12.0288 5.575C12.0018 5.125 12.2608 4.999 12.7128 5.2H12.7108ZM10.4998 17C10.3698 17.004 10.2468 17.058 10.1568 17.15L0.639762 26.652C-0.255238 27.545 -0.136238 28.786 0.534762 29.462C1.20676 30.136 2.44776 30.257 3.34476 29.359L12.8348 19.869C13.3268 19.397 12.5848 18.687 12.1288 19.161L2.63876 28.651C2.05876 29.231 1.56876 29.081 1.24276 28.755C0.917762 28.427 0.772762 27.929 1.34476 27.358L10.8628 17.855C11.1878 17.537 10.9458 16.998 10.4988 16.998L10.4998 17Z"
            />
        </symbol>

        <symbol id="icon-education" viewBox="0 0 28 28" xmlns="http://www.w3.org/2000/svg">
            <path fill-rule="evenodd" clip-rule="evenodd"
                d="M26.1034 18.931H1.89655V14.8966C1.89655 14.6491 1.69572 14.4483 1.44828 14.4483C1.20083 14.4483 1 14.6491 1 14.8966C1 17.4298 1 19.8966 1 21.1724C1 21.5292 1.14166 21.8713 1.39403 22.1232C1.64597 22.3756 1.988 22.5172 2.34483 22.5172H4.13793C4.38538 22.5172 4.58621 22.3164 4.58621 22.069C4.58621 21.8215 4.38538 21.6207 4.13793 21.6207H2.34483C2.22603 21.6207 2.11172 21.5736 2.0279 21.4893C1.94362 21.4055 1.89655 21.2912 1.89655 21.1724V19.8276H26.1034V21.1724C26.1034 21.2912 26.0564 21.4055 25.9721 21.4893C25.8883 21.5736 25.774 21.6207 25.6552 21.6207H5.93103C5.68359 21.6207 5.48276 21.8215 5.48276 22.069C5.48276 22.3164 5.68359 22.5172 5.93103 22.5172H11.582C11.5103 23.7195 11.1987 25.2728 10.0502 26.1034H9.2931C9.04566 26.1034 8.84483 26.3043 8.84483 26.5517C8.84483 26.7992 9.04566 27 9.2931 27H18.7069C18.9543 27 19.1552 26.7992 19.1552 26.5517C19.1552 26.3043 18.9543 26.1034 18.7069 26.1034H17.9498C16.8013 25.2723 16.4897 23.7195 16.418 22.5172H25.6552C26.012 22.5172 26.354 22.3756 26.606 22.1232C26.8583 21.8713 27 21.5292 27 21.1724C27 18.4702 27 10.4263 27 7.72414C27 7.36731 26.8583 7.02528 26.606 6.77334C26.354 6.52097 26.012 6.37931 25.6552 6.37931H20.7241C20.4767 6.37931 20.2759 6.58014 20.2759 6.82759C20.2759 7.07503 20.4767 7.27586 20.7241 7.27586H25.6552C25.774 7.27586 25.8883 7.32293 25.9721 7.40721C26.0564 7.49103 26.1034 7.60534 26.1034 7.72414V18.931ZM15.5214 22.5172H12.4786C12.4091 23.6518 12.1267 25.0634 11.3198 26.1034H16.6802C15.8733 25.0634 15.5909 23.6514 15.5214 22.5172ZM12.6552 18.4828H15.569C15.8164 18.4828 16.0172 18.2819 16.0172 18.0345C16.0172 17.787 15.8164 17.5862 15.569 17.5862H12.6552C12.4077 17.5862 12.2069 17.787 12.2069 18.0345C12.2069 18.2819 12.4077 18.4828 12.6552 18.4828ZM2.7931 16.6897V17.5862C2.7931 17.8337 2.99393 18.0345 3.24138 18.0345C3.48883 18.0345 3.68966 17.8337 3.68966 17.5862V16.6897C3.68966 16.4422 3.48883 16.2414 3.24138 16.2414C2.99393 16.2414 2.7931 16.4422 2.7931 16.6897ZM11.9828 17.1379H16.2414C16.4888 17.1379 16.6897 16.9371 16.6897 16.6897C16.6897 16.4422 16.4888 16.2414 16.2414 16.2414H11.9828C11.7353 16.2414 11.5345 16.4422 11.5345 16.6897C11.5345 16.9371 11.7353 17.1379 11.9828 17.1379ZM13.1039 15.7931H11.5771C11.4601 15.7931 11.348 15.7474 11.2642 15.6658C9.76514 14.2058 8.17241 11.9577 8.17241 9.05103C8.17241 5.84496 10.7832 3.24138 14 3.24138C17.2168 3.24138 19.8276 5.84496 19.8276 9.05103C19.8276 11.9577 18.2349 14.2058 16.7358 15.6658C16.652 15.7474 16.5399 15.7931 16.4229 15.7931H14.8966C14.8966 15.7931 14.4483 15.7918 14.4483 15.3448V10.4138H13.5517V15.3444C13.5517 15.6367 13.3513 15.7931 13.1039 15.7931ZM3.68966 15.3448V9.51724C3.68966 9.26979 3.48883 9.06897 3.24138 9.06897C2.99393 9.06897 2.7931 9.26979 2.7931 9.51724V15.3448C2.7931 15.5923 2.99393 15.7931 3.24138 15.7931C3.48883 15.7931 3.68966 15.5923 3.68966 15.3448ZM15.3448 14.8966C15.7353 14.8966 16.2391 14.8966 16.2391 14.8966C17.5575 13.5746 18.931 11.5972 18.931 9.05103C18.931 6.33896 16.721 4.13793 14 4.13793C11.279 4.13793 9.06897 6.33896 9.06897 9.05103C9.06897 11.5972 10.4425 13.5746 11.7609 14.8966H12.6552V10.4138H11.7586C10.7688 10.4138 9.96552 9.61048 9.96552 8.62069C9.96552 7.6309 10.7688 6.82759 11.7586 6.82759C12.7484 6.82759 13.5517 7.6309 13.5517 8.62069V9.51724H14.4483V8.62069C14.4483 7.6309 15.2516 6.82759 16.2414 6.82759C17.2312 6.82759 18.0345 7.6309 18.0345 8.62069C18.0345 9.61048 17.2312 10.4138 16.2414 10.4138H15.3448V14.8966ZM7.27586 6.37931H2.34483C1.988 6.37931 1.64597 6.52097 1.39403 6.77334C1.14166 7.02528 1 7.36731 1 7.72414C1 8.84886 1 10.8984 1 13.1034C1 13.3509 1.20083 13.5517 1.44828 13.5517C1.69572 13.5517 1.89655 13.3509 1.89655 13.1034V7.72414C1.89655 7.60534 1.94362 7.49103 2.0279 7.40721C2.11172 7.32293 2.22603 7.27586 2.34483 7.27586H7.27586C7.52331 7.27586 7.72414 7.07503 7.72414 6.82759C7.72414 6.58014 7.52331 6.37931 7.27586 6.37931ZM15.3448 9.51724H16.2414C16.7363 9.51724 17.1379 9.11559 17.1379 8.62069C17.1379 8.12579 16.7363 7.72414 16.2414 7.72414C15.7465 7.72414 15.3448 8.12579 15.3448 8.62069V9.51724ZM12.6552 9.51724V8.62069C12.6552 8.12579 12.2535 7.72414 11.7586 7.72414C11.2637 7.72414 10.8621 8.12579 10.8621 8.62069C10.8621 9.11559 11.2637 9.51724 11.7586 9.51724H12.6552ZM11.5304 2.88634L11.0822 2.10993C10.9584 1.89566 10.6841 1.82214 10.4698 1.94586C10.2556 2.06959 10.182 2.34393 10.3058 2.55821L10.754 3.33462C10.8778 3.5489 11.1521 3.62241 11.3664 3.49869C11.5807 3.37497 11.6542 3.10062 11.5304 2.88634ZM17.246 3.33462L17.6942 2.55821C17.818 2.34393 17.7444 2.06959 17.5302 1.94586C17.3159 1.82214 17.0416 1.89566 16.9178 2.10993L16.4696 2.88634C16.3458 3.10062 16.4193 3.37497 16.6336 3.49869C16.8479 3.62241 17.1222 3.5489 17.246 3.33462ZM14.4483 2.34483V1.44828C14.4483 1.20083 14.2474 1 14 1C13.7526 1 13.5517 1.20083 13.5517 1.44828V2.34483C13.5517 2.59228 13.7526 2.7931 14 2.7931C14.2474 2.7931 14.4483 2.59228 14.4483 2.34483Z"
            />
        </symbol>

        <symbol id="icon-diagram" viewBox="0 0 28 28" xmlns="http://www.w3.org/2000/svg">
            <path
                d="M14 2C7.37273 2 2 7.37273 2 14C2 20.6273 7.37273 26 14 26C20.6273 26 26 20.6273 26 14C26 7.37273 20.6273 2 14 2ZM19.9864 23.1145L14.4675 13.7158L14.4582 13.7218C14.3622 13.5647 14.1969 13.4545 14 13.4545C13.6989 13.4545 13.4545 13.6984 13.4545 14C13.4545 14.0955 13.4856 14.18 13.5282 14.258L13.5227 14.2613L19.0455 23.6671C17.5356 24.4564 15.8218 24.9091 14 24.9091C7.97491 24.9091 3.09091 20.0251 3.09091 14C3.09091 7.97491 7.97491 3.09091 14 3.09091C20.0245 3.09091 24.9091 7.97491 24.9091 14C24.9091 17.8127 22.9498 21.1645 19.9864 23.1145Z"
            />
            <path
                d="M21.2313 6.01582L14.0872 13.1236V3H13V14.4545C13 14.7562 13.2435 15 13.5436 15C13.7219 15 13.873 14.9078 13.972 14.7747L22 6.78709L21.2313 6.01582Z"
            />
        </symbol>

        <symbol id="icon-heart" viewBox="0 0 28 28" xmlns="http://www.w3.org/2000/svg">
            <path
                d="M23.8549 4.56596C22.6582 3.55928 21.1211 3.00605 19.528 3.00605C17.6878 3.00605 15.9065 3.74998 14.6415 5.04934C14.4142 5.28327 14.201 5.53439 14.0009 5.80712C12.4519 3.71117 9.86363 2.63576 7.30375 3.11138C5.17951 3.50329 3.50944 4.69013 2.34318 6.63641C0.69766 9.38427 0.562987 12.0346 1.94516 14.5141C2.68396 15.8406 3.64248 17.1334 4.87581 18.466C7.13472 20.9073 9.80857 23.2244 13.291 25.7555C13.5134 25.918 13.7517 26 14.0003 26C14.3831 26 14.6415 25.8032 14.7697 25.7068C17.9119 23.4257 20.3802 21.3231 22.5382 19.0863C23.7432 17.8379 25.1106 16.3035 26.1106 14.3872C26.5391 13.5684 27.0277 12.4664 26.9988 11.2075C26.9344 8.49844 25.8772 6.2639 23.8549 4.56596ZM24.9299 13.4269C24.0395 15.1309 23.1934 16.6139 22.0811 17.7659C20.0855 19.8347 16.9566 22.8537 14.0162 25.0123C10.8162 22.6586 7.65178 20.0298 5.55808 17.7659C4.41856 16.3232 3.92499 15.1647 3.27904 14.0061C2.2251 12.1158 1.97265 9.81382 3.27904 7.63416C4.15796 6.16628 5.72147 4.8581 7.30375 4.56596C7.6069 4.50942 8.19739 4.5 8.5 4.5C10.3756 4.5 12.0616 5.17124 13 7L13.1192 7.36584C13.2827 7.67793 13.6836 7.92192 14.0162 7.93024C14.3646 7.92359 14.8468 7.68403 15 7.36584C15.3293 6.68289 15.5616 6.25836 16 5.80712C16.9193 4.86419 18.179 4.56596 19.528 4.56596C20.6909 4.56596 22.3542 5.07872 23.2206 5.80712C24.8323 7.16026 25.4479 8.94343 25.4997 11.1098C25.5177 11.9274 25.2729 12.7705 24.9299 13.4269Z"
            />
        </symbol>

        <symbol id="icon-coding" viewBox="0 0 28 28" xmlns="http://www.w3.org/2000/svg" fill="none">
            <path d="M23 4H2" stroke-linecap="round" stroke-linejoin="round" />
            <path d="M11 11H13" stroke-miterlimit="10" />
            <path d="M10 11H6" stroke-miterlimit="10" />
            <path d="M4 13H7" stroke-miterlimit="10" />
            <path d="M8 13H11" stroke-miterlimit="10" />
            <path d="M15 16L14 17.5L15 19" stroke-linecap="round"
                stroke-linejoin="round" />
            <path d="M20 16L21 17.5L20 19" stroke-linecap="round"
                stroke-linejoin="round" />
            <path d="M17 19L18 16" stroke-linecap="round" stroke-linejoin="round" />
            <path
                d="M18 23C21.3137 23 24 20.3137 24 17C24 13.6863 21.3137 11 18 11C14.6863 11 12 13.6863 12 17C12 20.3137 14.6863 23 18 23Z"
                stroke-miterlimit="10" />
            <path d="M22 22L26 26" stroke-linecap="round" stroke-linejoin="round" />
            <path d="M11 11H13" stroke-miterlimit="10" />
            <path d="M10 11H6" stroke-miterlimit="10" />
            <path d="M4 13H7" stroke-miterlimit="10" />
            <path d="M8 13H11" stroke-miterlimit="10" />
            <path d="M4 17H6" stroke-miterlimit="10" />
            <path d="M6 17H10" stroke-miterlimit="10" />
            <path d="M10 19H6" stroke-miterlimit="10" />
            <path d="M4 21H6" stroke-miterlimit="10" />
            <path d="M6 21H11" stroke-miterlimit="10" />
            <path d="M6 15H10" stroke-miterlimit="10" />
            <path d="M10 23H6" stroke-miterlimit="10" />
            <path d="M4 7H6" stroke-miterlimit="10" />
            <path d="M6 7H16" stroke-miterlimit="10" />
            <path d="M4 7H6" stroke-miterlimit="10" />
            <path d="M6 7H16" stroke-miterlimit="10" />
            <path d="M11 9H18" stroke-miterlimit="10" />
            <path d="M10 9H6" stroke-miterlimit="10" />
            <path d="M11 9H18" stroke-miterlimit="10" />
            <path d="M10 9H6" stroke-miterlimit="10" />
            <path d="M23 11.913V2H2V26H19.9268" stroke-linecap="round"
                stroke-linejoin="round" />
        </symbol>

        <symbol id="icon-ai" viewBox="0 0 28 28" xmlns="http://www.w3.org/2000/svg">
            <g clip-path="url(#clip0_357_949)">
                <path
                    d="M24.1883 19.1247C24.4635 22.8954 24.8919 24.6389 19.9272 24.6643C19.7987 24.6471 19.668 24.6588 19.5446 24.6984C19.4212 24.738 19.3081 24.8046 19.2136 24.8933C19.1191 24.982 19.0456 25.0907 18.9982 25.2113C18.9509 25.332 18.9311 25.4617 18.9401 25.591V27.5807C18.9401 27.6895 18.8969 27.7938 18.8199 27.8708C18.743 27.9477 18.6386 27.9909 18.5298 27.9909C18.421 27.9909 18.3166 27.9477 18.2396 27.8708C18.1627 27.7938 18.1195 27.6895 18.1195 27.5807V25.591C18.107 25.3528 18.1458 25.1147 18.2332 24.8929C18.3206 24.671 18.4547 24.4705 18.6263 24.3048C18.7979 24.1392 19.003 24.0123 19.2279 23.9328C19.4527 23.8533 19.692 23.8229 19.9296 23.8438C21.8786 23.8438 23.2663 23.4311 23.3834 22.8169C23.5283 21.5197 23.5141 20.2097 23.3412 18.9159C23.3301 18.8261 23.3492 18.7351 23.3955 18.6574C23.4418 18.5796 23.5127 18.5194 23.597 18.4864C24.3566 18.185 25.0955 17.8339 25.809 17.4354C26.4474 17.042 26.1191 16.6716 25.8223 16.2288C24.6809 15.0576 23.849 13.6207 23.4015 12.0478C22.8367 -1.59542 3.39329 -1.58697 2.82973 12.0478C2.61371 15.6677 5.39411 18.7603 6.86395 21.7129C7.46879 23.6116 7.77493 25.5928 7.77144 27.5855C7.77256 27.6943 7.73041 27.7991 7.65425 27.8768C7.5781 27.9546 7.47418 27.9989 7.36536 28C7.25654 28.0011 7.15174 27.9589 7.074 27.8828C6.99626 27.8067 6.95196 27.7028 6.95084 27.5939C6.95017 25.715 6.66911 23.8467 6.11696 22.0507C4.54816 19.0233 1.77984 15.786 2.01395 12.0478C2.61733 -2.65483 23.5572 -2.69344 24.2257 11.9972C24.7034 13.3727 25.462 14.6337 26.4534 15.7003C28.1151 17.7141 25.5882 18.4972 24.1883 19.1247ZM17.4992 18.1425C17.4289 18.1931 17.3445 18.2204 17.2578 18.2204C17.1712 18.2204 17.0868 18.1931 17.0165 18.1425L15.2305 16.8454C15.1589 16.8767 15.0889 16.9057 15.0205 16.9322L14.6729 19.1138C14.4799 19.699 13.605 19.4758 13.115 19.5542C12.6178 19.4734 11.7514 19.7014 11.5583 19.115L11.2107 16.9359L10.9983 16.8478L9.21232 18.1437C9.14212 18.1945 9.05765 18.2219 8.97097 18.2219C8.88429 18.2219 8.79982 18.1945 8.72961 18.1437C8.06599 17.6656 7.48406 17.0833 7.00635 16.4194C6.95516 16.3494 6.92757 16.2649 6.92757 16.1781C6.92757 16.0913 6.95516 16.0068 7.00635 15.9368L8.30242 14.1498C8.27225 14.081 8.24208 14.0098 8.21553 13.9398L6.03611 13.5935C5.44962 13.4005 5.67408 12.5257 5.59443 12.0358C5.67528 11.5459 5.44962 10.6699 6.03611 10.478L8.21553 10.1305C8.24208 10.0605 8.27225 9.99056 8.30242 9.92057L7.00997 8.1396C6.9586 8.06962 6.9309 7.98508 6.9309 7.89828C6.9309 7.81147 6.9586 7.72693 7.00997 7.65695C7.48689 6.99418 8.06851 6.41345 8.73203 5.93752C8.80223 5.88669 8.8867 5.85932 8.97338 5.85932C9.06006 5.85932 9.14453 5.88669 9.21474 5.93752L11.0008 7.23102C11.0707 7.19964 11.1407 7.17068 11.2107 7.14293L11.5583 4.96257C11.5715 4.87826 11.6107 4.80017 11.6704 4.73918C11.7301 4.67819 11.8073 4.63734 11.8913 4.6223C12.6989 4.49018 13.5226 4.49018 14.3302 4.6223C14.4151 4.63642 14.4934 4.67687 14.5541 4.73794C14.6147 4.799 14.6546 4.87758 14.6681 4.96257L15.0205 7.14414C15.0917 7.17189 15.1629 7.20206 15.2317 7.23222L17.0177 5.93752C17.0878 5.88633 17.1723 5.85875 17.259 5.85875C17.3458 5.85875 17.4303 5.88633 17.5004 5.93752C18.1639 6.41534 18.7455 6.99767 19.2225 7.66178C19.2737 7.73183 19.3012 7.81634 19.3012 7.9031C19.3012 7.98986 19.2737 8.07438 19.2225 8.14443L17.9252 9.91937C17.9566 9.98814 17.9855 10.0581 18.0133 10.1293L20.1855 10.4756C20.772 10.6675 20.5475 11.5459 20.6271 12.0334C20.5475 12.516 20.772 13.3993 20.1855 13.5911L18.0133 13.9374C17.9855 14.0086 17.9566 14.0786 17.9252 14.1486L19.2213 15.9332C19.2724 16.0032 19.3 16.0877 19.3 16.1745C19.3 16.2612 19.2724 16.3458 19.2213 16.4158C18.7446 17.0809 18.163 17.664 17.4992 18.1425ZM18.3789 16.1733L17.1179 14.437C17.0736 14.3762 17.0468 14.3044 17.0407 14.2295C17.0345 14.1546 17.0491 14.0794 17.0829 14.0122C17.2759 13.725 17.2494 13.2436 17.644 13.1676L19.7631 12.8297C19.8283 12.3016 19.8283 11.7675 19.7631 11.2394L17.644 10.9016C17.5696 10.8899 17.4998 10.8579 17.4423 10.8091C17.3848 10.7604 17.3419 10.6968 17.3182 10.6252C17.2578 10.3043 16.8886 9.96039 17.1179 9.63581L18.3789 7.89707C18.05 7.47852 17.6725 7.1006 17.2542 6.77129L15.5116 8.03583C15.1762 8.26268 14.8636 7.9019 14.5185 7.83191C14.4474 7.80835 14.3842 7.76573 14.3357 7.70871C14.2871 7.65169 14.2552 7.58245 14.2433 7.50854L13.9054 5.38851C13.3771 5.32576 12.8432 5.32576 12.3149 5.38851L11.9819 7.50613C11.97 7.58035 11.9379 7.64988 11.8891 7.70712C11.8404 7.76436 11.7769 7.80711 11.7055 7.83071C11.4014 7.88742 11.0345 8.26026 10.7147 8.03221L8.97579 6.78215C8.55724 7.11157 8.17965 7.48993 7.85109 7.90914L9.11578 9.63943C9.16015 9.70018 9.1868 9.77203 9.19276 9.84702C9.19873 9.922 9.18378 9.99717 9.14957 10.0642C8.95769 10.3489 8.98304 10.8328 8.58963 10.9088L6.46692 11.2466C6.40297 11.7752 6.40297 12.3096 6.46692 12.8382L8.58722 13.1748C8.66169 13.1866 8.73145 13.2187 8.78876 13.2677C8.84606 13.3167 8.88867 13.3806 8.91184 13.4524C8.97338 13.7757 9.34145 14.116 9.11337 14.4418L7.85109 16.1769C8.18034 16.5951 8.55786 16.973 8.97579 17.3027L10.7147 16.0406C11.049 15.8137 11.3628 16.1733 11.7079 16.2433C11.7789 16.2671 11.842 16.31 11.8903 16.3672C11.9386 16.4245 11.9703 16.4939 11.9819 16.5678L12.3197 18.6867C12.8481 18.7494 13.382 18.7494 13.9103 18.6867L14.2482 16.5654C14.2601 16.4914 14.2923 16.422 14.341 16.365C14.3897 16.308 14.4532 16.2654 14.5245 16.2421C14.8286 16.1853 15.1955 15.8125 15.5165 16.0406L17.2542 17.3015C17.6726 16.9714 18.0501 16.5926 18.3789 16.1733ZM13.115 14.6348C12.4463 14.606 11.8145 14.3201 11.3515 13.8367C10.8884 13.3534 10.63 12.7099 10.63 12.0406C10.63 11.3713 10.8884 10.7279 11.3515 10.2445C11.8145 9.76115 12.4463 9.47522 13.115 9.44637C13.7838 9.47522 14.4156 9.76115 14.8786 10.2445C15.3416 10.7279 15.6 11.3713 15.6 12.0406C15.6 12.7099 15.3416 13.3534 14.8786 13.8367C14.4156 14.3201 13.7838 14.606 13.115 14.6348ZM13.115 10.262C12.6439 10.262 12.1921 10.4492 11.8589 10.7823C11.5258 11.1154 11.3386 11.5671 11.3386 12.0382C11.3386 12.5093 11.5258 12.961 11.8589 13.2941C12.1921 13.6272 12.6439 13.8143 13.115 13.8143C13.5861 13.8143 14.038 13.6272 14.3711 13.2941C14.7042 12.961 14.8914 12.5093 14.8914 12.0382C14.8914 11.5671 14.7042 11.1154 14.3711 10.7823C14.038 10.4492 13.5861 10.262 13.115 10.262ZM8.9951 21.5898C8.61256 21.9518 9.20387 22.5551 9.57435 22.169C9.94483 21.7829 9.37161 21.2194 8.9951 21.5898ZM13.1114 21.4691C13.0066 21.4748 12.9079 21.5205 12.8357 21.5967C12.7636 21.6729 12.7233 21.7738 12.7233 21.8788C12.7233 21.9837 12.7636 22.0847 12.8357 22.1609C12.9079 22.2371 13.0066 22.2827 13.1114 22.2884C13.2145 22.2811 13.3111 22.2352 13.3818 22.1598C13.4525 22.0843 13.4921 21.985 13.4927 21.8816C13.4934 21.7783 13.4549 21.6785 13.3851 21.6022C13.3153 21.5259 13.2193 21.4789 13.1162 21.4703L13.1114 21.4691ZM16.6472 21.5898C16.2659 21.959 16.8572 22.5551 17.2277 22.169C17.5982 21.7829 17.0249 21.2194 16.652 21.5898H16.6472Z"
                />
            </g>
            <defs>
                <clipPath id="clip0_357_949">
                    <rect width="28" height="28" fill="white" />
                </clipPath>
            </defs>
        </symbol>

        <symbol id="icon-photo" viewBox="0 0 28 28" xmlns="http://www.w3.org/2000/svg" fill="none">
            <path
                d="M1 19.25L7.6141 12.7153C7.88196 12.4506 8.19996 12.2407 8.54994 12.0975C8.89992 11.9542 9.27503 11.8805 9.65385 11.8805C10.0327 11.8805 10.4078 11.9542 10.7577 12.0975C11.1077 12.2407 11.4257 12.4506 11.6936 12.7153L18.3077 19.25M16.3846 17.35L18.191 15.5653C18.4589 15.3006 18.7769 15.0907 19.1269 14.9475C19.4768 14.8042 19.852 14.7305 20.2308 14.7305C20.6096 14.7305 20.9847 14.8042 21.3347 14.9475C21.6847 15.0907 22.0027 15.3006 22.2705 15.5653L26 19.25M2.92308 24H24.0769C24.587 24 25.0761 23.7998 25.4367 23.4435C25.7974 23.0872 26 22.6039 26 22.1V6.9C26 6.39609 25.7974 5.91282 25.4367 5.5565C25.0761 5.20018 24.587 5 24.0769 5H2.92308C2.41305 5 1.9239 5.20018 1.56326 5.5565C1.20261 5.91282 1 6.39609 1 6.9V22.1C1 22.6039 1.20261 23.0872 1.56326 23.4435C1.9239 23.7998 2.41305 24 2.92308 24ZM16.3846 9.75H16.3949V9.76013H16.3846V9.75ZM16.8654 9.75C16.8654 9.87598 16.8147 9.9968 16.7246 10.0859C16.6344 10.175 16.5121 10.225 16.3846 10.225C16.2571 10.225 16.1348 10.175 16.0447 10.0859C15.9545 9.9968 15.9038 9.87598 15.9038 9.75C15.9038 9.62402 15.9545 9.5032 16.0447 9.41412C16.1348 9.32504 16.2571 9.275 16.3846 9.275C16.5121 9.275 16.6344 9.32504 16.7246 9.41412C16.8147 9.5032 16.8654 9.62402 16.8654 9.75Z"
                stroke-linecap="round" stroke-linejoin="round" />
        </symbol>

        <symbol id="icon-talk" viewBox="0 0 28 28" xmlns="http://www.w3.org/2000/svg">
            <path
                d="M25.4312 3.03051L10.6363 3C9.21933 3 8.06667 4.15923 8.06667 5.5843V7.81734L4.56967 7.82475C3.15267 7.82475 2 8.98398 2 10.4091V19.6223C2 21.0474 3.15267 22.2062 4.56923 22.2062H7.2V26.5642C7.2 26.7442 7.31007 26.9059 7.4769 26.9708C7.52803 26.9904 7.5809 27 7.63333 27C7.75293 27 7.87037 26.9499 7.954 26.8575L12.1591 22.2053L19.3637 22.1757C20.7807 22.1757 21.9333 21.0165 21.9333 19.5918V19.5421L24.2127 22.0637C24.2963 22.1561 24.4133 22.2062 24.5333 22.2062C24.5858 22.2062 24.6386 22.1966 24.6898 22.177C24.8566 22.1116 24.9667 21.9499 24.9667 21.77V17.4119H25.4303C26.8473 17.4119 28 16.2527 28 14.8281V5.61481C28 4.19017 26.8478 3.03094 25.4312 3.03051ZM21.0667 19.5914C21.0667 20.5358 20.3027 21.3036 19.3619 21.3036L11.9649 21.3342C11.8432 21.3346 11.7279 21.3864 11.646 21.4767L8.06667 25.4368V21.77C8.06667 21.5294 7.87253 21.3342 7.63333 21.3342H4.56923C3.63063 21.3342 2.86667 20.5658 2.86667 19.6219V10.4086C2.86667 9.46424 3.63063 8.69592 4.57053 8.69592L8.5 8.68764H8.50087L19.2779 8.66541H19.3637C19.9504 8.66541 20.4691 8.96568 20.7755 9.42109C20.9592 9.69434 21.0667 10.0238 21.0667 10.3781V18.4147V19.5914ZM27.1333 14.8281C27.1333 15.7725 26.3694 16.5403 25.4303 16.5403H24.5333C24.2941 16.5403 24.1 16.7356 24.1 16.9761V20.643L21.9333 18.2461V10.3781C21.9333 10.1999 21.9151 10.026 21.8809 9.8582C21.8636 9.77409 21.8423 9.69173 21.8176 9.61067C21.4918 8.55951 20.515 7.79425 19.3632 7.79425H19.3182L8.93333 7.81517V5.58386C8.93333 4.63948 9.6973 3.87117 10.6355 3.87117L25.4299 3.90167C26.3689 3.90167 27.1333 4.66999 27.1333 5.61437V14.8281Z"
            />
        </symbol>

        <symbol id="icon-arrow" viewBox="0 0 30 24" xmlns="http://www.w3.org/2000/svg">
            <path opacity="0.8"
                d="M29.2751 13.7779C29.7393 13.3064 30 12.6672 30 12.0008C30 11.3344 29.7393 10.6953 29.2751 10.2238L19.9293 0.736767C19.4643 0.265023 18.8337 -4.95124e-07 18.1761 -5.16838e-07C17.5186 -5.38551e-07 16.8879 0.265023 16.423 0.736767C15.958 1.20851 15.6968 1.84833 15.6968 2.51548C15.6968 3.18263 15.958 3.82245 16.423 4.29419L21.5387 9.48616L2.47856 9.48616C1.82121 9.48616 1.19078 9.7511 0.725956 10.2227C0.261135 10.6943 -4.95421e-07 11.3339 -5.24573e-07 12.0008C-5.53726e-07 12.6678 0.261135 13.3074 0.725955 13.779C1.19078 14.2506 1.82121 14.5155 2.47856 14.5155L21.5387 14.5155L16.423 19.7058C16.1927 19.9394 16.0101 20.2167 15.8855 20.5219C15.7609 20.8271 15.6968 21.1542 15.6968 21.4845C15.6968 21.8149 15.7609 22.142 15.8855 22.4472C16.0101 22.7523 16.1927 23.0296 16.423 23.2632C16.6532 23.4968 16.9265 23.6821 17.2273 23.8085C17.5281 23.9349 17.8505 24 18.1761 24C18.5017 24 18.8241 23.9349 19.1249 23.8085C19.4257 23.6821 19.6991 23.4968 19.9293 23.2632L29.2751 13.7779Z"
            />
        </symbol>


        <symbol id="icon-insta" viewBox="0 0 24 24" xmlns="http://www.w3.org/2000/svg">
            <path
                d="M11.9973 6.86894C9.15795 6.86894 6.86644 9.16045 6.86644 11.9998C6.86644 14.8392 9.15795 17.1307 11.9973 17.1307C14.8367 17.1307 17.1282 14.8392 17.1282 11.9998C17.1282 9.16045 14.8367 6.86894 11.9973 6.86894ZM11.9973 15.3345C10.1611 15.3345 8.66262 13.836 8.66262 11.9998C8.66262 10.1636 10.1611 8.66512 11.9973 8.66512C13.8335 8.66512 15.332 10.1636 15.332 11.9998C15.332 13.836 13.8335 15.3345 11.9973 15.3345ZM17.3383 5.46302C16.6754 5.46302 16.14 5.99837 16.14 6.66131C16.14 7.32424 16.6754 7.85959 17.3383 7.85959C18.0013 7.85959 18.5366 7.32674 18.5366 6.66131C18.5368 6.50389 18.5059 6.34798 18.4458 6.20251C18.3856 6.05704 18.2974 5.92486 18.1861 5.81355C18.0748 5.70224 17.9426 5.61398 17.7971 5.55383C17.6516 5.49368 17.4957 5.46282 17.3383 5.46302ZM21.9989 11.9998C21.9989 10.6189 22.0114 9.25051 21.9338 7.8721C21.8563 6.27105 21.4911 4.85012 20.3203 3.67935C19.147 2.50608 17.7286 2.14334 16.1275 2.06579C14.7466 1.98824 13.3782 2.00074 11.9998 2.00074C10.6189 2.00074 9.25051 1.98824 7.8721 2.06579C6.27105 2.14334 4.85012 2.50858 3.67935 3.67935C2.50608 4.85262 2.14334 6.27105 2.06579 7.8721C1.98824 9.25301 2.00074 10.6214 2.00074 11.9998C2.00074 13.3782 1.98824 14.7491 2.06579 16.1275C2.14334 17.7286 2.50858 19.1495 3.67935 20.3203C4.85262 21.4936 6.27105 21.8563 7.8721 21.9338C9.25301 22.0114 10.6214 21.9989 11.9998 21.9989C13.3807 21.9989 14.7491 22.0114 16.1275 21.9338C17.7286 21.8563 19.1495 21.4911 20.3203 20.3203C21.4936 19.147 21.8563 17.7286 21.9338 16.1275C22.0139 14.7491 21.9989 13.3807 21.9989 11.9998ZM19.7974 17.8987C19.6148 18.354 19.3947 18.6942 19.0419 19.0444C18.6892 19.3972 18.3515 19.6173 17.8962 19.7999C16.5803 20.3228 13.4558 20.2052 11.9973 20.2052C10.5389 20.2052 7.4118 20.3228 6.09593 19.8024C5.64064 19.6198 5.30041 19.3997 4.95018 19.0469C4.59745 18.6942 4.37731 18.3565 4.19469 17.9012C3.67434 16.5828 3.79192 13.4583 3.79192 11.9998C3.79192 10.5414 3.67434 7.4143 4.19469 6.09844C4.37731 5.64314 4.59745 5.30291 4.95018 4.95268C5.30291 4.60245 5.64064 4.37981 6.09593 4.19719C7.4118 3.67685 10.5389 3.79442 11.9973 3.79442C13.4558 3.79442 16.5828 3.67685 17.8987 4.19719C18.354 4.37981 18.6942 4.59995 19.0444 4.95268C19.3972 5.30542 19.6173 5.64314 19.7999 6.09844C20.3203 7.4143 20.2027 10.5414 20.2027 11.9998C20.2027 13.4583 20.3203 16.5828 19.7974 17.8987Z"
            />
        </symbol>

        <symbol id="icon-linkedin" viewBox="0 0 24 24" xmlns="http://www.w3.org/2000/svg">
            <path
                d="M17 13.1312V17H14.857V13.3897C14.857 12.4835 14.547 11.865 13.771 11.865C13.179 11.865 12.826 12.2815 12.671 12.6854C12.615 12.8298 12.6 13.0308 12.6 13.2317V17H10.456C10.456 17 10.485 10.8866 10.456 10.2535H12.6V11.2089L12.586 11.2309H12.6V11.2089C12.885 10.7484 13.393 10.0944 14.532 10.0944C15.942 10.0944 17 11.0592 17 13.1312ZM8.213 7C7.48 7 7 7.5044 7 8.16576C7 8.81457 7.466 9.33257 8.185 9.33257H8.199C8.947 9.33257 9.412 8.81352 9.412 8.16576C9.398 7.5044 8.947 7 8.213 7ZM7.127 17H9.271V10.2535H7.127V17Z"
            />
            <path
                d="M6 4C5.46957 4 4.96086 4.21071 4.58579 4.58579C4.21071 4.96086 4 5.46957 4 6V18C4 18.5304 4.21071 19.0391 4.58579 19.4142C4.96086 19.7893 5.46957 20 6 20H18C18.5304 20 19.0391 19.7893 19.4142 19.4142C19.7893 19.0391 20 18.5304 20 18V6C20 5.46957 19.7893 4.96086 19.4142 4.58579C19.0391 4.21071 18.5304 4 18 4H6ZM6 2H18C19.0609 2 20.0783 2.42143 20.8284 3.17157C21.5786 3.92172 22 4.93913 22 6V18C22 19.0609 21.5786 20.0783 20.8284 20.8284C20.0783 21.5786 19.0609 22 18 22H6C4.93913 22 3.92172 21.5786 3.17157 20.8284C2.42143 20.0783 2 19.0609 2 18V6C2 4.93913 2.42143 3.92172 3.17157 3.17157C3.92172 2.42143 4.93913 2 6 2Z"
            />
        </symbol>

        <symbol id="icon-fb" viewBox="0 0 24 24" xmlns="http://www.w3.org/2000/svg">
            <path
                d="M11.5122 10.7118V12.6396H10V14.9958H11.5122V22H14.6207V14.9958H16.706C16.706 14.9958 16.9025 13.866 16.997 12.6298H14.6327V11.0198C14.6327 10.7776 14.9717 10.4542 15.3078 10.4542H17V8H14.6972C11.4357 8 11.5122 10.359 11.5122 10.7118Z"
            />
            <path
                d="M6 4C5.46957 4 4.96086 4.21071 4.58579 4.58579C4.21071 4.96086 4 5.46957 4 6V18C4 18.5304 4.21071 19.0391 4.58579 19.4142C4.96086 19.7893 5.46957 20 6 20H18C18.5304 20 19.0391 19.7893 19.4142 19.4142C19.7893 19.0391 20 18.5304 20 18V6C20 5.46957 19.7893 4.96086 19.4142 4.58579C19.0391 4.21071 18.5304 4 18 4H6ZM6 2H18C19.0609 2 20.0783 2.42143 20.8284 3.17157C21.5786 3.92172 22 4.93913 22 6V18C22 19.0609 21.5786 20.0783 20.8284 20.8284C20.0783 21.5786 19.0609 22 18 22H6C4.93913 22 3.92172 21.5786 3.17157 20.8284C2.42143 20.0783 2 19.0609 2 18V6C2 4.93913 2.42143 3.92172 3.17157 3.17157C3.92172 2.42143 4.93913 2 6 2Z"
            />
        </symbol>

        <symbol id="icon-play" viewBox="0 0 145 152" fill="none"
            xmlns="http://www.w3.org/2000/svg">
            <path
                d="M3 76V126.858C3 143.72 21.5388 154.37 36.6318 146.187L60.065 133.471M3 46.8009V25.1425C3 8.27998 21.5388 -2.37039 36.6318 5.81266L130.365 56.6775C133.879 58.5419 136.818 61.3252 138.867 64.729C140.917 68.1329 142 72.029 142 76C142 79.971 140.917 83.8671 138.867 87.271C136.818 90.6748 133.879 93.4581 130.365 95.3225L83.4983 120.755"
                stroke-width="6" stroke-linecap="round" />
        </symbol>

        <symbol id="icon-backspace" viewBox="0 0 12 12"
            xmlns="http://www.w3.org/2000/svg">
            <path
                d="M5.51459 4.48505C5.4435 4.41881 5.34948 4.38274 5.25233 4.38446C5.15518 4.38617 5.06248 4.42553 4.99378 4.49423C4.92507 4.56294 4.88572 4.65563 4.884 4.75278C4.88229 4.84994 4.91835 4.94396 4.98459 5.01505L5.96959 6.00005L4.98459 6.98505C4.94775 7.01938 4.91819 7.06078 4.8977 7.10678C4.8772 7.15278 4.86618 7.20243 4.86529 7.25278C4.8644 7.30314 4.87367 7.35315 4.89253 7.39984C4.91139 7.44654 4.93946 7.48896 4.97507 7.52456C5.01068 7.56017 5.0531 7.58825 5.09979 7.60711C5.14648 7.62597 5.1965 7.63523 5.24685 7.63434C5.2972 7.63345 5.34686 7.62243 5.39286 7.60194C5.43886 7.58144 5.48026 7.55189 5.51459 7.51505L6.49959 6.53005L7.48459 7.51505C7.55568 7.58129 7.6497 7.61735 7.74685 7.61563C7.844 7.61392 7.93669 7.57456 8.0054 7.50586C8.07411 7.43715 8.11346 7.34446 8.11518 7.24731C8.11689 7.15016 8.08083 7.05613 8.01459 6.98505L7.02959 6.00005L8.01459 5.01505C8.08083 4.94396 8.11689 4.84994 8.11518 4.75278C8.11346 4.65563 8.07411 4.56294 8.0054 4.49423C7.93669 4.42553 7.844 4.38617 7.74685 4.38446C7.6497 4.38274 7.55568 4.41881 7.48459 4.48505L6.49959 5.47005L5.51459 4.48505Z"
            />
            <path fill-rule="evenodd" clip-rule="evenodd"
                d="M10.66 2.317C10.277 1.9445 9.7925 1.78 9.1935 1.7015C8.6095 1.625 7.8625 1.625 6.917 1.625H5.553C5.0115 1.625 4.579 1.625 4.225 1.658C3.86 1.692 3.55 1.763 3.2575 1.9205C2.9645 2.0785 2.7375 2.2975 2.5125 2.5825C2.296 2.858 2.0665 3.2155 1.78 3.6615L1.4185 4.225C1.1795 4.597 0.984 4.901 0.851 5.166C0.712 5.4425 0.625 5.706 0.625 6.0005C0.625 6.295 0.712 6.5585 0.851 6.8355C0.984 7.1005 1.1795 7.404 1.4185 7.776L1.78 8.339C2.0665 8.785 2.296 9.1425 2.513 9.418C2.7375 9.703 2.9645 9.922 3.258 10.08C3.55 10.2375 3.8595 10.3085 4.225 10.3425C4.579 10.3755 5.0115 10.3755 5.553 10.3755H6.917C7.8625 10.3755 8.6095 10.3755 9.1935 10.299C9.7925 10.2205 10.277 10.056 10.6595 9.6835C11.0435 9.31 11.2145 8.8345 11.296 8.2465C11.375 7.6765 11.375 6.9475 11.375 6.0295V5.9715C11.375 5.0535 11.375 4.325 11.296 3.7545C11.215 3.1665 11.0435 2.6915 10.6595 2.3175L10.66 2.317ZM6.8895 2.375C7.8685 2.375 8.5665 2.376 9.096 2.445C9.616 2.513 9.917 2.641 10.1365 2.855C10.3545 3.0665 10.484 3.3555 10.5535 3.857C10.624 4.37 10.625 5.0465 10.625 6C10.625 6.9535 10.624 7.63 10.5535 8.143C10.484 8.6445 10.3545 8.933 10.1365 9.1455C9.917 9.359 9.616 9.487 9.096 9.555C8.566 9.6245 7.8685 9.625 6.8895 9.625H5.571C5.0075 9.625 4.61 9.625 4.2945 9.595C3.987 9.5665 3.786 9.5125 3.6135 9.419C3.4415 9.3265 3.2885 9.1905 3.102 8.953C2.91 8.7095 2.7 8.383 2.401 7.9175L2.0605 7.3875C1.808 6.994 1.6345 6.7235 1.5215 6.498C1.412 6.2805 1.375 6.1355 1.375 6C1.375 5.8645 1.412 5.7195 1.5215 5.502C1.6345 5.277 1.808 5.006 2.0605 4.6125L2.4005 4.0825C2.7 3.6175 2.9105 3.2905 3.102 3.047C3.289 2.8095 3.442 2.6735 3.6135 2.581C3.786 2.4875 3.987 2.4335 4.2945 2.4045C4.6095 2.3755 5.0075 2.375 5.571 2.375H6.8895Z"
            />
        </symbol>

        <symbol id="icon-question" viewBox="0 0 12 12"
            xmlns="http://www.w3.org/2000/svg">
            <path
                d="M6 2C4.618 2 3.5 3.118 3.5 4.5C3.5 4.59946 3.53951 4.69484 3.60983 4.76516C3.68016 4.83549 3.77554 4.875 3.875 4.875C3.97446 4.875 4.06984 4.83549 4.14016 4.76516C4.21049 4.69484 4.25 4.59946 4.25 4.5C4.25 3.532 5.032 2.75 6 2.75C6.968 2.75 7.75 3.532 7.75 4.5C7.75 4.926 7.639 5.21 7.4855 5.43C7.3235 5.6615 7.102 5.8415 6.8345 6.046L6.7655 6.0985C6.2605 6.4825 5.625 6.9655 5.625 8V8.125C5.625 8.22446 5.66451 8.31984 5.73484 8.39017C5.80516 8.46049 5.90054 8.5 6 8.5C6.09946 8.5 6.19484 8.46049 6.26516 8.39017C6.33549 8.31984 6.375 8.22446 6.375 8.125V8C6.375 7.3415 6.732 7.0685 7.2675 6.659L7.2905 6.6415C7.554 6.44 7.864 6.198 8.1005 5.8595C8.3455 5.509 8.5 5.0745 8.5 4.5C8.5 3.118 7.382 2 6 2ZM6 10.5C6.13261 10.5 6.25979 10.4473 6.35355 10.3536C6.44732 10.2598 6.5 10.1326 6.5 10C6.5 9.86739 6.44732 9.74021 6.35355 9.64645C6.25979 9.55268 6.13261 9.5 6 9.5C5.86739 9.5 5.74021 9.55268 5.64645 9.64645C5.55268 9.74021 5.5 9.86739 5.5 10C5.5 10.1326 5.55268 10.2598 5.64645 10.3536C5.74021 10.4473 5.86739 10.5 6 10.5Z"
            />
        </symbol>

        <symbol id="icon-burger" viewBox="0 0 20 20"
            xmlns="http://www.w3.org/2000/svg">
            <path fill-rule="evenodd" clip-rule="evenodd"
                d="M1.94737 4C1.69611 4 1.45514 4.0903 1.27748 4.25103C1.09981 4.41177 1 4.62977 1 4.85708C1 5.08439 1.09981 5.3024 1.27748 5.46313C1.45514 5.62386 1.69611 5.71416 1.94737 5.71416H18.0526C18.3039 5.71416 18.5449 5.62386 18.7225 5.46313C18.9002 5.3024 19 5.08439 19 4.85708C19 4.62977 18.9002 4.41177 18.7225 4.25103C18.5449 4.0903 18.3039 4 18.0526 4H1.94737ZM1 9.99957C1 9.77226 1.09981 9.55426 1.27748 9.39352C1.45514 9.23279 1.69611 9.14249 1.94737 9.14249H18.0526C18.3039 9.14249 18.5449 9.23279 18.7225 9.39352C18.9002 9.55426 19 9.77226 19 9.99957C19 10.2269 18.9002 10.4449 18.7225 10.6056C18.5449 10.7664 18.3039 10.8567 18.0526 10.8567H1.94737C1.69611 10.8567 1.45514 10.7664 1.27748 10.6056C1.09981 10.4449 1 10.2269 1 9.99957ZM1 15.1429C1 14.9156 1.09981 14.6976 1.27748 14.5369C1.45514 14.3761 1.69611 14.2858 1.94737 14.2858H18.0526C18.3039 14.2858 18.5449 14.3761 18.7225 14.5369C18.9002 14.6976 19 14.9156 19 15.1429C19 15.3702 18.9002 15.5882 18.7225 15.749C18.5449 15.9097 18.3039 16 18.0526 16H1.94737C1.69611 16 1.45514 15.9097 1.27748 15.749C1.09981 15.5882 1 15.3702 1 15.1429Z"
            />
        </symbol>

        <svg id="icon-close" viewBox="0 0 18 18"
            xmlns="http://www.w3.org/2000/svg">
            <path
                d="M9.55648 8.49936L12.7784 5.28451C12.9195 5.1434 12.9987 4.95201 12.9987 4.75245C12.9987 4.55289 12.9195 4.3615 12.7784 4.22039C12.6373 4.07928 12.4459 4 12.2464 4C12.0468 4 11.8555 4.07928 11.7144 4.22039L8.5 7.44273L5.28561 4.22039C5.14451 4.07928 4.95315 4 4.75362 4C4.55409 4 4.36273 4.07928 4.22163 4.22039C4.08054 4.3615 4.00128 4.55289 4.00128 4.75245C4.00128 4.95201 4.08054 5.1434 4.22163 5.28451L7.44352 8.49936L4.22163 11.7142C4.15141 11.7839 4.09566 11.8668 4.05762 11.9581C4.01958 12.0494 4 12.1473 4 12.2463C4 12.3452 4.01958 12.4431 4.05762 12.5345C4.09566 12.6258 4.15141 12.7087 4.22163 12.7783C4.29129 12.8486 4.37416 12.9043 4.46547 12.9424C4.55677 12.9804 4.65471 13 4.75362 13C4.85253 13 4.95047 12.9804 5.04177 12.9424C5.13308 12.9043 5.21595 12.8486 5.28561 12.7783L8.5 9.55599L11.7144 12.7783C11.784 12.8486 11.8669 12.9043 11.9582 12.9424C12.0495 12.9804 12.1475 13 12.2464 13C12.3453 13 12.4432 12.9804 12.5345 12.9424C12.6258 12.9043 12.7087 12.8486 12.7784 12.7783C12.8486 12.7087 12.9043 12.6258 12.9424 12.5345C12.9804 12.4431 13 12.3452 13 12.2463C13 12.1473 12.9804 12.0494 12.9424 11.9581C12.9043 11.8668 12.8486 11.7839 12.7784 11.7142L9.55648 8.49936Z"
            />
        </svg>


    </defs>
</svg>