<svg version="1.1" xmlns="http://www.w3.org/2000/svg" xmlns:xlink="http://www.w3.org/1999/xlink">
    <defs>
        <symbol id="icon-loading" viewBox="0 0 60 60"
            xmlns="http://www.w3.org/2000/svg">
            <path
                d="M0 30C0 13.4315 13.4315 0 30 0C46.5685 0 60 13.4315 60 30C60 46.5685 46.5685 60 30 60C13.4315 60 0 46.5685 0 30ZM55.5415 30C55.5415 15.8938 44.1062 4.45852 30 4.45852C15.8938 4.45852 4.45852 15.8938 4.45852 30C4.45852 44.1062 15.8938 55.5415 30 55.5415C44.1062 55.5415 55.5415 44.1062 55.5415 30Z"
                fill="url(#paint0_angular_765_2058)" />
            <defs>
                <radialGradient id="paint0_angular_765_2058" cx="0" cy="0" r="1"
                    gradientUnits="userSpaceOnUse"
                    gradientTransform="translate(30 30) rotate(-90) scale(30)">
                    <stop stop-color="#027DE5" />
                    <stop offset="1" stop-color="#D9D9D9" stop-opacity="0" />
                </radialGradient>
            </defs>
        </symbol>


        <symbol id="icon-microsoft" viewBox="0 0 401 85" fill="none"
            xmlns="http://www.w3.org/2000/svg">
            <g clip-path="url(#clip0_545_543)">
                <path
                    d="M141.309 48.9195L138.917 55.6793H138.717C138.318 54.155 137.587 51.8355 136.391 49.0521L123.562 16.9101H111V68.1385H119.309V36.5266C119.309 34.5385 119.308 32.2852 119.242 29.5018C119.176 28.1101 119.043 27.0497 118.976 26.2544H119.176C119.574 28.2426 120.04 29.7006 120.372 30.6284L135.793 68.0059H141.642L156.929 30.297C157.262 29.4355 157.594 27.7124 157.926 26.2544H158.126C157.926 30.0319 157.793 33.4118 157.727 35.4663V67.9396H166.567V16.7775H154.47L141.309 48.9195ZM174.942 31.2248H183.583V67.9396H174.942V31.2248ZM179.329 15.7172C177.867 15.7172 176.67 16.2473 175.673 17.1751C174.676 18.103 174.145 19.2959 174.145 20.7538C174.145 22.1456 174.676 23.3385 175.673 24.2663C176.67 25.1941 177.867 25.658 179.329 25.658C180.791 25.658 182.054 25.1278 182.985 24.2663C183.982 23.3385 184.514 22.1456 184.514 20.7538C184.514 19.3621 183.982 18.1692 182.985 17.1751C182.121 16.2473 180.858 15.7172 179.329 15.7172ZM214.225 30.8935C212.63 30.5621 210.968 30.3633 209.373 30.3633C205.451 30.3633 201.862 31.2249 198.871 32.9479C195.88 34.671 193.487 37.0568 191.958 40.0391C190.363 43.0876 189.565 46.6 189.565 50.6426C189.565 54.155 190.363 57.2698 191.892 60.1195C193.42 62.903 195.547 65.1562 198.405 66.6805C201.131 68.2047 204.321 69 207.91 69C212.031 69 215.554 68.1385 218.346 66.5479L218.412 66.4817V58.529L218.08 58.7941C216.817 59.7219 215.355 60.5172 213.892 60.9811C212.364 61.5112 210.968 61.7763 209.771 61.7763C206.315 61.7763 203.59 60.7822 201.662 58.5953C199.668 56.4746 198.671 53.5586 198.671 49.9136C198.671 46.1361 199.668 43.1538 201.729 40.9669C203.789 38.7799 206.515 37.6533 209.838 37.6533C212.63 37.6533 215.488 38.5811 218.08 40.4367L218.412 40.7018V32.2852L218.346 32.2189C217.216 31.755 215.953 31.2248 214.225 30.8935ZM242.74 30.6284C240.613 30.6284 238.619 31.2911 236.89 32.6828C235.428 33.8757 234.431 35.5988 233.567 37.6533H233.501V31.2248H224.86V67.9396H233.501V49.1846C233.501 46.0035 234.165 43.3527 235.628 41.4308C237.09 39.4426 238.951 38.4485 241.211 38.4485C242.008 38.4485 242.806 38.6473 243.803 38.7799C244.734 39.045 245.398 39.3101 245.864 39.6414L246.196 39.9065V31.2911L245.997 31.2248C245.398 30.8272 244.202 30.6284 242.74 30.6284ZM266.269 30.4296C260.221 30.4296 255.369 32.2189 251.979 35.7314C248.522 39.2438 246.861 44.0817 246.861 50.1787C246.861 55.8781 248.589 60.5172 251.912 63.897C255.236 67.2107 259.755 68.9337 265.405 68.9337C271.321 68.9337 276.04 67.1444 279.43 63.5657C282.886 59.987 284.548 55.2154 284.548 49.3172C284.548 43.4852 282.953 38.8462 279.696 35.4663C276.572 32.0864 271.986 30.4296 266.269 30.4296ZM273.182 58.6615C271.587 60.716 269.061 61.7101 265.937 61.7101C262.813 61.7101 260.287 60.716 258.493 58.529C256.698 56.4746 255.834 53.4923 255.834 49.7148C255.834 45.8047 256.764 42.8225 258.493 40.7018C260.287 38.5811 262.747 37.5207 265.87 37.5207C268.928 37.5207 271.321 38.5148 273.049 40.5692C274.777 42.6237 275.708 45.6059 275.708 49.516C275.575 53.4923 274.844 56.6071 273.182 58.6615ZM303.824 46.4675C301.099 45.3408 299.37 44.4793 298.573 43.7503C297.908 43.0876 297.576 42.1598 297.576 40.9669C297.576 39.9728 297.975 38.9787 298.972 38.316C299.969 37.6533 301.099 37.3219 302.76 37.3219C304.223 37.3219 305.751 37.587 307.214 37.9846C308.676 38.3822 310.005 38.9787 311.069 39.774L311.401 40.0391V31.9538L311.202 31.8876C310.205 31.4899 308.875 31.0923 307.28 30.7609C305.685 30.4959 304.223 30.3633 303.026 30.3633C298.905 30.3633 295.515 31.3574 292.857 33.5444C290.198 35.5988 288.935 38.3822 288.935 41.6296C288.935 43.3527 289.201 44.8769 289.799 46.1361C290.397 47.3953 291.261 48.5882 292.458 49.5822C293.654 50.5101 295.382 51.5704 297.775 52.5645C299.769 53.426 301.298 54.0888 302.229 54.6189C303.159 55.1491 303.757 55.7456 304.223 56.2095C304.555 56.7396 304.754 57.4024 304.754 58.2639C304.754 60.716 302.893 61.9089 299.105 61.9089C297.642 61.9089 296.113 61.6438 294.319 61.0473C292.524 60.4509 290.862 59.5893 289.467 58.5953L289.134 58.3302V66.7467L289.334 66.813C290.597 67.4095 292.125 67.8071 293.986 68.271C295.848 68.6024 297.509 68.8675 298.972 68.8675C303.425 68.8675 307.081 67.8734 309.673 65.6864C312.332 63.5657 313.727 60.8485 313.727 57.3361C313.727 54.884 313.063 52.697 311.6 51.0402C309.673 49.4497 307.28 47.7929 303.824 46.4675ZM336.526 30.4296C330.477 30.4296 325.625 32.2189 322.235 35.7314C318.846 39.2438 317.117 44.0817 317.117 50.1787C317.117 55.8781 318.846 60.5172 322.169 63.897C325.492 67.2107 330.012 68.9337 335.662 68.9337C341.578 68.9337 346.297 67.1444 349.687 63.5657C353.143 59.987 354.805 55.2154 354.805 49.3172C354.805 43.4852 353.209 38.8462 349.953 35.4663C346.829 32.0864 342.242 30.4296 336.526 30.4296ZM343.372 58.6615C341.777 60.716 339.251 61.7101 336.127 61.7101C332.937 61.7101 330.477 60.716 328.683 58.529C326.888 56.4746 326.024 53.4923 326.024 49.7148C326.024 45.8047 326.955 42.8225 328.683 40.7018C330.477 38.5811 332.937 37.5207 336.061 37.5207C339.052 37.5207 341.511 38.5148 343.239 40.5692C344.967 42.6237 345.898 45.6059 345.898 49.516C345.898 53.4923 345.034 56.6071 343.372 58.6615ZM401 38.316V31.2248H392.293V20.3562L392.027 20.4225L383.785 22.8746L383.585 22.9408V31.2248H370.558V26.5858C370.558 24.4651 371.089 22.8083 372.02 21.7479C372.95 20.6876 374.346 20.1574 376.074 20.1574C377.271 20.1574 378.534 20.4225 379.93 21.0189L380.262 21.2178V13.729L380.063 13.6627C378.866 13.2651 377.271 13 375.21 13C372.618 13 370.358 13.5964 368.298 14.5905C366.237 15.7172 364.708 17.2414 363.578 19.2959C362.449 21.284 361.85 23.5373 361.85 26.1219V31.2248H355.802V38.2497H361.85V67.9396H370.558V38.316H383.585V57.2036C383.585 64.9574 387.241 68.8675 394.553 68.8675C395.749 68.8675 397.012 68.6686 398.208 68.4698C399.471 68.2047 400.402 67.8734 400.934 67.6083L401 67.542V60.4509L400.668 60.716C400.136 61.0473 399.671 61.3124 398.873 61.5112C398.208 61.7101 397.61 61.7763 397.145 61.7763C395.417 61.7763 394.22 61.3787 393.356 60.3846C392.559 59.4568 392.16 57.9325 392.16 55.6793V38.316H401Z"
                    fill="#737373" />
                <path d="M0 0H41V41H0V0Z" fill="#F25022" />
                <path d="M45 0H86V41H45V0Z" fill="#7FBA00" />
                <path d="M0 44H41V85H0V44Z" fill="#00A4EF" />
                <path d="M45 44H86V85H45V44Z" fill="#FFB900" />
            </g>
            <defs>
                <clipPath id="clip0_545_543">
                    <rect width="401" height="85" fill="white" />
                </clipPath>
            </defs>
        </symbol>

        <symbol id="icon-openai" viewBox="0 0 378 93" fill="none"
            xmlns="http://www.w3.org/2000/svg">
            <g opacity="0.6" clip-path="url(#clip0_545_539)">
                <path
                    d="M269.458 36.1714C263.939 36.1714 259.914 38.1143 257.96 41.6571L256.925 43.6V37.0857H247.841V76.5143H257.385V53.0857C257.385 47.4857 260.489 44.2857 265.778 44.2857C270.838 44.2857 273.827 47.3714 273.827 52.8571V76.5143H283.371V51.1429C283.371 41.7714 278.196 36.1714 269.458 36.1714ZM223.235 36.1714C211.967 36.1714 205.068 43.1429 205.068 54.3429V59.8286C205.068 70.6857 212.082 77.3143 223.465 77.3143C231.054 77.3143 236.343 74.5714 239.678 68.8571L233.814 65.4286C231.284 68.7429 227.375 70.6857 223.465 70.6857C217.716 70.6857 214.267 67.1429 214.267 61.2V59.6H240.828V53.0857C240.828 42.9143 233.929 36.1714 223.235 36.1714ZM232.204 53.5429H214.267V52.6286C214.267 46.1143 217.486 42.5714 223.235 42.5714C228.869 42.5714 232.204 46.1143 232.204 52.0571V53.5429ZM378 30.6857V23.1429H345V30.6857H356.614V68.9714H345V76.5143H378V68.9714H366.387V30.6857H378ZM127.916 22C113.198 22 104 31.1429 104 45.7714V53.7714C104 68.5143 113.198 77.5429 127.916 77.5429C142.634 77.5429 151.832 68.4 151.832 53.7714V45.7714C151.832 31.1429 142.634 22 127.916 22ZM141.944 54.3429C141.944 64.0571 136.885 69.6571 127.916 69.6571C118.948 69.6571 113.888 64.1714 113.888 54.3429V45.3143C113.888 35.6 119.063 30 127.916 30C136.77 30 141.944 35.6 141.944 45.3143V54.3429ZM181.842 36.1714C176.783 36.1714 172.529 38.2286 170.229 41.6571L169.194 43.2571V37.0857H160.111V90H169.654V70.9143L170.689 72.4C172.874 75.6 177.013 77.4286 181.957 77.4286C190.236 77.4286 198.514 72.0571 198.514 60.1714V53.4286C198.399 44.8571 193.225 36.1714 181.842 36.1714ZM188.856 59.7143C188.856 66.1143 185.177 70 179.083 70C173.449 70 169.539 65.8857 169.539 59.8286V53.8857C169.539 47.8286 173.449 43.6 179.083 43.6C185.062 43.6 188.741 47.4857 188.741 53.8857L188.856 59.7143ZM309.701 23.1429L290.499 76.5143H300.158L303.837 65.0857H325.914V65.2L329.593 76.5143H339.251L319.935 23.1429H309.701ZM306.252 57.5429L314.99 30.5714L323.614 57.5429H306.252Z"
                    fill="#201F1F" />
                <path
                    d="M85.8814 38.0037C87.9529 31.6889 87.2624 24.6852 83.9249 18.9444C78.8611 10.1037 68.6185 5.62593 58.606 7.69259C54.2327 2.75556 47.7879 0 41.1129 0C30.8703 0 21.8936 6.54445 18.6712 16.1889C12.1113 17.5667 6.47208 21.5852 3.13459 27.4407C-1.92919 36.2815 -0.778333 47.3037 6.01174 54.8815C3.94019 61.3111 4.74579 68.2 8.08328 73.9407C13.1471 82.7815 23.3897 87.3741 33.4022 85.1926C37.8905 90.1296 44.2203 93 50.8953 93C61.1379 93 70.1146 86.4556 73.337 76.8111C79.8969 75.4333 85.5361 71.4148 88.8736 65.5593C93.9374 56.7185 92.7865 45.5815 85.8814 38.0037ZM50.8953 86.9148C46.7522 86.9148 42.8392 85.537 39.7319 82.8963C39.847 82.7815 40.1923 82.6667 40.3073 82.5519L58.8362 71.8741C59.7569 71.3 60.3323 70.3815 60.3323 69.2333V43.1704L68.1581 47.6481C68.2732 47.6481 68.2732 47.763 68.2732 47.8778V69.463C68.3883 79.1074 60.5625 86.9148 50.8953 86.9148ZM13.3772 70.9556C11.3057 67.3963 10.6152 63.263 11.3057 59.2444C11.4208 59.3593 11.6509 59.4741 11.8811 59.5889L30.41 70.2667C31.3306 70.8407 32.4815 70.8407 33.4022 70.2667L56.0741 57.1778V66.2482C56.0741 66.363 56.0741 66.4778 55.959 66.4778L37.2 77.2704C28.9138 82.0926 18.2108 79.2222 13.3772 70.9556ZM8.54363 30.5407C10.6152 26.9815 13.8376 24.3407 17.6354 22.8481V44.8926C17.6354 45.9259 18.2108 46.9593 19.1315 47.5333L41.8035 60.6222L33.9776 65.1C33.8625 65.1 33.7474 65.2148 33.7474 65.1L14.9884 54.3074C6.47208 49.4852 3.71002 38.8074 8.54363 30.5407ZM72.9918 45.4667L50.3198 32.3778L58.1457 27.9C58.2607 27.9 58.3758 27.7852 58.3758 27.9L77.1348 38.6926C85.5361 43.5148 88.2982 54.1926 83.4646 62.4593C81.393 66.0185 78.1706 68.6593 74.3728 70.037V48.1074C74.4879 47.0741 73.9124 46.0407 72.9918 45.4667ZM80.7025 33.7556C80.5874 33.6407 80.3573 33.5259 80.1271 33.4111L61.5982 22.7333C60.6776 22.1593 59.5267 22.1593 58.606 22.7333L35.9341 35.8222V26.7519C35.9341 26.637 35.9341 26.5222 36.0492 26.5222L54.8082 15.7296C63.2094 10.9074 73.7974 13.7778 78.631 22.1593C80.7025 25.6037 81.393 29.737 80.7025 33.7556ZM31.6759 49.8296L23.8501 45.3519C23.735 45.3519 23.735 45.237 23.735 45.1222V23.537C23.735 13.8926 31.5608 6.08519 41.228 6.08519C45.3711 6.08519 49.284 7.46296 52.3914 10.1037C52.2763 10.2185 52.0461 10.3333 51.8159 10.4481L33.2871 21.1259C32.3664 21.7 31.791 22.6185 31.791 23.7667V49.8296H31.6759ZM35.9341 40.6444L46.0616 34.7889L56.1892 40.6444V52.2407L46.0616 58.0963L35.9341 52.2407V40.6444Z"
                    fill="#201F1F" />
            </g>
            <defs>
                <clipPath id="clip0_545_539">
                    <rect width="378" height="93" fill="white" />
                </clipPath>
            </defs>
        </symbol>

        <symbol id="icon-flag" viewBox="0 0 20 16" fill="none"
            xmlns="http://www.w3.org/2000/svg">
            <path fill-rule="evenodd" clip-rule="evenodd" d="M0 0H20V16H0V0Z" fill="#FFD500" />
            <path fill-rule="evenodd" clip-rule="evenodd" d="M0 0H20V8H0V0Z" fill="#005BBB" />
        </symbol>


    </defs>
</svg>