<svg width="147" height="28" viewBox="0 0 147 28" fill="none" xmlns="http://www.w3.org/2000/svg">
    <path fill-rule="evenodd" clip-rule="evenodd"
        d="M18.4008 7.36822C17.8346 6.38131 17.0561 5.62991 16.0653 5.11402C15.0745 4.59813 13.9186 4.34019 12.5975 4.34019C11.1348 4.34019 9.83735 4.65421 8.70499 5.28224C7.57264 5.91028 6.68798 6.80748 6.05103 7.97383C5.41408 9.14019 5.09561 10.486 5.09561 12.0112C5.09561 13.5813 5.41408 14.9495 6.05103 16.1159C6.71157 17.2822 7.61982 18.1794 8.77577 18.8075C9.93172 19.4355 11.2764 19.7495 12.8098 19.7495C14.6971 19.7495 16.372 19.3346 17.5751 18.3925C18.3125 17.6915 18.6337 17.386 18.8877 17.0323C19.0838 16.7593 19.2399 16.4575 19.5164 15.9227C19.5345 15.8876 19.5532 15.8515 19.5724 15.8144C16.8728 15.6385 14.1541 14.9231 14.1541 12.8217C14.1541 12.8217 23.2371 11.7298 25.9149 12.8217C26.5235 14.747 25.9149 23.9999 25.9149 23.9999C24.4444 23.9999 22.8551 22.9162 22.6242 19.3177C22.6083 19.3383 22.5924 19.3589 22.5764 19.3794C21.4912 20.7701 20.0875 21.8916 18.3654 22.7439C16.6669 23.5738 14.756 23.9888 12.6329 23.9888C10.2502 23.9888 8.09163 23.4841 6.15719 22.4748C4.24634 21.443 2.73653 20.0187 1.62776 18.2019C0.542588 16.385 0 14.3215 0 12.0112C0 9.70094 0.542588 7.63738 1.62776 5.82056C2.73653 3.98131 4.24634 2.55701 6.15719 1.54766C8.09163 0.515888 10.2384 0 12.5975 0C15.3812 0 17.7992 0.650467 19.8516 1.9514C21.904 3.22991 23.3195 5.03551 24.098 7.36822H18.4008ZM55.2936 0.302804V23.7869H50.3396V8.51215L43.7224 23.7869H39.9714L33.3188 8.51215V23.7869H28.3648V0.302804H33.9912L41.8469 17.7645L49.7026 0.302804H55.2936ZM77 4.10467V0.302804H58.8823V4.10467H65.4641V23.7869H70.4182V4.10467H77Z"
        fill="url(#paint0_linear_745_1321)" />
    <path
        d="M141.333 13C141.333 14.4728 142.527 15.6667 144 15.6667C145.473 15.6667 146.667 14.4728 146.667 13C146.667 11.5272 145.473 10.3333 144 10.3333C142.527 10.3333 141.333 11.5272 141.333 13ZM77 13.5L144 13.5V12.5L77 12.5V13.5Z"
        fill="#78AFE8" />
    <path
        d="M85.082 5.28147H88.2297V9.64888C87.7574 9.80904 87.2708 9.92813 86.7698 10.0062C86.2729 10.0842 85.7164 10.1232 85.1004 10.1232C84.1641 10.1232 83.3736 9.93635 82.7289 9.56264C82.0882 9.18894 81.6016 8.65713 81.269 7.96721C80.9363 7.27319 80.77 6.44981 80.77 5.49707C80.77 4.56486 80.9527 3.75175 81.3182 3.05773C81.6878 2.36371 82.2196 1.82574 82.9137 1.44382C83.6118 1.05779 84.4495 0.864782 85.4269 0.864782C85.9279 0.864782 86.4022 0.912009 86.8499 1.00646C87.3016 1.09681 87.7205 1.22617 88.1065 1.39454L87.7061 2.30621C87.3735 2.16248 87.0059 2.03928 86.6035 1.93662C86.2051 1.83395 85.7924 1.78262 85.3653 1.78262C84.6302 1.78262 83.9999 1.93456 83.4742 2.23845C82.9527 2.54234 82.5523 2.97149 82.273 3.52588C81.9979 4.08028 81.8603 4.73734 81.8603 5.49707C81.8603 6.24859 81.9815 6.90359 82.2237 7.4621C82.466 8.01649 82.8438 8.44769 83.3572 8.75569C83.8705 9.06369 84.5317 9.21769 85.3407 9.21769C85.7472 9.21769 86.0963 9.1951 86.3879 9.14993C86.6794 9.10065 86.9443 9.04315 87.1825 8.97745V6.21779H85.082V5.28147ZM92.8558 3.12549C93.4308 3.12549 93.9236 3.25279 94.3342 3.5074C94.7449 3.76202 95.059 4.11929 95.2767 4.57924C95.4943 5.03507 95.6032 5.56894 95.6032 6.18083V6.8153H90.9401C90.9524 7.60788 91.1495 8.21156 91.5314 8.62633C91.9134 9.0411 92.4513 9.24849 93.1454 9.24849C93.5724 9.24849 93.9503 9.20947 94.2788 9.13145C94.6073 9.05342 94.9482 8.93843 95.3013 8.78649V9.68584C94.9605 9.83779 94.6217 9.94867 94.2849 10.0185C93.9523 10.0883 93.5581 10.1232 93.1022 10.1232C92.4534 10.1232 91.8867 9.99179 91.4021 9.72896C90.9216 9.46203 90.5479 9.0719 90.281 8.55857C90.014 8.04524 89.8806 7.41692 89.8806 6.67362C89.8806 5.94675 90.0017 5.31843 90.244 4.78868C90.4904 4.25481 90.8354 3.84415 91.2789 3.55668C91.7265 3.26922 92.2522 3.12549 92.8558 3.12549ZM92.8435 3.96324C92.2973 3.96324 91.862 4.14188 91.5376 4.49916C91.2132 4.85644 91.0202 5.35539 90.9586 5.99603H94.5313C94.5272 5.59358 94.4636 5.24041 94.3404 4.93651C94.2213 4.62852 94.0385 4.39033 93.7921 4.22196C93.5457 4.04948 93.2295 3.96324 92.8435 3.96324ZM100.537 3.12549C101.338 3.12549 101.944 3.32261 102.354 3.71684C102.765 4.10697 102.97 4.73529 102.97 5.60179V10H101.96V5.66955C101.96 5.10694 101.831 4.68601 101.572 4.40676C101.318 4.12751 100.925 3.98788 100.396 3.98788C99.6482 3.98788 99.1226 4.19937 98.8187 4.62236C98.5148 5.04534 98.3628 5.65928 98.3628 6.46418V10H97.3403V3.24869H98.1657L98.3197 4.22196H98.3752C98.5189 3.98377 98.7016 3.7846 98.9234 3.62444C99.1451 3.46018 99.3936 3.33698 99.6687 3.25485C99.9439 3.16861 100.233 3.12549 100.537 3.12549ZM107.677 3.12549C108.252 3.12549 108.744 3.25279 109.155 3.5074C109.566 3.76202 109.88 4.11929 110.098 4.57924C110.315 5.03507 110.424 5.56894 110.424 6.18083V6.8153H105.761C105.773 7.60788 105.97 8.21156 106.352 8.62633C106.734 9.0411 107.272 9.24849 107.966 9.24849C108.393 9.24849 108.771 9.20947 109.1 9.13145C109.428 9.05342 109.769 8.93843 110.122 8.78649V9.68584C109.781 9.83779 109.443 9.94867 109.106 10.0185C108.773 10.0883 108.379 10.1232 107.923 10.1232C107.274 10.1232 106.708 9.99179 106.223 9.72896C105.742 9.46203 105.369 9.0719 105.102 8.55857C104.835 8.04524 104.701 7.41692 104.701 6.67362C104.701 5.94675 104.823 5.31843 105.065 4.78868C105.311 4.25481 105.656 3.84415 106.1 3.55668C106.547 3.26922 107.073 3.12549 107.677 3.12549ZM107.664 3.96324C107.118 3.96324 106.683 4.14188 106.358 4.49916C106.034 4.85644 105.841 5.35539 105.779 5.99603H109.352C109.348 5.59358 109.284 5.24041 109.161 4.93651C109.042 4.62852 108.859 4.39033 108.613 4.22196C108.367 4.04948 108.05 3.96324 107.664 3.96324ZM115.229 3.12549C115.364 3.12549 115.506 3.1337 115.654 3.15013C115.802 3.16245 115.933 3.18093 116.048 3.20557L115.919 4.1542C115.808 4.12545 115.685 4.10287 115.549 4.08644C115.414 4.07001 115.286 4.0618 115.167 4.0618C114.896 4.0618 114.639 4.11724 114.397 4.22812C114.159 4.33489 113.95 4.49094 113.769 4.69628C113.588 4.8975 113.447 5.14185 113.344 5.42931C113.241 5.71267 113.19 6.02888 113.19 6.37794V10H112.161V3.24869H113.011L113.122 4.493H113.165C113.305 4.24249 113.473 4.01457 113.67 3.80924C113.867 3.5998 114.095 3.43348 114.354 3.31029C114.617 3.18709 114.908 3.12549 115.229 3.12549ZM119.849 3.13781C120.654 3.13781 121.251 3.3185 121.641 3.67988C122.031 4.04127 122.227 4.61825 122.227 5.41083V10H121.481L121.284 9.00209H121.235C121.046 9.24849 120.849 9.45587 120.643 9.62424C120.438 9.78851 120.2 9.91376 119.929 10C119.662 10.0821 119.333 10.1232 118.943 10.1232C118.533 10.1232 118.167 10.0513 117.847 9.9076C117.531 9.76387 117.28 9.54622 117.095 9.25465C116.915 8.96307 116.824 8.59348 116.824 8.14585C116.824 7.47236 117.091 6.95493 117.625 6.59354C118.159 6.23216 118.972 6.03504 120.064 6.00219L121.229 5.95291V5.54019C121.229 4.95705 121.103 4.54844 120.853 4.31436C120.602 4.08028 120.249 3.96324 119.793 3.96324C119.44 3.96324 119.103 4.01457 118.783 4.11724C118.463 4.21991 118.159 4.34105 117.871 4.48068L117.557 3.70452C117.861 3.54847 118.21 3.415 118.604 3.30413C118.999 3.19325 119.413 3.13781 119.849 3.13781ZM121.216 6.67362L120.188 6.71674C119.346 6.7496 118.752 6.88717 118.407 7.12946C118.062 7.37175 117.89 7.71466 117.89 8.15817C117.89 8.5442 118.007 8.82961 118.241 9.01441C118.475 9.19921 118.785 9.2916 119.171 9.2916C119.771 9.2916 120.261 9.12529 120.643 8.79265C121.025 8.46001 121.216 7.96105 121.216 7.29578V6.67362ZM126.514 9.28544C126.682 9.28544 126.855 9.27107 127.031 9.24233C127.208 9.21358 127.352 9.17867 127.462 9.13761V9.93224C127.343 9.98563 127.177 10.0308 126.964 10.0678C126.754 10.1047 126.549 10.1232 126.348 10.1232C125.99 10.1232 125.666 10.0616 125.374 9.9384C125.083 9.81109 124.849 9.59755 124.672 9.29776C124.5 8.99798 124.413 8.58321 124.413 8.05345V4.04948H123.452V3.55052L124.419 3.15013L124.826 1.68406H125.442V3.24869H127.419V4.04948H125.442V8.02265C125.442 8.44564 125.539 8.76185 125.732 8.97129C125.929 9.18073 126.189 9.28544 126.514 9.28544ZM131.429 3.12549C132.004 3.12549 132.497 3.25279 132.908 3.5074C133.319 3.76202 133.633 4.11929 133.85 4.57924C134.068 5.03507 134.177 5.56894 134.177 6.18083V6.8153H129.514C129.526 7.60788 129.723 8.21156 130.105 8.62633C130.487 9.0411 131.025 9.24849 131.719 9.24849C132.146 9.24849 132.524 9.20947 132.852 9.13145C133.181 9.05342 133.522 8.93843 133.875 8.78649V9.68584C133.534 9.83779 133.195 9.94867 132.859 10.0185C132.526 10.0883 132.132 10.1232 131.676 10.1232C131.027 10.1232 130.46 9.99179 129.976 9.72896C129.495 9.46203 129.122 9.0719 128.855 8.55857C128.588 8.04524 128.454 7.41692 128.454 6.67362C128.454 5.94675 128.575 5.31843 128.818 4.78868C129.064 4.25481 129.409 3.84415 129.853 3.55668C130.3 3.26922 130.826 3.12549 131.429 3.12549ZM131.417 3.96324C130.871 3.96324 130.436 4.14188 130.111 4.49916C129.787 4.85644 129.594 5.35539 129.532 5.99603H133.105C133.101 5.59358 133.037 5.24041 132.914 4.93651C132.795 4.62852 132.612 4.39033 132.366 4.22196C132.119 4.04948 131.803 3.96324 131.417 3.96324ZM88.4083 17.1255C89.1516 17.1255 89.7122 17.3206 90.09 17.7107C90.4678 18.0967 90.6567 18.7189 90.6567 19.5772V24H89.6465V19.6264C89.6465 19.0802 89.5274 18.6716 89.2892 18.4006C89.0551 18.1255 88.7061 17.9879 88.242 17.9879C87.5891 17.9879 87.1148 18.1768 86.8191 18.5546C86.5234 18.9324 86.3756 19.4889 86.3756 20.2239V24H85.3592V19.6264C85.3592 19.2609 85.3058 18.957 85.199 18.7148C85.0963 18.4725 84.9403 18.2918 84.7308 18.1727C84.5255 18.0495 84.2647 17.9879 83.9485 17.9879C83.5009 17.9879 83.1416 18.0803 82.8705 18.2651C82.5995 18.4499 82.4024 18.725 82.2792 19.0905C82.1601 19.4519 82.1005 19.8975 82.1005 20.4272V24H81.078V17.2487H81.9034L82.0574 18.2035H82.1129C82.2484 17.9694 82.4188 17.7723 82.6241 17.6121C82.8295 17.452 83.0594 17.3308 83.3141 17.2487C83.5687 17.1666 83.8397 17.1255 84.1272 17.1255C84.6405 17.1255 85.0696 17.222 85.4146 17.415C85.7637 17.6039 86.0162 17.8934 86.1723 18.2836H86.2277C86.4495 17.8934 86.7534 17.6039 87.1394 17.415C87.5254 17.222 87.9484 17.1255 88.4083 17.1255ZM91.6916 17.2487H92.7881L94.2788 21.1664C94.365 21.3964 94.4451 21.6181 94.519 21.8317C94.5929 22.0411 94.6586 22.2424 94.7161 22.4354C94.7736 22.6284 94.8188 22.8152 94.8517 22.9959H94.8948C94.9523 22.7906 95.0344 22.5216 95.1412 22.189C95.2479 21.8522 95.3629 21.5093 95.4861 21.1603L96.8968 17.2487H97.9994L95.0611 24.9918C94.905 25.4065 94.7223 25.7679 94.5129 26.0759C94.3075 26.3839 94.057 26.62 93.7613 26.7843C93.4657 26.9527 93.1084 27.0369 92.6895 27.0369C92.4965 27.0369 92.3261 27.0245 92.1782 26.9999C92.0304 26.9794 91.9031 26.9547 91.7963 26.926V26.1067C91.8867 26.1272 91.9955 26.1457 92.1228 26.1621C92.2542 26.1786 92.3897 26.1868 92.5294 26.1868C92.784 26.1868 93.0037 26.1375 93.1885 26.0389C93.3774 25.9445 93.5396 25.8049 93.6751 25.6201C93.8106 25.4353 93.9277 25.2156 94.0262 24.961L94.3958 24.0123L91.6916 17.2487ZM104.535 23.2854C104.703 23.2854 104.876 23.2711 105.053 23.2423C105.229 23.2136 105.373 23.1787 105.484 23.1376V23.9322C105.365 23.9856 105.198 24.0308 104.985 24.0678C104.775 24.1047 104.57 24.1232 104.369 24.1232C104.012 24.1232 103.687 24.0616 103.396 23.9384C103.104 23.8111 102.87 23.5975 102.693 23.2978C102.521 22.998 102.435 22.5832 102.435 22.0535V18.0495H101.474V17.5505L102.441 17.1501L102.847 15.6841H103.463V17.2487H105.441V18.0495H103.463V22.0227C103.463 22.4456 103.56 22.7618 103.753 22.9713C103.95 23.1807 104.211 23.2854 104.535 23.2854ZM109.451 17.1255C110.026 17.1255 110.518 17.2528 110.929 17.5074C111.34 17.762 111.654 18.1193 111.872 18.5792C112.089 19.0351 112.198 19.5689 112.198 20.1808V20.8153H107.535C107.547 21.6079 107.744 22.2116 108.126 22.6263C108.508 23.0411 109.046 23.2485 109.74 23.2485C110.167 23.2485 110.545 23.2095 110.874 23.1314C111.202 23.0534 111.543 22.9384 111.896 22.7865V23.6858C111.555 23.8378 111.217 23.9487 110.88 24.0185C110.547 24.0883 110.153 24.1232 109.697 24.1232C109.048 24.1232 108.482 23.9918 107.997 23.729C107.517 23.462 107.143 23.0719 106.876 22.5586C106.609 22.0452 106.475 21.4169 106.475 20.6736C106.475 19.9467 106.597 19.3184 106.839 18.7887C107.085 18.2548 107.43 17.8441 107.874 17.5567C108.321 17.2692 108.847 17.1255 109.451 17.1255ZM109.438 17.9632C108.892 17.9632 108.457 18.1419 108.133 18.4992C107.808 18.8564 107.615 19.3554 107.553 19.996H111.126C111.122 19.5936 111.059 19.2404 110.935 18.9365C110.816 18.6285 110.633 18.3903 110.387 18.222C110.141 18.0495 109.824 17.9632 109.438 17.9632ZM118.303 22.152C118.303 22.5832 118.194 22.9466 117.976 23.2423C117.763 23.5339 117.455 23.7536 117.052 23.9014C116.654 24.0493 116.177 24.1232 115.623 24.1232C115.151 24.1232 114.742 24.0862 114.397 24.0123C114.052 23.9384 113.75 23.8337 113.492 23.6982V22.7557C113.767 22.8912 114.095 23.0144 114.477 23.1253C114.859 23.2362 115.249 23.2916 115.648 23.2916C116.231 23.2916 116.654 23.1972 116.917 23.0082C117.179 22.8193 117.311 22.5627 117.311 22.2383C117.311 22.0535 117.257 21.8912 117.151 21.7516C117.048 21.6079 116.874 21.4703 116.627 21.3389C116.381 21.2034 116.04 21.0555 115.605 20.8954C115.173 20.7311 114.8 20.5689 114.483 20.4087C114.171 20.2445 113.929 20.0453 113.757 19.8112C113.588 19.5772 113.504 19.2733 113.504 18.8996C113.504 18.3287 113.734 17.8914 114.194 17.5875C114.658 17.2795 115.266 17.1255 116.017 17.1255C116.424 17.1255 116.804 17.1666 117.157 17.2487C117.514 17.3267 117.847 17.4335 118.155 17.569L117.81 18.3883C117.531 18.2692 117.233 18.1686 116.917 18.0864C116.6 18.0043 116.278 17.9632 115.95 17.9632C115.477 17.9632 115.114 18.0413 114.859 18.1973C114.609 18.3534 114.483 18.5669 114.483 18.838C114.483 19.0474 114.541 19.2199 114.656 19.3554C114.775 19.4909 114.964 19.6182 115.223 19.7373C115.481 19.8564 115.822 19.996 116.245 20.1562C116.668 20.3122 117.034 20.4745 117.342 20.6428C117.65 20.8071 117.886 21.0083 118.05 21.2465C118.218 21.4806 118.303 21.7824 118.303 22.152ZM122.128 23.2854C122.296 23.2854 122.469 23.2711 122.645 23.2423C122.822 23.2136 122.966 23.1787 123.077 23.1376V23.9322C122.957 23.9856 122.791 24.0308 122.578 24.0678C122.368 24.1047 122.163 24.1232 121.962 24.1232C121.604 24.1232 121.28 24.0616 120.988 23.9384C120.697 23.8111 120.463 23.5975 120.286 23.2978C120.114 22.998 120.027 22.5832 120.027 22.0535V18.0495H119.066V17.5505L120.034 17.1501L120.44 15.6841H121.056V17.2487H123.033V18.0495H121.056V22.0227C121.056 22.4456 121.153 22.7618 121.346 22.9713C121.543 23.1807 121.804 23.2854 122.128 23.2854Z"
        fill="url(#paint1_linear_745_1321)" />
    <defs>
        <linearGradient id="paint0_linear_745_1321" x1="0.943631" y1="12.1122" x2="83.9831"
            y2="12.1122" gradientUnits="userSpaceOnUse">
            <stop stop-color="#3949D6" />
            <stop offset="1" stop-color="#86C8EC" />
        </linearGradient>
        <linearGradient id="paint1_linear_745_1321" x1="145.102" y1="12.5" x2="73.2653" y2="12.5"
            gradientUnits="userSpaceOnUse">
            <stop stop-color="#3D4ED7" />
            <stop offset="1" stop-color="#77AEE8" />
        </linearGradient>
    </defs>
</svg>